<svg width="71" height="42" fill="none" xmlns="http://www.w3.org/2000/svg"><path d="M50.583 26.924a5.323 5.323 0 01-1.55-.227L.968 12.187a1.341 1.341 0 01-.962-1.175c-.057-.553.244-1.063.746-1.318l18.52-9.14a5.313 5.313 0 013.76-.368l46.47 12.625c.517.142.905.553.991 1.091a1.321 1.321 0 01-.588 1.332l-16.41 10.811a5.28 5.28 0 01-2.913.879zM21.627 1.419c-.589 0-1.177.127-1.708.397L2.103 10.615c-.258.127-.215.496.043.567l47.303 14.14a3.859 3.859 0 003.244-.467l15.835-10.414c.23-.142.172-.482-.087-.553L22.646 1.56a4.112 4.112 0 00-1.02-.142z" fill="red"/><path d="M50.97 29.418a6.16 6.16 0 01-1.751-.255L.696 14.753a.706.706 0 01-.474-.879c.115-.368.517-.595.89-.468l48.538 14.41a4.625 4.625 0 003.876-.566L69.89 16.382a.721.721 0 01.99.198.7.7 0 01-.2.978L54.315 28.426a6.147 6.147 0 01-3.345.992z" fill="red"/><path d="M50.97 31.897a6.163 6.163 0 01-1.751-.255L.696 17.232a.706.706 0 01-.474-.878c.115-.369.517-.595.89-.468l48.538 14.41a4.625 4.625 0 003.876-.566L69.89 18.861a.721.721 0 01.99.198.7.7 0 01-.2.978L54.315 30.906a6.148 6.148 0 01-3.345.991z" fill="red"/><path d="M50.97 34.504a6.163 6.163 0 01-1.751-.255L.696 19.84a.706.706 0 01-.474-.878c.115-.369.517-.596.89-.468l48.538 14.41a4.625 4.625 0 003.876-.567L69.89 21.47a.721.721 0 01.99.198.7.7 0 01-.2.978L54.315 33.513a6.147 6.147 0 01-3.345.991z" fill="red"/><path d="M50.97 36.984a6.16 6.16 0 01-1.751-.255L.696 22.319a.706.706 0 01-.474-.879c.115-.368.517-.595.89-.467l48.538 14.41a4.625 4.625 0 003.876-.567L69.89 23.948a.721.721 0 01.99.198.7.7 0 01-.2.978L54.315 35.992a6.147 6.147 0 01-3.345.992z" fill="red"/><path d="M50.97 39.535a6.163 6.163 0 01-1.751-.255L.696 24.87a.706.706 0 01-.474-.88c.115-.368.517-.594.89-.467l48.538 14.41a4.625 4.625 0 003.876-.566L69.89 26.499a.721.721 0 01.99.198.7.7 0 01-.2.978L54.315 38.543a6.147 6.147 0 01-3.345.992z" fill="red"/><path d="M50.97 42a6.16 6.16 0 01-1.751-.255L.696 27.335a.706.706 0 01-.474-.879c.115-.368.517-.595.89-.467l48.538 14.41a4.625 4.625 0 003.876-.567L69.89 28.964a.721.721 0 01.99.199.7.7 0 01-.2.977L54.315 41.008A6.147 6.147 0 0150.97 42z" fill="red"/></svg>