<svg width="87" height="88" fill="none" xmlns="http://www.w3.org/2000/svg"><path d="M0 67.2c.502-.319.967-.775 1.514-.928 1.057-.298 2.156-.473 3.25-.605.699-.085.926-.383.966-1.08.216-3.744.475-7.486.724-11.228.432-6.485.865-12.97 1.296-19.456.08-1.2.152-2.401.234-3.6.068-1.01.5-1.425 1.507-1.448.368-.009.735-.009 1.105 0 .831.025 1.396.46 1.426 1.162.031.77-.386 1.224-1.117 1.393-.134.032-.268.058-.447.096-.155 2.333-.306 4.64-.463 7.03h8.236c-.154-2.366-.307-4.697-.46-7.066-.32-.016-.57-.018-.82-.044-.788-.078-1.312-.614-1.298-1.317.013-.706.551-1.22 1.348-1.247.622-.02 1.246-.02 1.868 0 .853.028 1.296.452 1.357 1.322.286 4.141.563 8.284.84 12.427.306 4.63.608 9.258.914 13.887.02.312.075.619.127 1.036 2.324-.45 4.61-.89 6.947-1.338.17-2.47.338-4.895.502-7.32.494-7.399.985-14.798 1.477-22.198.041-.6.046-1.203.102-1.801.096-.988.509-1.423 1.462-1.428 3.114-.02 6.23-.02 9.343 0 .96.007 1.369.406 1.446 1.428.22 2.913.41 5.827.604 8.74.313 4.744.63 9.485.912 14.23.027.45-.063 1.02-.329 1.341-.23.28-.862.484-1.175.357-.393-.155-.863-.648-.92-1.051-.202-1.442-.26-2.906-.342-4.363-.082-1.442-.066-1.444-1.446-1.444-2.492 0-4.984.007-7.476-.005-.451-.002-.726.053-.76.628-.24 4.031-.515 8.057-.776 12.086-.003.053.027.105.075.273l17.609-3.412v-13.93c0-1.701.315-2.024 1.965-2.024 6.625 0 13.252-.012 19.877.018.692.002.978-.204 1.173-.87.697-2.386 1.461-4.751 2.204-7.123.344-1.104.642-1.329 1.76-1.331 3-.003 6.004-.005 9.004 0 1.203.002 1.634.44 1.636 1.659.002 15.667.002 31.337 0 47.004 0 1.056-.495 1.675-1.298 1.657-.799-.018-1.246-.623-1.246-1.71-.002-11.858 0-23.717 0-35.576v-1.088H51.994v46.401h10.043v-.942c0-2.979-.002-5.958.002-8.937.002-1.331.411-1.748 1.72-1.75 2.917-.005 5.833-.005 8.75 0 1.402.002 1.77.366 1.77 1.764.004 2.95.002 5.9.002 8.85v1.006h10.156c0-.988-.005-2.005 0-3.023.005-1.07.474-1.682 1.278-1.677.8.005 1.264.614 1.268 1.689.005 1.26-.036 2.523.014 3.78.032.812-.18 1.447-.862 1.896H.005C0 81.064 0 74.132 0 67.2zm2.549 18.167h46.745V54.889c-1.072.211-2.066.41-3.06.603-10.078 1.955-20.157 3.912-30.24 5.848-.475.092-.607.287-.598.731.02.944.016 1.89.003 2.835-.016 1.068-.316 1.439-1.35 1.634-3.587.678-7.17 1.365-10.765 1.989-.642.112-.758.36-.747.94.034 1.688.012 3.38.012 5.068v10.83zm16.397-36.108h-9.67C8.927 54.514 8.587 59.695 8.237 65c1.505-.274 2.887-.508 4.256-.804.156-.034.331-.421.34-.65.039-.942.01-1.889.02-2.833.014-1.086.286-1.414 1.335-1.624 1.763-.356 3.531-.704 5.345-1.066l-.588-8.763zm52.743 27.075h-7.053v9.008h7.053v-9.008zM84.367 36.26v-6.693c-2.383 0-4.7-.016-7.018.025-.227.005-.572.314-.651.552-.606 1.813-1.164 3.642-1.73 5.47-.06.2-.074.413-.113.646h9.512zM33.62 26.051l-.424 6.377h8.145l-.429-6.378h-7.291zM9.811 41.235l-.34 5.303h9.289l-.345-5.303H9.81zm32.032-1.184a4599.55 4599.55 0 01-.322-4.923H33.01c-.104 1.669-.204 3.275-.309 4.923h9.142zM49.434 0c2.36.504 3.777 1.932 4.183 4.356.54 3.229-1.584 5.883-4.809 6.004-.14.005-.284.018-.424.007-1.412-.128-2.572-.057-3.332 1.581-.62 1.338-1.88 1.742-4.11 2.106 0 .733.007 1.494 0 2.253-.02 2.24-1.482 3.721-3.672 3.723-2.186.003-3.627-1.464-3.659-3.723v-.172c-.006-.63.207-1.407-.084-1.845-.252-.383-1.07-.376-1.636-.552-2.263-.713-3.64-3.085-3.327-5.722.295-2.5 2.07-4.212 4.575-4.368.847-.053 1.698-.002 2.547-.034.22-.01.572-.103.633-.252.767-1.895 2.247-2.867 4.119-3.36C43.434 0 46.434 0 49.434 0zm-2.426 7.796v-.012c.565 0 1.133.016 1.698-.002 1.55-.053 2.492-1.013 2.503-2.534.011-1.536-.987-2.626-2.512-2.647-2.49-.032-4.977-.03-7.467-.002-1.43.016-2.374.87-2.657 2.287-.2.994-.554 1.301-1.557 1.308-1.187.01-2.377-.023-3.563.018-1.076.037-1.9.557-2.336 1.572-.413.958-.268 1.939.46 2.62.518.483 1.279.834 1.98.96 1.672.3 2.578 1.221 2.6 2.928.01.688.005 1.373.005 2.06 0 .725.359 1.128 1.07 1.171.694.044 1.132-.398 1.159-1.17.023-.658.005-1.316.007-1.976.009-1.778.86-2.75 2.612-2.979 1.627-.21 2.313-.818 2.633-2.41.154-.768.592-1.153 1.33-1.188.676-.027 1.357-.004 2.035-.004zM10.49 19.918c-.531-.09-.926-.121-1.303-.224-1.813-.5-3.07-1.625-3.758-3.415-.107-.277-.359-.577-.62-.703-2.533-1.222-3.785-3.578-3.27-6.222.463-2.372 2.587-4.189 5.063-4.33 2.478-.143 4.646 1.5 5.463 4.14.025.078.059.153.122.318 1.725 0 3.475-.002 5.225 0 2.748.005 4.47 1.14 5.18 3.42.977 3.136-.714 6.785-4.33 6.922-.108.005-.217.04-.458.085 0 .724.01 1.455-.002 2.186-.045 2.837-2.483 4.524-5.113 3.534-1.28-.484-2.072-1.405-2.186-2.791-.077-.96-.013-1.932-.013-2.92zm9.908-5.206c.007-1.588-.99-2.626-2.6-2.645a336.081 336.081 0 00-6.623 0c-.717.007-1.212-.256-1.4-.971-.073-.273-.07-.564-.1-.848-.152-1.47-1.33-2.597-2.769-2.65-1.423-.052-2.664 1.018-2.896 2.494-.24 1.54.767 2.926 2.447 3.26.742.15 1.153.503 1.28 1.259.3 1.794.985 2.443 2.766 2.67 1.569.199 2.433 1.145 2.476 2.733.02.745-.009 1.49.019 2.232.027.704.388 1.128 1.116 1.13.726.002 1.092-.422 1.132-1.118.035-.57.012-1.146.014-1.719.002-2.223.71-3.027 2.9-3.295 1.412-.17 2.234-1.1 2.238-2.532z" fill="red"/><path d="M68.13 50.914c-3.367 0-6.735.004-10.103-.003-1.273-.002-1.65-.394-1.655-1.7-.004-1.402-.011-2.805.002-4.21.012-1.051.461-1.512 1.514-1.512 6.85-.007 13.697-.007 20.546 0 1.074 0 1.537.483 1.55 1.588.016 1.375.01 2.748.002 4.123-.006 1.287-.413 1.707-1.668 1.709-3.395.01-6.79.005-10.188.005zm9.285-4.794H58.98v2.138h18.435V46.12zM61.626 60.896c-1.243 0-2.487.011-3.733-.003-1.078-.011-1.507-.43-1.516-1.492-.014-1.487-.016-2.974.002-4.461.011-.995.472-1.464 1.47-1.471 2.518-.016 5.034-.016 7.55 0 .986.007 1.477.488 1.495 1.469.027 1.487.025 2.974.002 4.461-.016 1.047-.477 1.483-1.539 1.494-1.243.014-2.487.003-3.73.003zm2.674-2.633v-2.159h-5.313v2.159H64.3zm10.394 2.633c-1.273 0-2.544.016-3.817-.005-.96-.016-1.4-.46-1.412-1.423a216.899 216.899 0 010-4.549c.011-.948.47-1.441 1.405-1.448 2.573-.02 5.147-.02 7.718.002.877.007 1.371.509 1.39 1.398.029 1.545.029 3.09 0 4.634-.019.907-.489 1.368-1.383 1.384-1.3.023-2.6.004-3.901.007zm-2.653-2.631h5.347v-2.163H72.04v2.163zM61.622 70.882c-1.217 0-2.431.01-3.648-.002-1.186-.012-1.59-.413-1.6-1.586-.009-1.43-.01-2.86 0-4.29.01-1.097.457-1.553 1.56-1.558 2.46-.014 4.92-.014 7.38 0 1.094.007 1.566.477 1.582 1.563.018 1.43.016 2.86.002 4.29-.011 1.116-.451 1.567-1.543 1.58-1.244.015-2.487.003-3.733.003zm2.687-4.796h-5.32v2.159h5.32v-2.16zm10.351 4.796c-1.216 0-2.433.012-3.647-.002-1.124-.014-1.543-.435-1.553-1.55-.01-1.459-.013-2.916.003-4.376.009-1.006.458-1.496 1.439-1.506 2.544-.02 5.09-.02 7.634 0 .933.007 1.425.505 1.444 1.435.027 1.515.027 3.032.002 4.549-.016.955-.481 1.423-1.418 1.441-1.301.025-2.601.007-3.904.01zm-2.583-4.821v2.181h5.304v-2.181h-5.304zM26.68 75.717H9.62c-1.352 0-1.99-.435-1.967-1.331.022-.869.608-1.247 1.945-1.247H43.72c1.305 0 1.924.41 1.931 1.267.007.864-.633 1.309-1.91 1.309-5.688.002-11.376.002-17.06.002zm-2.623-12.663c.678 0 1.357-.016 2.036.005.857.027 1.34.454 1.366 1.31a76.04 76.04 0 01.002 4.377c-.025.876-.538 1.336-1.434 1.352a120.28 120.28 0 01-4.074 0c-.951-.016-1.42-.476-1.437-1.418a136.593 136.593 0 01-.002-4.207c.014-.963.463-1.396 1.419-1.419.71-.014 1.416 0 2.124 0zm-.935 2.603v1.82h1.743v-1.82h-1.743zm13.422.901c0 .715.016 1.432-.005 2.147-.025.862-.463 1.366-1.294 1.387a88.075 88.075 0 01-4.327.002c-.827-.018-1.312-.523-1.33-1.366a100.35 100.35 0 010-4.292c.018-.898.497-1.361 1.393-1.375 1.414-.02 2.83-.023 4.244.002.846.016 1.287.486 1.314 1.35.023.715.005 1.43.005 2.145zm-2.597.926v-1.792h-1.754v1.792h1.754zm4.753-.963c0-.687-.016-1.375.004-2.06.025-.921.459-1.386 1.35-1.4 1.414-.023 2.828-.023 4.244 0 .85.014 1.333.465 1.355 1.322.039 1.458.039 2.92 0 4.377-.022.834-.528 1.316-1.364 1.334-1.413.03-2.83.032-4.241 0-.876-.02-1.317-.516-1.342-1.428-.022-.712-.006-1.427-.006-2.145zm4.389-.818h-1.786v1.751h1.786v-1.75z" fill="red"/></svg>