<svg width="114" height="85" fill="none" xmlns="http://www.w3.org/2000/svg"><path fill-rule="evenodd" clip-rule="evenodd" d="M60 32H9.067C4.181 32 1.287 34.267.1 39.016a.168.168 0 01-.035.064c-.02.025-.045.049-.064.074v27.57l1.493 4.112L0 71.958v1.047c.124.077.245.169.366.26.273.206.544.411.84.454.553.078.715.371.871.795 1.047 2.83 2.105 5.657 3.155 8.485.464 1.253 1.354 1.953 2.684 1.974 2.086.033 4.172.031 6.258.002 1.325-.02 2.234-.69 2.696-1.951.138-.377.28-.753.423-1.128.207-.548.414-1.095.608-1.647.263-.75.685-1.301 1.542-1.287.81.012 1.224.527 1.476 1.253.226.653.474 1.3.722 1.948l.344.904c.457 1.225 1.354 1.883 2.638 1.904 2.114.037 4.23.038 6.343-.004 1.285-.026 2.166-.7 2.615-1.931.2-.553.41-1.102.62-1.652.174-.453.347-.906.515-1.361.248-.674.713-1.065 1.43-1.061.718.003 1.174.403 1.42 1.075.371 1.008.764 2.008 1.134 3.015.452 1.23 1.342 1.893 2.627 1.917 2.114.039 4.229.039 6.343 0 1.286-.024 2.174-.687 2.626-1.917.15-.405.304-.808.458-1.211.219-.573.438-1.146.643-1.724.25-.702.69-1.152 1.453-1.157.765-.005 1.215.443 1.469 1.14.172.47.35.94.528 1.408.193.508.385 1.016.57 1.526.447 1.232 1.33 1.906 2.615 1.932 2.114.043 4.23.038 6.343.005 1.288-.02 2.18-.68 2.639-1.904.358-.95.733-1.894 1.067-2.852.252-.723.662-1.241 1.474-1.253.859-.012 1.28.539 1.542 1.287.166.473.34.943.517 1.412.15.4.304.8.457 1.199.585 1.53 1.389 2.11 3.014 2.125 1.912.02 3.824.02 5.736 0 1.612-.016 2.416-.609 2.995-2.15.343-.912.684-1.825 1.026-2.738.695-1.86 1.39-3.719 2.098-5.572.108-.283.355-.555.609-.726a9.302 9.302 0 011.025-.572c.142-.072.285-.144.426-.219v-1.05l-.638-.49-.615-.473-.145.004-.144.005.755-2.095.787-2.185V52h-2.606v5.126l-.002 6.621v.625c-.93-1.412-1.866-2.799-2.756-4.216-.167-.265-.197-.652-.197-.984-.004-2.39-.006-4.781-.007-7.172h-2.665v5.623c-.35-.043-.702-.101-1.054-.16-.782-.129-1.564-.258-2.337-.219-2.05.107-3.696 1.21-4.94 2.77-.76.951-1.422 1.982-2.082 3.01-.29.453-.58.904-.877 1.348l-.101-.216c-.066-.142-.147-.317-.231-.49-.965-1.981-2.164-3.784-3.97-5.1-2.613-1.901-5.552-1.838-8.11.147-1.64 1.274-2.77 2.947-3.685 4.786-.153.31-.297.622-.502 1.049-.2-.384-.362-.675-.506-.974-.935-1.931-2.117-3.672-3.86-4.967-2.572-1.91-5.47-1.904-8.042.014-1.718 1.28-2.882 3-3.816 4.897l-.247.501-.264.534-.241-.459a6.436 6.436 0 01-.105-.21c-.462-.987-1.14-1.337-1.896-.978-.732.347-.849 1.04-.51 2.027a59.06 59.06 0 011.292 4.322c.102.392.11.806.12 1.238.004.2.009.405.022.612H20.717c.113-3.228 1.031-6.103 2.914-8.646a9.185 9.185 0 011.427-1.514c1.44-1.225 2.986-1.516 4.735-.572.4.216 1.109.19 1.505-.032.312-.174.53-.846.473-1.253-.054-.373-.464-.8-.827-1.01-2.24-1.282-4.485-1.192-6.656.176-1.979 1.246-3.267 3.094-4.3 5.146-.125.25-.246.503-.364.753l-.153.32a63.38 63.38 0 01-.643-1.112c-.466-.82-.926-1.627-1.462-2.38-1.387-1.945-3.127-3.503-5.618-3.712-.783-.066-1.582.056-2.392.18a24.05 24.05 0 01-1.125.153V40.258h7.087c0 .827-.005 1.656 0 2.485.012 1.98 1.088 3.05 3.077 3.057 1.246.003 2.493.016 3.737-.004 1.617-.024 2.715-1.12 2.752-2.739.01-.458.01-.916.009-1.395-.002-.46-.006-.937-.006-1.45h31.457c.075 0 .15 0 .226.002.216.005.432.01.641-.024.692-.111 1.094-.558 1.117-1.245.022-.693-.373-1.152-1.045-1.31-.277-.067-.577-.04-.866-.04H8.794c-2.208 0-3.226 1.03-3.226 3.26v4.277c0 4.68.002 9.36-.021 14.042-.004.441-.231.921-.466 1.316-.567.95-1.16 1.883-1.752 2.815-.227.357-.453.713-.678 1.07l-.013-.14a4.905 4.905 0 01-.03-.484c-.002-7.706-.006-15.412 0-23.118.001-3.604 2.4-6.01 5.998-6.01C25.738 34.62 42.87 34.619 60 34.62V32zm-1.986 39.166h-3.86c.191-3.92 1.32-7.295 4.045-9.97 1.742-1.706 3.582-1.916 5.32-.556 3.356 2.622 4.458 6.328 4.806 10.528-.184 0-.354-.002-.514-.004-.323-.004-.607-.008-.89.007-.914.047-1.416.527-1.41 1.314.006.784.508 1.277 1.435 1.284 2.37.016 4.74.014 7.111.012l2.361-.001h7.913c-.078.298-.115.514-.19.715-.307.832-.617 1.664-.928 2.496-.581 1.56-1.164 3.121-1.73 4.688-.186.514-.441.717-1.002.704a132.332 132.332 0 00-5.127-.001c-.518.008-.78-.16-.945-.658-.31-.935-.66-1.86-1.036-2.77-.694-1.67-2.149-2.672-3.847-2.611-1.794.064-3.063.961-3.759 2.622-.38.91-.723 1.836-1.037 2.771-.152.449-.355.654-.86.646-1.765-.03-3.533-.028-5.3 0-.498.008-.715-.189-.868-.637a49.19 49.19 0 00-1.038-2.771c-.687-1.672-2.131-2.682-3.835-2.631-1.794.052-3.072.94-3.772 2.6-.18.424-.338.859-.495 1.294-.19.52-.379 1.04-.605 1.544-.119.26-.51.555-.784.562a104.71 104.71 0 01-5.387.002c-.258-.005-.63-.269-.737-.51a25.456 25.456 0 01-.655-1.67c-.133-.365-.266-.73-.41-1.09-.693-1.74-2.12-2.744-3.851-2.743-1.733.002-3.149 1.004-3.847 2.75l-.096.24c-.313.782-.627 1.566-.878 2.369-.17.548-.464.7-1.006.689-1.68-.031-3.36-.044-5.04.005-.611.02-.874-.21-1.051-.757a41.948 41.948 0 00-.936-2.532c-.686-1.736-2.112-2.753-3.84-2.764-1.72-.01-3.17.998-3.865 2.726a56.817 56.817 0 00-1 2.692c-.153.445-.377.64-.876.632-.81-.014-1.621-.013-2.432-.012-.956 0-1.912.001-2.868-.022-.264-.005-.673-.239-.762-.467a417.536 417.536 0 01-2.47-6.534l-.446-1.203c-.027-.071-.004-.162-.004-.363h55.426c.12 0 .239.002.358.003.2.002.4.002.598-.01.876-.05 1.438-.577 1.424-1.319-.014-.741-.575-1.258-1.465-1.28a70.542 70.542 0 00-2.173-.012l-.87.003zm-7.926-6.306c.91 1.942 1.43 3.977 1.448 6.248H37.414c.294-4.112 1.429-7.766 4.695-10.416 1.549-1.258 3.176-1.19 4.798-.007 1.469 1.071 2.42 2.554 3.18 4.175zm-35.86-3.512c2.621 2.671 3.711 5.993 3.894 9.773H3.883c.07-.401.13-.796.19-1.186.127-.836.25-1.648.45-2.44.58-2.315 1.606-4.42 3.319-6.12 2.098-2.086 4.323-2.13 6.386-.027zm70.896 9.745H70.859c.271-4.029 1.406-7.6 4.507-10.262 1.73-1.486 3.633-1.367 5.415.201 1.94 1.707 3.027 3.942 3.678 6.391.211.793.337 1.61.468 2.458.062.397.124.8.197 1.212zM22.23 43.115h-4.27v-2.85h4.27v2.85z" fill="red"/><path d="M83.772 10.213c-2.324-3.584-1.004-6.993 1.045-8.702a6.518 6.518 0 018.118-.181c2.693 2.035 3.167 5.113 1.33 8.854.225.01.429.028.633.028 2.522.001 5.043-.005 7.565.003 2.712.008 4.77 1.58 5.373 4.18 2.021 8.7 4.03 17.4 6.018 26.107.783 3.425-1.68 6.47-5.232 6.486-4.504.022-9.008.007-13.514.005-.974 0-1.59-.517-1.575-1.298.015-.761.617-1.252 1.556-1.252 4.418-.004 8.837 0 13.254-.002 2.264-.002 3.435-1.469 2.93-3.656-1.959-8.495-3.918-16.99-5.875-25.486-.416-1.807-1.336-2.528-3.234-2.528H75.785c-1.867 0-2.783.716-3.194 2.496l-5.912 25.608c-.473 2.047.736 3.564 2.858 3.566 4.374.005 8.75.002 13.124.002.216 0 .434-.012.646.012.672.075 1.15.592 1.161 1.238.012.676-.473 1.215-1.173 1.292-.192.02-.387.01-.582.01-4.331 0-8.664.002-12.995 0-3.994-.002-6.416-2.94-5.539-6.771a9410.613 9410.613 0 015.957-25.795c.603-2.6 2.654-4.202 5.349-4.212 2.522-.009 5.043-.002 7.565-.002.21-.002.421-.002.722-.002zm5.203-7.66c-2.126.007-3.86 1.725-3.86 3.828 0 2.1 1.737 3.824 3.86 3.83 2.153.007 3.91-1.735 3.894-3.862-.015-2.097-1.765-3.803-3.894-3.796z" fill="red"/><path d="M90.28 45.688c.015.703-.58 1.302-1.293 1.3a1.295 1.295 0 01-1.283-1.245c-.017-.703.58-1.302 1.292-1.3.688.003 1.268.566 1.284 1.245zm-4.056-21.744h.287v1.573h-.117c-.519 0-.982.077-1.387.232-.406.155-.75.376-1.032.663a2.886 2.886 0 00-.643 1.026 3.92 3.92 0 00-.219 1.346v1.655c0 .355.034.67.103.943.073.269.175.494.307.677.137.177.297.312.479.403.182.086.387.13.615.13.214 0 .408-.046.581-.137a1.3 1.3 0 00.451-.383 1.77 1.77 0 00.287-.588c.069-.228.103-.476.103-.745s-.034-.517-.103-.745a1.687 1.687 0 00-.287-.588 1.315 1.315 0 00-.464-.39 1.357 1.357 0 00-.616-.136 1.572 1.572 0 00-1.367.766 1.473 1.473 0 00-.212.704l-.594-.383c.013-.351.086-.684.218-.998.137-.315.324-.593.56-.834.242-.246.532-.438.869-.575a2.93 2.93 0 011.142-.211c.464 0 .872.088 1.223.266.356.178.652.422.889.732s.415.667.533 1.073c.119.405.178.838.178 1.299 0 .483-.08.932-.24 1.346a3.15 3.15 0 01-.676 1.087c-.292.31-.643.552-1.053.725-.41.173-.87.26-1.38.26a3.53 3.53 0 01-1.443-.287 3.283 3.283 0 01-1.108-.82 3.718 3.718 0 01-.717-1.252 4.906 4.906 0 01-.247-1.586v-.765c0-.802.117-1.536.35-2.201a5.067 5.067 0 011.018-1.737 4.529 4.529 0 011.6-1.141c.624-.27 1.328-.404 2.112-.404zm9.659 4.204v1.723c0 .748-.08 1.392-.24 1.935-.159.537-.39.98-.69 1.326-.296.342-.65.595-1.06.759a3.65 3.65 0 01-1.367.246c-.4 0-.774-.05-1.12-.15a2.82 2.82 0 01-.937-.486 3.082 3.082 0 01-.711-.827 4.246 4.246 0 01-.451-1.203 7.315 7.315 0 01-.158-1.6v-1.723c0-.747.08-1.387.24-1.92.164-.538.394-.978.69-1.32a2.71 2.71 0 011.067-.752c.41-.164.865-.246 1.367-.246.4 0 .772.053 1.114.157.346.1.659.258.937.472.278.214.515.49.71.827.196.333.347.732.452 1.197.104.46.157.988.157 1.585zm-1.976 1.983v-2.25c0-.36-.02-.674-.061-.942a2.769 2.769 0 00-.171-.684 1.445 1.445 0 00-.287-.465 1.045 1.045 0 00-.39-.26 1.372 1.372 0 00-.485-.082c-.224 0-.422.043-.595.13a1.106 1.106 0 00-.43.417c-.12.187-.21.438-.274.752-.06.31-.089.688-.089 1.135v2.249c0 .36.018.677.055.95.04.274.1.508.177.704.082.192.178.349.287.472.114.118.244.205.39.26.15.054.315.082.492.082.22 0 .413-.044.581-.13.174-.091.32-.233.438-.424.123-.196.214-.451.273-.766.06-.314.09-.697.09-1.148z" fill="red"/></svg>