<svg width="138" height="83" fill="none" xmlns="http://www.w3.org/2000/svg"><path d="M102.688 11.51c.074-.931.055-1.754.216-2.54.476-2.31 2.459-3.921 4.816-3.952 1.872-.026 3.744-.022 5.614-.002 2.854.028 5.013 2.204 5.05 5.066.007.431 0 .865 0 1.43h3.318c1.509.002 1.89.372 1.892 1.848.002 1.353.002 2.707 0 4.06-.002 1.504-.376 1.886-1.855 1.888h-1.996v3.08c2.81.732 4.925 2.535 6.906 4.596 2.157 2.247 4.448 4.365 6.64 6.578 4.018 4.056 5.373 8.914 4.418 14.513-1.546 9.064-3.018 18.141-4.522 27.212-.181 1.093-.255 2.221-.579 3.271-.741 2.402-2.583 3.651-4.92 4.254-.57.148-1.181.176-1.774.178-9.358.011-18.714.013-28.072.005-4.01-.002-6.8-2.792-6.801-6.802-.007-10.667.085-21.334-.037-32.001-.061-5.445 1.474-10.318 4.577-14.685 1.606-2.26 3.576-4.265 5.35-6.409.264-.316.466-.765.503-1.171.076-.829.024-1.67.024-2.619-.818 0-1.594.009-2.368-.002-1.059-.015-1.529-.484-1.535-1.549-.011-1.57-.011-3.141 0-4.712.008-1.059.48-1.523 1.55-1.531 1.189-.013 2.379-.005 3.585-.005zm22.208 68.883c.559 0 .992.013 1.425-.002 2.128-.076 3.641-1.436 3.959-3.532.089-.587.204-1.171.3-1.759 1.502-9.07 2.955-18.147 4.529-27.205.839-4.827-.198-9.023-3.681-12.522a651.936 651.936 0 00-8.334-8.213c-1.744-1.69-3.905-2.58-6.305-2.628-4.31-.084-8.624-.032-12.935-.006-.337.002-.752.154-.994.382-3.03 2.878-5.538 6.15-7.34 9.936-1.57 3.3-2.127 6.77-1.81 10.46h.908c4.718 0 9.436.014 14.154-.012.774-.005 1.322.245 1.82.84 4.538 5.384 9.09 10.756 13.656 16.116.448.527.661 1.063.657 1.76-.02 5.143-.011 10.285-.011 15.429.002.288.002.581.002.957zm-31.25-32.491v.867c0 9.12-.002 18.239 0 27.36 0 2.69 1.596 4.264 4.316 4.264 7.807.003 15.615 0 23.423 0h.83c.042-.16.068-.21.068-.26.004-5.25.013-10.5-.007-15.75 0-.286-.171-.62-.365-.848-4.244-5.027-8.508-10.04-12.75-15.07-.346-.407-.687-.583-1.228-.579-4.473.022-8.947.014-13.42.014-.263.002-.526.002-.867.002zm27.308-33.735h-20.759v2.497h20.759v-2.497zm-15.589-2.714h10.417c0-.46.004-.864 0-1.265-.02-1.584-1.007-2.566-2.605-2.575a315.92 315.92 0 00-5.366.004c-1.396.018-2.398 1.022-2.442 2.406-.015.456-.004.913-.004 1.43zm11.68 7.899h-12.928v2.497h12.928v-2.497z" fill="red"/><path d="M125.755 47.913c-1.691-.046-3.042-.508-4.111-1.552-2.325-2.269-4.651-4.54-6.895-6.888-2.198-2.301-2.079-5.911.159-8.13 2.246-2.229 5.849-2.348 8.149-.16 2.353 2.24 4.666 4.526 6.89 6.893 1.718 1.83 2.018 4.042 1.011 6.33-1.017 2.305-2.918 3.38-5.203 3.507zm3.088-5.966c.011-.955-.376-1.736-1.035-2.393-2.107-2.107-4.205-4.224-6.332-6.311-1.393-1.37-3.418-1.367-4.735-.046-1.292 1.295-1.283 3.274.037 4.667.576.61 1.185 1.19 1.778 1.783 1.553 1.549 3.088 3.117 4.666 4.642 1.055 1.018 2.316 1.28 3.67.675 1.285-.572 1.918-1.614 1.951-3.017zm-20.912 8.61v2.504H96.316v-2.504h11.615zm-2.603 5.2V58.3h-9.012v-2.543h9.012zm11.793 19.471h2.514v2.523h-2.514v-2.523zM83 46.422c-.747.778-1.425.988-1.923.457-.295-.315-.477-.849-.505-1.297-.381-6.241-1.553-12.312-3.718-18.182-.217-.586-.503-.76-1.111-.759-8.51.02-17.017.022-25.526-.002-.663-.002-.92.223-1.141.829-3.067 8.334-4.163 16.942-3.57 25.792.42 6.274 1.763 12.332 4.159 18.149.236.575.526.74 1.126.737 8.13-.022 16.26-.022 24.39 0 .611.002.878-.201 1.11-.763 2.514-6.073 3.835-12.413 4.238-18.96.041-.676.071-1.32.83-1.612.768-.295 1.193.216 1.639.689v1.638c-.212 1.727-.397 3.457-.643 5.18-.969 6.808-3.113 13.218-6.344 19.278-1.895 3.553-4.73 5.403-8.75 5.375-3.051-.022-6.105.03-9.154-.033-3.322-.07-5.921-1.51-7.626-4.44a53.354 53.354 0 01-6.211-16.32c-2.56-12.605-1.614-24.92 3.047-36.934 1.7-4.385 3.244-8.83 4.875-13.244.245-.66.529-1.316.873-1.929.957-1.697 2.378-2.593 4.368-2.574 3.673.035 7.346.04 11.02-.002 2.096-.022 3.649.886 4.49 2.756.989 2.202 1.808 4.485 2.633 6.757 1.696 4.676 3.448 9.336 4.988 14.066 1.334 4.1 1.968 8.367 2.29 12.673.018.24.094.477.144.713.002.654.002 1.308.002 1.962zm-7.383-22.256c-.955-2.607-1.863-5.104-2.798-7.59-.063-.17-.34-.357-.522-.364-1.048-.035-2.099-.017-3.15-.017-.103.321-.172.584-.27.835-.933 2.414-2.636 3.91-5.208 4.186-2.706.29-4.995-.742-6.084-3.233-.734-1.679-1.674-2.01-3.188-1.793a1.721 1.721 0 01-.485 0c-.524-.079-.75.175-.92.66-.748 2.128-1.536 4.241-2.31 6.36-.108.295-.207.593-.333.956h25.268zm-.652 50.47H51.111c.648 1.114 1.198 2.137 1.822 3.113 1.124 1.756 2.785 2.668 4.823 2.705 3.48.063 6.965.057 10.445 0 1.52-.024 2.991-.486 3.979-1.719.983-1.236 1.789-2.615 2.785-4.098zm-3.1-60.939c-.47-.977-.848-1.863-1.31-2.705-.396-.722-1.065-1.037-1.89-1.037-3.801.007-7.604-.02-11.405.029-.515.006-1.141.25-1.514.601-.858.812-1.187 1.947-1.555 3.108 5.895.004 11.682.004 17.675.004zm-12.387 2.528c.4 1.634 2.06 2.718 3.818 2.574 1.57-.127 3.015-1.312 3.106-2.574h-6.924zM23.65 8.667c0 .991-.022 1.94.02 2.885.006.157.257.378.439.444 1.997.726 2.906 1.99 2.924 4.109.002.19.013.383-.003.573-.09 1.161-.032 2.073 1.31 2.707 1.393.659 1.945 2.135 1.96 3.711.022 2.347.01 4.691.035 7.038.009.706.085 1.415.154 2.121.095.978.533 1.754 1.36 2.303 1.083.72 2.149 1.463 3.236 2.176 2.413 1.585 3.604 3.836 3.625 6.729.015 1.992.03 3.982.022 5.974-.004.827-.496 1.367-1.189 1.385-.721.02-1.217-.543-1.237-1.413-.047-2.261-.06-4.525-.143-6.786-.054-1.452-.736-2.613-1.903-3.446a134.038 134.038 0 00-3.751-2.572c-1.566-1.041-2.337-2.53-2.465-4.378-.106-1.516-.156-3.036-.232-4.595h-16.88c-.073 1.505-.138 2.994-.218 4.48-.11 2.022-1.003 3.58-2.712 4.666-.89.566-1.733 1.213-2.642 1.745-2.027 1.185-2.915 2.97-2.907 5.288.01 2.51-.01 5.018-.013 7.529-.002 5.701.016 11.402-.02 17.104-.003.73.237 1.02.9 1.26 5.678 2.035 11.537 2.772 17.527 2.516 4.997-.214 9.854-1.139 14.52-3.026.75-.304.972-.683.963-1.485-.047-3.954-.021-7.91-.021-11.866 0-.245-.022-.497.017-.735.11-.645.5-1.026 1.154-1.047.659-.025 1.07.343 1.222.97.063.258.037.543.037.814.002 7.285.002 14.567 0 21.851 0 3.322-1.941 5.297-5.23 5.3-9.428.006-18.858.006-28.286 0C1.94 82.992.008 81.011.006 77.68.002 66.932-.003 56.186.002 45.438c0-.9.07-1.798.104-2.697.097-2.547 1.319-4.44 3.355-5.85 1.046-.724 2.094-1.45 3.166-2.13 1.044-.662 1.628-1.574 1.654-2.82.059-2.835.133-5.67.148-8.506.013-2.156.894-3.704 2.852-4.623.2-.094.394-.417.41-.65.051-.76.004-1.526.025-2.289.05-1.9 1.053-3.27 2.838-3.83.405-.126.567-.29.552-.727-.033-.866-.009-1.732-.009-2.695-.905 0-1.735.007-2.564-.002-3.4-.035-6.034-3.125-5.562-6.514C7.142.885 7.898.12 9.126.069c1.35-.06 2.7-.04 4.05-.042 3.81-.004 7.621.079 11.427-.02 5.303-.137 9.834 1.665 13.72 5.242a107.2 107.2 0 012.884 2.756c.98.97 1.003 2.077.068 3.107a116.58 116.58 0 01-2.855 3.018c-.99 1.013-2.103 1.021-3.145.044-.831-.78-1.637-1.585-2.475-2.36-2.852-2.63-5.137-3.424-9.15-3.147zM2.436 72.057v5.41c0 2.276.8 3.077 3.08 3.077h27.698c.322 0 .65.004.97-.031 1.109-.12 2.047-.938 2.081-2.05.072-2.302.022-4.611.022-6.945-11.23 4.151-22.465 4.21-33.85.538zM9.427 2.54c-.17 2.023 1.226 3.615 3.136 3.621 4.022.013 8.046.077 12.068-.017 3.835-.09 7.073 1.198 9.821 3.853.776.75 1.566 1.485 2.387 2.263l2.57-2.727c-1.545-1.349-2.96-2.694-4.489-3.888-2.64-2.06-5.661-3.13-9.014-3.138-5.345-.015-10.69-.007-16.035-.007-.132 0-.264.022-.444.04zm1.443 22.533h17v-1.445c-.001-1.94-.714-2.666-2.633-2.67-2.913-.005-5.826-.002-8.739-.002-1.16 0-2.321-.031-3.478.015-1.354.052-2.116.879-2.146 2.25-.015.597-.004 1.194-.004 1.852zm13.694-6.622c0-.995.065-1.944-.02-2.882-.07-.767-.613-1.218-1.386-1.225-2.534-.02-5.068-.021-7.602.003-.732.006-1.273.437-1.338 1.174-.085.96-.022 1.933-.022 2.928 3.483.002 6.896.002 10.368.002zm-6.987-9.799v3.182h3.578V8.652h-3.578z" fill="red"/><path d="M19.452 42.986c2.647 0 5.291-.004 7.938 0 2.607.007 4.32 1.708 4.344 4.332.007.816.022 1.643-.106 2.443-.303 1.914-1.914 3.344-3.83 3.355-5.617.03-11.23.03-16.846 0-1.943-.011-3.589-1.48-3.842-3.434a12.958 12.958 0 01-.03-3.092c.238-2.126 1.912-3.584 4.032-3.597 2.78-.022 5.56-.007 8.34-.007zm0 2.454c-2.724 0-5.449-.009-8.173.004-1.14.005-1.774.61-1.83 1.732-.03.626-.04 1.255.01 1.879.079.995.707 1.607 1.699 1.61 5.477.012 10.952.012 16.429 0 .99-.003 1.618-.62 1.7-1.61.046-.54.024-1.09.018-1.634-.02-1.373-.629-1.977-2.002-1.979-2.616-.004-5.232-.002-7.85-.002zm-.045 17.169c2.644 0 5.289-.004 7.933.002.973.002 1.503.429 1.516 1.192.013.77-.528 1.258-1.468 1.258-5.343.006-10.686.002-16.029.006-.652 0-1.274-.186-1.38-.86-.067-.424.163-.99.442-1.344.176-.223.689-.239 1.053-.243 2.644-.02 5.289-.011 7.933-.011zm-.078-2.915c-1.375 0-2.75.009-4.124-.002-.888-.01-1.418-.47-1.427-1.205-.01-.74.522-1.245 1.39-1.249 2.803-.013 5.608-.013 8.412 0 .873.004 1.4.507 1.386 1.253-.013.737-.539 1.194-1.429 1.2-1.403.012-2.807.003-4.208.003zm52.032-12.5c-.108 2.626-1.587 5.213-4.728 6.571-3.38 1.461-6.664 1.087-9.455-1.39-2.556-2.27-3.247-5.275-2.183-8.49.658-1.992 1.676-3.888 2.716-5.721 1.108-1.957 2.414-3.805 3.67-5.675.968-1.443 2.233-1.474 3.154-.022 1.86 2.933 3.71 5.874 5.44 8.886.882 1.526 1.44 3.227 1.386 5.84zm-8.494-12.872c-1.72 2.97-3.357 5.747-4.936 8.56-.366.65-.58 1.407-.77 2.14-.581 2.224.296 4.667 2.083 5.953 2.153 1.548 5.496 1.487 7.595-.14 1.984-1.538 2.632-4.18 1.616-6.873-1.289-3.414-3.418-6.343-5.588-9.64zm.065 26.984c-3.103 0-6.21.002-9.313-.003-.294 0-.602.003-.879-.083-.583-.179-.899-.619-.849-1.233.052-.645.433-1.041 1.083-1.124.212-.026.431-.013.648-.013h18.705c.217 0 .433-.013.648.013.654.08 1.03.483 1.083 1.124.05.61-.269 1.054-.854 1.233-.277.083-.584.081-.879.081-3.132.007-6.263.005-9.393.005zm.046 4.924c-1.648 0-3.297.007-4.945-.002-.961-.004-1.49-.448-1.492-1.222-.004-.779.524-1.227 1.481-1.23 3.297-.004 6.593-.004 9.89 0 .963.003 1.49.443 1.494 1.219.002.776-.529 1.229-1.484 1.233-1.648.007-3.296.003-4.944.003z" fill="red"/></svg>