<svg width="92" height="93" fill="none" xmlns="http://www.w3.org/2000/svg"><path d="M0 39.054c.44-.716 1.073-.932 1.896-.917 2.362.043 4.726.014 7.23.014 0-.645-.01-1.237.002-1.832.036-1.796.852-3.142 2.414-3.955 1.6-.835 3.2-.684 4.654.383.43.316.727.36 1.19.117 7.784-4.062 15.577-8.108 23.365-12.158.178-.092.346-.208.36-.218-.317-1.16-.696-2.206-.866-3.286-.159-.985.386-1.623 1.185-1.696.78-.07 1.31.522 1.493 1.478.137.713.425 1.398.715 2.317 1.59-1.278 3.044-1.448 4.402-.189 1.517-1.517 1.368-3.715-.34-4.841-1.717-1.13-2.778-2.62-3.051-4.807-1.433 0-2.861.024-4.287-.005-2.244-.049-4.205-1.488-4.62-3.703-.283-1.521-.211-3.13-.14-4.693.04-.808.76-1.068 1.532-1.063 2.035.012 4.07.002 6.108.002 3.802 0 7.604-.002 11.408 0 1.356 0 1.786.428 1.798 1.767.007.879.014 1.757-.003 2.633-.055 2.941-2.095 5.016-4.992 5.062-1.315.022-2.63.002-4.037.002.123.995.54 1.75 1.332 2.19 2.775 1.54 4.121 5.258 1.954 8.703.218.134.427.28.653.396 7.709 4.011 15.423 8.013 23.124 12.038.51.265.848.306 1.35-.068 1.42-1.055 2.995-1.184 4.571-.383 1.575.798 2.4 2.135 2.456 3.929.019.597.002 1.194.002 1.88h6.555c.389 0 .78-.017 1.166.005.879.051 1.351.544 1.404 1.441.01.151.003.304.003.454 0 17.01-.005 34.024.014 51.034 0 .833-.204 1.473-.912 1.915H67.913c-.053-.066-.096-.148-.163-.194-.588-.42-.802-.98-.55-1.66.257-.692.826-.874 1.517-.874 6.468.01 12.934.005 19.402.005h1.116V47.062H26.6c-1.457 0-2.112-.43-2.098-1.376.015-.93.677-1.35 2.137-1.35H89.22V40.88H63.845c-.3 0-.603.02-.898-.012-.766-.085-1.186-.551-1.248-1.308-.06-.714.5-1.34 1.258-1.388.775-.049 1.555-.017 2.335-.017h8.705c0-.784.034-1.53-.024-2.264-.014-.194-.283-.43-.49-.537a6987.76 6987.76 0 00-24.65-12.805c-.3-.155-.726-.08-1.093-.077-1.12.004-2.244.012-3.365.043-.475.012-1.022-.056-1.416.146-8.071 4.159-16.121 8.362-24.188 12.526-.586.303-.864.616-.768 1.298.07.5.014 1.02.014 1.67h38.911c.3 0 .607-.037.895.024.732.158 1.161.614 1.128 1.403-.031.742-.466 1.16-1.167 1.273-.321.052-.657.02-.986.02H2.764v3.458h17.049c.268 0 .547-.032.806.024.727.158 1.179.6 1.147 1.39-.03.782-.477 1.211-1.238 1.296-.266.03-.538.012-.809.012H2.77V90.27h59.167c.208 0 .42.012.628-.002.778-.051 1.472.106 1.733.95.26.838-.192 1.384-.876 1.777H.005C0 75.02 0 57.038 0 39.054zM53.74 2.781H38.243c0 .621-.024 1.191.005 1.76.062 1.266.931 2.173 2.179 2.183 3.708.027 7.419.027 11.127 0 1.25-.01 2.117-.917 2.181-2.181.03-.57.005-1.14.005-1.762zM15.33 38.11c-.126-1.228.383-2.521-.922-3.286-.622-.366-1.282-.327-1.856.107-1.128.852-.63 2.056-.722 3.181 1.2-.002 2.29-.002 3.5-.002zm61.391-.024h3.389c.288-2.713-.348-3.458-1.687-3.458-1.342-.003-1.98.716-1.702 3.458z" fill="red"/><path d="M49.946 68.734c0 4.722.014 9.442-.008 14.164-.01 1.859-1.226 3.351-3.01 3.82-1.65.434-3.477-.294-4.302-1.84-.33-.614-.557-1.368-.56-2.06-.036-9.442-.033-18.886-.017-28.328.005-2.245 1.772-3.985 3.941-3.985 2.17-.002 3.939 1.735 3.95 3.977.023 4.75.006 9.5.006 14.252zm-5.21.02v13.428c0 .272-.03.551.02.816.128.672.534 1.09 1.23 1.094.696.005 1.104-.41 1.24-1.08.053-.262.024-.541.024-.815v-27.04c0-.272.03-.55-.021-.815-.127-.672-.543-1.092-1.229-1.097-.689-.005-1.106.41-1.238 1.082-.053.262-.024.544-.024.815-.005 4.538-.003 9.076-.003 13.611zm-29.992-.122c0 4.751.012 9.505-.008 14.256-.007 1.84-1.168 3.308-2.908 3.8-1.659.469-3.488-.196-4.347-1.725-.355-.63-.614-1.417-.62-2.135-.04-9.445-.038-18.887-.018-28.331.004-2.247 1.776-3.99 3.938-3.994 2.213-.008 3.948 1.74 3.958 4.057.02 4.69.005 9.381.005 14.072zm-2.698.126V57.144c0-.846.017-1.693-.007-2.54-.022-.823-.54-1.369-1.248-1.369-.704.002-1.207.548-1.258 1.374-.012.21-.005.422-.005.635 0 8.952 0 17.906.003 26.858 0 .332-.036.68.045.993.17.655.61 1.048 1.308.995.644-.052 1.032-.447 1.14-1.088.044-.264.022-.543.022-.815V68.758zm65.194-.124c0-4.722-.01-9.444.007-14.164.007-1.696 1.025-3.133 2.549-3.712a3.905 3.905 0 014.279 1.021c.7.764 1.07 1.677 1.07 2.718.005 9.444.015 18.886-.004 28.33-.005 2.299-1.793 4.031-4.013 4.005-2.18-.025-3.874-1.752-3.884-4.033-.016-4.723-.004-9.442-.004-14.165zm2.697.03v13.428c0 .272-.017.546.012.816.082.735.502 1.165 1.234 1.18.698.011 1.101-.416 1.24-1.08.056-.263.03-.542.03-.814v-27.04c0-.271.019-.548-.025-.815-.124-.755-.82-1.26-1.5-1.072-.801.22-1 .825-.998 1.604.014 4.598.007 9.196.007 13.792zm-53.459.063c0 4.6.01 9.199-.005 13.8-.007 2.191-1.1 3.686-3.005 4.188-2.105.556-4.346-.837-4.783-2.994a7.242 7.242 0 01-.125-1.442c-.007-9.08-.003-18.158-.01-27.238 0-1.221.216-2.357 1.092-3.26 1.179-1.213 2.602-1.616 4.188-1.04 1.573.57 2.525 1.747 2.607 3.46.081 1.72.036 3.448.038 5.173.005 3.119.003 6.234.003 9.353zm-2.703-.037V55.264c0-.301.007-.607-.029-.905-.086-.706-.525-1.092-1.2-1.112-.638-.02-1.075.342-1.219.985-.06.263-.065.54-.065.81-.002 9.074-.005 18.145.003 27.218 0 .33-.056.764.122.963.324.367.814.83 1.21.808.396-.022.828-.54 1.113-.936.161-.226.07-.646.07-.976-.005-4.477-.005-8.954-.005-13.429zm6.545-.075c0-4.722-.01-9.442.005-14.164.005-1.6.766-2.786 2.155-3.509 1.364-.709 2.734-.602 4.001.264 1.272.87 1.76 2.15 1.757 3.672-.007 7.384-.002 14.77-.002 22.155 0 1.936.036 3.875-.015 5.812-.052 2.101-1.557 3.76-3.499 3.97-1.942.21-3.73-.974-4.246-2.873-.139-.515-.153-1.075-.153-1.617-.012-4.569-.008-9.14-.008-13.71h.005zm5.213.05c0-4.476 0-8.95-.002-13.428 0-.33.012-.672-.063-.99-.158-.675-.616-1.053-1.3-.995-.672.058-1.083.47-1.138 1.18-.02.24-.014.482-.014.725v27.037c0 .272-.012.549.026.816.091.657.494 1.03 1.135 1.08.646.048 1.097-.287 1.267-.918.084-.313.087-.657.087-.987.005-4.507.002-9.013.002-13.52zm26.13.088c0 4.722.024 9.442-.012 14.164-.015 2.012-1.457 3.614-3.36 3.888-1.867.267-3.725-.857-4.291-2.677-.185-.592-.238-1.247-.238-1.876-.017-6.687-.01-13.377-.01-20.065 0-2.543-.024-5.086.012-7.627.024-1.687.797-2.97 2.328-3.684 1.464-.684 2.873-.47 4.129.537 1.058.847 1.461 2.004 1.456 3.358-.017 4.662-.007 9.323-.007 13.982h-.007zm-2.695.005v-9.89c0-1.452.007-2.905-.012-4.357-.01-.747-.43-1.179-1.148-1.269-.672-.085-1.228.428-1.336 1.185-.034.237-.022.483-.022.725 0 9.013-.002 18.025.002 27.037 0 .33.003.673.087.986.173.63.624.963 1.272.912.638-.05 1.044-.427 1.13-1.085.039-.298.027-.604.027-.905V68.758zm6.54-.114c0-4.661-.024-9.32.01-13.982.021-2.914 2.563-4.824 5.177-3.96 1.68.555 2.719 2.062 2.728 4.055.02 3.45.005 6.9.005 10.35 0 5.78.007 11.56-.002 17.34-.005 2.56-1.64 4.363-3.927 4.38-2.124.017-3.876-1.587-3.957-3.752-.077-2.055-.032-4.115-.034-6.173-.005-2.75-.002-5.504 0-8.258zm2.7.036v10.978c0 1.058-.012 2.117.014 3.174.02.74.423 1.209 1.155 1.253.785.046 1.21-.425 1.325-1.185.036-.237.024-.483.024-.723 0-9.012.002-18.022-.003-27.035 0-.3-.002-.609-.064-.9-.14-.643-.574-1.007-1.213-.995-.674.015-1.116.398-1.207 1.102-.038.298-.029.604-.029.905-.002 4.475-.002 8.952-.002 13.426z" fill="red"/></svg>