<svg width="53" height="53" fill="none" xmlns="http://www.w3.org/2000/svg"><path d="M.017 51.99c.257-.393.616-.547 1.095-.53.445.034.89 0 1.37 0 .017-.171.017-.308.017-.445 0-2.173 0-4.347-.017-6.52 0-.223-.103-.462-.223-.633-.616-.788-.787-1.66-.36-2.568.412-.906 1.147-1.42 2.157-1.437 1.832-.017 3.663-.017 5.494-.017h.668c.017-.154.05-.274.05-.41.172-7.976.36-15.933.531-23.908.035-1.3.155-1.438 1.49-1.438h3.936c.873 0 1.112.223 1.13 1.096.136 5.664.256 11.311.376 16.976.034 1.438 0 2.858 0 4.33h2.26l.204-3.046c.189-3.03.377-6.059.548-9.088.052-.89.291-1.112 1.181-1.112h2.584c.873 0 1.096.205 1.147 1.095.188 2.995.377 5.99.548 8.985.068 1.044.137 2.105.205 3.183h1.849c.068-.941.136-1.866.188-2.79l.565-9.138.051-.514c.034-.513.325-.804.839-.804a99.843 99.843 0 013.2 0c.548.017.804.308.839.907.12 1.814.222 3.61.325 5.425.137 2.293.29 4.57.428 6.897h1.848c.069-.856.12-1.712.188-2.567.206-3.235.394-6.47.617-9.704.05-.753.29-.975 1.044-.975.907-.017 1.83 0 2.738 0 .821 0 1.061.257 1.112 1.078.24 3.936.497 7.89.72 11.825.016.325.153.394.444.394 1.455-.017 2.893.017 4.347-.017 1.096-.017 1.969.325 2.482 1.335.496 1.01.325 1.934-.41 2.772a.563.563 0 00-.138.377v10.302c0 .034.018.068.052.12.137 0 .29.017.428.017h1.865c.6 0 .958.308.958.787 0 .48-.359.753-.975.77H1.198c-.496 0-.924-.069-1.198-.53.017-.137.017-.309.017-.48zm48.11-10.576c-.548 0-1.044.017-1.558 0-.564-.017-.907-.325-.907-.787s.343-.753.907-.77c.497-.017 1.01.017 1.506-.017.531-.034.908-.428.89-.89-.017-.48-.376-.822-.924-.856H15.335c-.171 0-.342 0-.514.017-.444.052-.787.394-.787.822 0 .445.205.77.65.873.24.051.48.068.72.068h27.16c.206 0 .411 0 .617.017.428.052.667.308.684.719.017.376-.188.667-.565.753-.222.051-.479.051-.718.051H14.873v10.029h33.254V41.414zM12.34 15.693c-.257 11.928-.53 23.839-.787 35.733h1.694c.017-.086.034-.137.034-.189v-10.2a.769.769 0 00-.171-.461c-.667-.805-.839-1.694-.394-2.653.445-.941 1.233-1.403 2.277-1.403h1.283l-.462-20.844c-1.198.017-2.31.017-3.474.017zm-2.174 25.721H4.518c-.838 0-1.232.24-1.283.805-.052.496.24.718 1.027 1.01.256.085.547.427.582.667.017.24-.274.513-.463.753-.068.085-.205.085-.29.12v6.674h5.955V44.75c-.034 0-.102-.017-.188-.017-.77 0-1.557.017-2.327-.017-.514-.017-.856-.342-.856-.787s.342-.736.873-.77h2.635c-.017-.6-.017-1.13-.017-1.746zm22.25-16.565H30.55c-.24 3.901-.48 7.769-.736 11.654h3.32a1291.5 1291.5 0 00-.718-11.654zm-8.284 0h-1.866c-.24 3.901-.479 7.769-.735 11.67h3.32l-.72-11.67zm14.719-.018c-.24 3.92-.48 7.787-.736 11.672h3.32c-.24-3.92-.48-7.787-.736-11.672h-1.848zM44.105.017c.787.205 1.575.342 2.328.6 4.227 1.522 6.88 5.612 6.537 10.045-.342 4.398-3.508 8.111-7.907 8.933-4.005.753-7.342-.548-9.875-3.765-.308-.394-.53-.548-1.078-.41-2.499.615-4.741.05-6.71-1.61-.136-.12-.41-.205-.564-.154-2.14.685-4.073.36-5.802-1.112-.051-.051-.103-.085-.137.034-.719.189-1.437.428-2.156.565-.497.086-.822-.24-.873-.667-.034-.428.24-.788.736-.839.701-.051 1.232-.36 1.711-.838.428-.428.873-.377 1.318.154.959 1.095 2.14 1.608 3.577 1.471.514-.051 1.044-.222 1.523-.445.497-.222.873-.17 1.25.223 1.9 1.916 4.107 2.396 6.623 1.437.633-.24.89-.154 1.284.497 1.078 1.78 2.584 3.012 4.552 3.696 4.775 1.66 10.064-1.506 10.868-6.486a8.358 8.358 0 00-8.694-9.754c-1.883.085-3.56.787-4.98 2.019-.77.667-.942.667-1.73.068-2.515-1.9-5.664-1.66-7.872.582-.513.514-.684.548-1.37.24-2.327-1.078-4.894-.017-5.784 2.396-.325.872-.616 1.01-1.489.667-1.318-.496-2.584.205-2.858 1.575-.188.89-.48 1.078-1.335.804-.565-.188-1.027.068-1.181.65l-.051.257c-.103.462-.428.702-.839.65-.428-.051-.702-.41-.684-.89.068-1.215.992-2.173 2.259-2.276.308-.034.479-.12.616-.41.684-1.49 2.225-2.294 3.868-2.02.29.051.428-.051.564-.29 1.438-2.602 4.194-3.68 7.018-2.773.17.051.479 0 .616-.137C30.054.479 33.39.24 36.352 2.088c.24.137.394.24.667.017C38.457.958 40.1.29 41.931.085c.069 0 .12-.05.189-.085.684.017 1.335.017 1.985.017z" fill="#2A374A"/><path d="M25.758 44.751c0-.29-.017-.581 0-.872.051-.445.308-.685.753-.685.41 0 .702.24.736.65a16.66 16.66 0 010 1.849c-.017.427-.325.65-.719.667-.428 0-.719-.24-.77-.684-.017-.291 0-.617 0-.925zm14.787 0c0 .308.034.617 0 .925-.051.427-.325.684-.77.684-.41.017-.719-.308-.736-.77a26.862 26.862 0 010-1.66c.017-.445.257-.702.702-.753.41-.051.753.222.821.684.017.309-.017.6-.017.89zm1.797.018c0-.274-.017-.548 0-.822.017-.445.257-.719.702-.753.445-.034.77.205.804.633a11.59 11.59 0 010 1.9c-.034.428-.376.667-.804.633-.428-.034-.685-.308-.702-.753v-.838zm-21.719.034c0 .308.017.616 0 .924-.034.41-.325.616-.701.633-.377.017-.72-.171-.753-.565a13.72 13.72 0 010-2.053c.034-.394.359-.582.753-.565.41.017.667.257.718.684 0 .326-.017.634-.017.942zm13.333-.034c-.017.325-.017.65-.052.94-.05.411-.342.651-.753.651-.428 0-.718-.257-.736-.702a20.3 20.3 0 010-1.762c.018-.445.291-.702.736-.72.411-.016.702.206.753.634.035.325.035.65.052.959zm1.763-.018c0-.29-.017-.581 0-.872.034-.411.308-.65.718-.668.394-.017.72.171.754.565.05.684.05 1.369 0 2.053-.035.394-.377.582-.754.548-.393-.034-.684-.257-.701-.684-.034-.325-.017-.634-.017-.942zm-11.775.035c0 .29.017.581 0 .872-.035.445-.308.702-.736.72-.394.016-.72-.206-.753-.634a17.545 17.545 0 010-1.9c.034-.41.325-.65.753-.633.445.017.701.257.736.702.017.274 0 .565 0 .873zm6.692.017c-.018.325-.018.633-.052.94-.051.429-.342.651-.753.634-.393 0-.702-.24-.719-.667a16.968 16.968 0 010-1.866c.017-.428.308-.65.72-.65.41 0 .684.222.752.633.034.325.034.65.052.976z" fill="#2A374A"/></svg>