<svg width="78" height="56" fill="none" xmlns="http://www.w3.org/2000/svg"><path d="M54.014 53.703c-.654-.275-1.256-.584-1.617-1.255-.842-1.581.258-3.507 2.047-3.507.326 0 .515-.103.704-.36 1.238-1.634 3.697-1.668 4.97-.07.257.31.48.482.876.43.19-.017.396.052.62.086v-31.94c-.173 0-.345-.016-.534-.016h-7.788c-.207 0-.413 0-.602-.052-.378-.086-.585-.344-.585-.739 0-.378.19-.653.568-.756.171-.052.36-.052.55-.052h8.854c.482 0 .877.103 1.152.533v35.738c-.292 1.015-.945 1.668-1.96 1.96h-7.255zm3.662-1.599h3.13c.36 0 .704-.154.773-.532a1.052 1.052 0 00-.155-.757c-.206-.31-.55-.344-.928-.206-.74.275-1.032.154-1.342-.585-.275-.67-.739-1.066-1.478-1.083-.74-.017-1.22.378-1.496 1.049-.327.79-.585.894-1.393.602-.464-.155-.928.051-1.048.48-.138.465.137.912.636 1.015.137.034.275.017.412.017h2.889zm-38.479 1.599c-.43-.258-.568-.636-.568-1.135.017-1.1 0-2.2.017-3.317 0-.292-.051-.43-.36-.533-1.634-.499-2.786-1.908-2.803-3.627 0-2.682.24-5.346 1.203-7.873.241-.636.602-1.29 1.05-1.788 1.117-1.255 2.647-1.117 3.644.258.74 1.031 1.118 2.217 1.393 3.42.43 2.012.688 4.04.619 6.103-.052 1.564-1.187 3.008-2.682 3.455-.396.12-.499.293-.482.688.017 1.083-.017 2.183.017 3.266.017.481-.137.842-.584 1.066-.155.017-.31.017-.465.017zM21.81 44.3c-.069-2.08-.292-4.16-.963-6.137a6.74 6.74 0 00-.825-1.65c-.31-.464-.757-.447-1.135-.035-.19.224-.361.482-.464.74-1.083 2.51-1.324 5.157-1.341 7.838 0 1.032.739 1.874 1.702 2.15.946.274 1.96-.07 2.579-.878.464-.584.516-1.289.447-2.028zm5.33 9.403c-.43-.275-.55-.67-.516-1.152.017-.31 0-.619 0-.928 0-.842.258-1.083 1.083-1.083h21.595c.172 0 .344-.017.516.017.396.069.637.31.67.722.018.413-.171.688-.566.791-.19.051-.396.052-.602.052H28.24c-.051.601.07 1.237-.55 1.581h-.55zm21.767-46.19H29.805V47.6c0 .224 0 .465-.052.688-.068.413-.378.619-.773.619-.396 0-.67-.223-.74-.636-.034-.19-.034-.378-.034-.55V7.135c0-.98.224-1.203 1.204-1.203h19.875c.998 0 1.204.223 1.204 1.203V47.72c0 .808-.24 1.203-.774 1.203-.55.017-.825-.395-.825-1.22V8.235c.017-.24.017-.447.017-.722z" fill="#2A374A"/><path d="M42.545 40.982h-6.361v7.134c-.052.482-.396.808-.825.791-.43-.017-.757-.344-.757-.842-.017-1.358 0-2.7 0-4.057v-3.06h-1.736c-.258 0-.533 0-.791-.034-.413-.052-.637-.327-.654-.74-.017-.412.19-.687.585-.773a2.79 2.79 0 01.55-.052h13.617c.757 0 1.135.275 1.118.808 0 .516-.361.774-1.1.79h-2.08v6.827c0 .171.016.343-.018.515-.086.378-.344.602-.722.619-.344.017-.654-.137-.757-.498a2.027 2.027 0 01-.086-.637v-6.257c.017-.172.017-.344.017-.533zM17.047 17.054v15.093c-.034.48-.344.808-.773.825-.43 0-.757-.327-.809-.808-.017-.103 0-.224 0-.327V16.624c0-.946.241-1.186 1.187-1.186h9.009c.602.034.946.326.929.808 0 .481-.344.773-.963.773h-7.978c-.172.035-.361.035-.602.035zm36.657 25.493c0-.74-.017-1.496 0-2.235.017-.653.292-.946.929-.963a81.326 81.326 0 012.888 0c.636.017.946.31.946.963.017 1.478.017 2.957 0 4.435 0 .67-.31.98-.963.98a79.86 79.86 0 01-2.854 0c-.67-.017-.946-.292-.963-.98 0-.722.017-1.461.017-2.2zm1.616-1.565v3.129h1.53v-3.129h-1.53zm-9.594-7.976v2.235c-.017.636-.292.91-.911.91-.98.018-1.96.018-2.94 0-.619 0-.911-.309-.911-.927a195.06 195.06 0 010-4.487c0-.636.31-.945.945-.945.963 0 1.926-.018 2.889 0 .619 0 .911.292.928.91v2.304zm-3.163-1.581v3.111h1.53v-3.111h-1.53zm-9.577 1.564v-2.235c0-.653.292-.928.946-.945.962 0 1.925-.018 2.888 0 .619 0 .928.31.928.928a189.26 189.26 0 010 4.521c0 .619-.309.911-.928.911-.98.017-1.96.017-2.94 0-.602 0-.894-.292-.894-.894V32.99zm3.164 1.564v-3.128h-1.53v3.128h1.53z" fill="#2A374A"/><path d="M25.008 23.414c0 .74.017 1.495 0 2.235-.017.67-.292.962-.98.962-.928.017-1.874 0-2.803 0-.687 0-.997-.31-.997-.997v-4.383c0-.67.292-.963.963-.98a81.326 81.326 0 012.889 0c.636.017.91.292.91.911.035.756.018 1.513.018 2.252zm-3.146-1.547v3.128h1.53v-3.128h-1.53zm11.124 1.564v-2.2c0-.705.275-.98.946-.98a81.326 81.326 0 012.888 0c.636.017.928.31.928.963v4.435c0 .67-.309.962-.98.98a79.86 79.86 0 01-2.854 0c-.653 0-.928-.31-.945-.946.017-.756.017-1.513.017-2.252zm3.164-1.547h-1.53v3.111h1.53v-3.111zm9.576 1.547v2.235c0 .653-.292.945-.945.945a80.86 80.86 0 01-2.889 0c-.619 0-.928-.31-.928-.928a198.061 198.061 0 010-4.521c0-.619.31-.911.928-.911.98-.017 1.96-.017 2.94 0 .62.017.894.292.894.928v2.252zm-1.616-1.564h-1.53v3.111h1.53v-3.111zm14.374 1.598v2.15c0 .721-.31 1.014-1.032 1.014h-2.75c-.706 0-.98-.293-.998-.998v-4.383c0-.705.275-.98.997-.98h2.751c.757 0 1.015.292 1.032 1.066v2.131zm-3.164 1.53h1.53v-3.128h-1.53v3.128zm-1.616 8.011c0-.74-.017-1.495 0-2.235.017-.67.292-.945.98-.962h2.803c.688 0 .997.292.997.997v4.383c0 .67-.292.963-.963.98h-2.854c-.688 0-.946-.275-.963-.98-.017-.722 0-1.46 0-2.183zm1.616-1.599v3.129h1.53v-3.129h-1.53zM32.986 13.873V11.64c0-.654.292-.946.946-.946a80.854 80.854 0 012.888 0c.636.017.928.327.928.963v4.435c0 .67-.292.963-.98.963a79.86 79.86 0 01-2.854 0c-.688-.018-.945-.293-.945-.98.017-.74.017-1.461.017-2.2zm1.616 1.565h1.548v-3.129h-1.548v3.129zm11.124-1.565v2.2c0 .706-.258.98-.945.98a80.86 80.86 0 01-2.889 0c-.653-.017-.928-.309-.928-.962v-4.435c0-.67.31-.963.98-.98a78.938 78.938 0 012.854 0c.653.017.945.31.945.945-.017.757-.017 1.496-.017 2.252zm-1.616-1.581h-1.547v3.129h1.547v-3.13zM23.426 31.425h-1.599c0 .257.017.515 0 .773-.034.447-.31.74-.722.774-.413.034-.808-.241-.843-.705a10.165 10.165 0 010-1.77c.035-.448.362-.688.791-.688a94.89 94.89 0 013.13 0c.515.017.808.31.808.825.017 1.547.017 3.111 0 4.658 0 .55-.327.86-.791.86s-.791-.327-.791-.911c-.017-1.1 0-2.2 0-3.318.017-.155.017-.31.017-.498zm15.939 12.738a.73.73 0 01.756.756c0 .447-.344.808-.79.79-.448 0-.774-.378-.757-.825.017-.412.36-.721.79-.721zM9.8 21.71l-1.512.154-.583-5.695c-2.83 3.374-6.413 11.83-4.14 21.229 1.388 5.712 5.274 12.85 13.28 17.173-.229.438-.456.897-.717 1.418C8.793 51.913 3.965 45.9 2.03 37.713c-1.935-8.188-.336-15.748 4.395-22.758l-5.877.6L.39 14.01l8.515-.871c.31 2.836.602 5.694.896 8.57zm57.582 11.34l1.463-.416 1.568 5.507c2.197-3.817 4.249-12.769.368-21.626-2.364-5.382-7.436-11.731-16.075-14.59.15-.472.293-.963.458-1.521 7.934 2.732 13.739 7.809 17.074 15.532 3.335 7.724 3.082 15.447-.352 23.176l5.681-1.618.426 1.495-8.232 2.344c-.8-2.738-1.587-5.5-2.379-8.282z" fill="#2A374A"/></svg>