<svg width="55" height="54" fill="none" xmlns="http://www.w3.org/2000/svg"><path d="M55 38.574c-.425.887-1.134 1.15-2.086 1.15-5.225-.02-10.45-.02-15.675-.02-.223 0-.466 0-.689-.041-.405-.08-.628-.343-.648-.746-.02-.424.203-.727.628-.807.223-.04.466-.04.688-.04H53.34v-1.312H31.386v1.311h1.762c.709 0 1.093.303 1.093.828 0 .504-.405.806-1.113.806-.588 0-1.175.02-1.762 0-1.033-.04-1.62-.625-1.64-1.654v-1.29c.02-1.03.587-1.614 1.62-1.675.202-.02.384 0 .668 0v-1.573c0-1.13.587-1.755 1.721-1.675 1.013.081 1.722-.262 2.41-.988 1.782-1.876 3.646-3.671 5.488-5.507a.81.81 0 00.244-.444v-8.492c0-.02-.02-.02-.061-.08h-8.304v.504c0 1.15.02 2.279 0 3.429-.02 1.27-.911 2.138-2.187 2.158H25.25c-1.276 0-2.168-.887-2.168-2.158v-3.913h-4.495c.323 10.61.648 21.2.972 31.85h1.559c1.681.02 2.916 1.251 2.937 2.905v1.977c0 .605-.304.908-.892.908h-9.559c-.567 0-.931-.343-.91-.827.02-.464.384-.787.971-.787h8.75c0-.544.06-1.09-.021-1.593-.101-.646-.648-.969-1.397-.969h-9.985c-.83.02-1.337.485-1.357 1.332-.02.383 0 .786 0 1.25.243 0 .446-.02.648 0 .466.04.77.363.79.787 0 .444-.324.787-.81.807a16.2 16.2 0 01-1.397 0c-.527-.02-.83-.303-.85-.827-.021-.787-.041-1.574.02-2.36.12-1.493 1.336-2.582 2.835-2.602h.77c.323-10.63.647-21.221.951-31.851H7.51c-.02.12-.061.242-.081.383-.163.847-.83 1.492-1.702 1.533-1.316.04-2.653.04-3.97 0-.971-.04-1.72-.847-1.74-1.836a275.34 275.34 0 010-5.89C.035 9.506.804 8.7 1.837 8.66a58.01 58.01 0 013.747 0c.931.02 1.559.625 1.822 1.533.04.141.223.323.345.323 1.6.02 3.18.02 4.78.02.1 0 .202-.02.364-.02.1-.989.182-1.977.283-2.965.182-2.179.365-4.357.567-6.556.061-.666.345-.847.993-.948 1.802-.242 3.341.524 4.941 1.15a5480.016 5480.016 0 0023.007 9.077c.607.242 1.316.222 1.984.242.466.02.81.141 1.094.524a256.712 256.712 0 002.937 3.752c.243.323.405.646.222 1.03-.182.382-.547.463-.952.463h-4.495v.585c0 2.622 0 5.245.02 7.867 0 .262.142.585.324.787 1.964 1.997 3.97 3.953 5.934 5.95.263.262.526.384.89.363.325-.02.649-.02.973 0 .87.02 1.458.605 1.519 1.493.02.282 0 .565 0 .847v.928c.89-.06 1.458.383 1.822 1.13C55 37 55 37.787 55 38.574zM7.509 14.67h39.066c-.547-.706-1.073-1.331-1.54-1.997-.262-.383-.566-.524-1.052-.524-5.448.02-10.916.02-16.364.02-.203 0-.405.02-.587-.02-.426-.101-.689-.383-.669-.847.04-.424.284-.686.73-.727.182-.02.364-.02.526-.02h10.997v-.12C31.609 7.67 24.6 4.886 17.533 2.102c.243 2.865.486 5.628.75 8.452h5.549c.506 0 .85.323.87.767.02.464-.323.807-.85.847-.162.02-.324 0-.486 0H7.488c.02.847.02 1.654.02 2.501zm17.214 1.654v3.893c0 .364.182.585.547.585 2.025 0 4.03.02 6.055-.02.182 0 .527-.282.547-.444.04-1.33.02-2.662.02-4.014h-7.17zm8.972 18.72h17.822V33.45H33.695v1.594zM1.655 13.4v2.723c0 .383.122.564.527.544a83.22 83.22 0 013.16 0c.405 0 .526-.161.526-.544-.02-1.776-.02-3.57 0-5.346 0-.403-.162-.544-.547-.544-1.033.02-2.065.02-3.119 0-.425 0-.567.16-.567.585.02.867.02 1.714.02 2.582zm16.121 28.724c-.06-2.3-.141-4.438-.202-6.596-.04-.02-.081-.02-.122-.04-1.073 1.33-2.146 2.682-3.26 4.054 1.195.847 2.329 1.674 3.584 2.582zm-1.113-31.63c-.264-2.944-.507-5.87-.77-8.814h-.527c-.263 2.945-.506 5.85-.77 8.815h2.067zm.121 32.9c-1.094-.786-2.147-1.532-3.28-2.36-.062 2.26-.122 4.378-.183 6.496.04 0 .08.02.121.02 1.094-1.372 2.208-2.743 3.342-4.155zM41.877 27.6l-4.193 4.176h4.193V27.6zm5.67 4.196l-3.99-3.974v3.974h3.99zm-33.922 5.688c.04.02.08.02.121.04 1.013-1.25 2.025-2.5 3.038-3.791a275.597 275.597 0 01-2.977-2.159c-.06 2.058-.122 3.994-.182 5.91zM17.31 26.35c-.04-.02-.081-.02-.122-.04-.911 1.25-1.802 2.48-2.734 3.751 1.013.726 1.964 1.412 3.018 2.179-.061-2.058-.102-3.974-.162-5.89zm-3.302 1.573c.83-1.13 1.64-2.26 2.491-3.43-.79-.584-1.58-1.129-2.49-1.794v5.224zm.669-6.737c.85.605 1.66 1.19 2.39 1.714v-4.68c-.04 0-.102-.02-.142-.02-.73.989-1.458 1.957-2.248 2.986zm.364 26.97h2.836v-3.53a538.169 538.169 0 00-2.836 3.53zm-.79-29.088c.71-.948 1.357-1.816 2.066-2.744h-2.066v2.744z" fill="#2A374A"/></svg>