<svg width="76" height="45" fill="none" xmlns="http://www.w3.org/2000/svg"><path d="M53.33 25.928l.273.42a.5.5 0 00.174-.194l-.446-.226zm2.526-4.982l.198-.459a.5.5 0 00-.644.233l.446.226zm3.04 1.315l-.198.459a.5.5 0 00.625-.197l-.426-.262zm2.108-3.432l.03-.499a.5.5 0 00-.456.237l.426.262zm2.836.17l-.03.5a.5.5 0 00.438-.21l-.408-.29zm1.849-2.614l-.141-.48a.5.5 0 00-.268.191l.409.289zm3.83-1.123l.14.48a.501.501 0 00.141-.066l-.281-.414zm-.177-1.144l-.136.482h.003l.133-.482zM23.716 1.283l-.138.48h.002l.136-.48zm-3.191.293l-.221-.449a.503.503 0 00-.093.059l.314.39zm-3.331 2.677l.142.48a.5.5 0 00.171-.09l-.313-.39zM11.907 5.82l-.142-.48a.5.5 0 00-.216.132l.358.348zM9.764 8.023l.161.473a.5.5 0 00.198-.124l-.359-.349zM2.257 10.58l-.161-.473a.499.499 0 00-.056.022l.217.451zm.092 1.186l-.15.477H2.2l.15-.477zm47.168 14.693l-.148.477h.002l.146-.477zM1.634 14.16a.5.5 0 00-.294.956l.294-.956zm48.15 15.333l.149-.478h-.003l-.147.478zm4.236-.528l.258.428.005-.002-.263-.426zm.27-.28l-.435-.248-.006.01-.005.011.445.226zm2.493-4.376l-.434-.248.434.248zm.933-.32l.198-.459-.003-.001-.195.46zm1.661.715l-.197.46h.003l.194-.46zm.92-.291l-.424-.266-.006.009.43.257zm1.693-2.7l.424.265.002-.003-.426-.263zm.75-.335l.077-.494h-.004l-.073.494zm1.79.278l.086-.493-.008-.002-.077.495zm.694-.265l-.385-.319-.004.005.389.314zm2.06-2.486l.385.318.007-.008.006-.008-.398-.302zm.34-.239l.155.476h.001l-.156-.476zm2.56-.316a.5.5 0 10-.313-.95l.312.95zM2.76 17.061a.5.5 0 10-.294.955l.294-.955zm48.15 15.332l.149-.477-.002-.001-.147.478zm4.236-.528l.259.428.004-.002-.263-.426zm.27-.28l-.434-.248-.007.01-.005.011.446.226zm2.493-4.376l-.434-.248.434.248zm.934-.32l.197-.459h-.003l-.194.46zm1.66.715l-.197.46h.003l.195-.46zm.92-.291L61 27.047l-.005.01.429.256zm1.694-2.7l.423.265.002-.003-.425-.262zm.75-.335l.076-.494h-.003l-.074.494zm1.79.278l.085-.493-.008-.001-.077.494zm.693-.265l-.385-.319-.003.005.388.314zm2.06-2.486l.385.319.007-.009.006-.008-.398-.302zm.34-.238l.155.475h.001l-.156-.475zm2.56-.317a.5.5 0 10-.313-.95l.313.95zM3.592 19.916a.5.5 0 10-.294.956l.294-.956zm48.15 15.332l.15-.477-.003-.001-.147.478zm4.236-.527l.259.428.004-.003-.263-.425zm.27-.281l-.434-.248-.006.01-.006.012.446.226zm2.494-4.376l-.434-.248.434.248zm.933-.32l.197-.459h-.002l-.195.46zm1.661.715l-.197.46h.002l.195-.46zm.919-.29l-.424-.267-.005.01.429.256zm1.694-2.701l.424.265.001-.002-.425-.263zm.75-.335l.076-.494h-.003l-.073.494zm1.79.278l.085-.493-.008-.001-.076.494zm.693-.264l-.385-.32-.003.005.388.315zm2.06-2.487l.385.319.007-.008.007-.009-.399-.302zm.34-.238l.156.475-.156-.475zm2.56-.317a.5.5 0 10-.313-.95l.313.95zM4.734 22.801a.5.5 0 00-.294.956l.294-.956zm48.15 15.346l.149-.477h-.002l-.148.477zm4.236-.527l.258.428.005-.003-.263-.425zm.27-.281l-.435-.248-.006.011-.005.01.446.227zm2.493-4.375l-.434-.249v.001l.434.248zm.933-.32l.198-.46h-.003l-.195.46zm1.661.715l-.197.459.003.001.194-.46zm.92-.292l-.424-.266-.006.01.43.256zm1.694-2.7l.423.266.002-.003-.425-.263zm.75-.335l.076-.494h-.003l-.074.494zm1.79.278l.085-.493h-.008l-.077.493zm.693-.264l-.385-.32-.004.005.389.315zm2.06-2.487l.385.319.007-.008.006-.009-.398-.302zm.34-.238l.155.475h.001l-.156-.475zm2.56-.316a.5.5 0 10-.313-.95l.313.95zM5.17 25.385a.5.5 0 10-.293.956l.293-.955zm48.15 15.333l.15-.477h-.003l-.147.477zm4.237-.527l.258.428.004-.003-.262-.425zm.27-.281l-.435-.248-.006.01-.006.012.446.226zm2.493-4.376l-.434-.248.434.248zm.933-.32l.197-.459h-.002l-.195.46zm1.661.715l-.197.46.002.001.195-.46zm.92-.29l-.425-.267-.005.01.43.256zm1.693-2.701l.424.265.001-.002-.425-.263zm.75-.335l.076-.494h-.003l-.073.494zm1.79.278l.085-.493-.008-.001-.076.494zm.694-.264l-.386-.32-.003.005.389.315zm2.06-2.487l.384.319.007-.008.007-.009-.399-.302zm.34-.238l.155.475-.156-.475zm2.56-.317a.5.5 0 00-.314-.95l.313.95zm-67.423-1.29a.5.5 0 00-.294.956l.294-.956zm48.15 15.332l.149-.477h-.003l-.147.477zm4.236-.527l.258.428.005-.003-.263-.425zm.27-.281l-.435-.248-.006.011-.005.01.446.227zm2.493-4.375l-.434-.249v.001l.434.248zm.933-.32l.198-.46h-.003l-.195.46zm1.662.715l-.198.459.003.001.195-.46zm.918-.292l-.423-.265-.006.009.43.256zm1.695-2.7l.423.266.002-.003-.425-.263zm.75-.335l.076-.494h-.003l-.074.494zm1.79.278l.085-.493-.008-.001-.077.494zm.693-.264l-.385-.32-.004.005.389.315zm2.06-2.487l.385.319.007-.008.006-.009-.398-.302zm.34-.238l.155.475h.001l-.156-.475zm2.56-.316a.5.5 0 10-.313-.95l.313.95zm-21.072-6.32l2.525-4.983-.892-.452-2.525 4.982.892.452zm1.88-4.75l3.041 1.315.397-.918-3.04-1.315-.398.918zm3.666 1.118l2.107-3.432-.852-.524L58.471 22l.852.524zm1.651-3.195l2.836.17.06-.997-2.836-.171-.06.998zm3.274-.04l1.849-2.614-.817-.578-1.849 2.615.817.577zm1.581-2.423l3.83-1.123-.28-.96-3.831 1.123.281.96zm3.971-1.189c.794-.54.62-1.778-.325-2.04l-.266.964a.138.138 0 01.029.249l.562.827zm-.323-2.039L23.851.801l-.27.963L69.205 14.6l.271-.963zM23.853.802a4.963 4.963 0 00-3.55.325l.443.897a3.963 3.963 0 012.832-.26l.275-.962zm-3.642.384l-3.33 2.677.626.78 3.33-2.678-.626-.779zm-3.16 2.588L11.766 5.34l.284.959 5.287-1.566-.284-.96zM11.55 5.47L9.406 7.675l.717.697 2.143-2.204-.717-.697zM9.603 7.55l-7.507 2.556.322.946 7.507-2.556-.322-.946zM2.04 10.128c-.948.455-.806 1.811.16 2.114l.299-.954a.137.137 0 01-.1-.127.142.142 0 01.015-.078.123.123 0 01.059-.053l-.433-.902zm.16 2.114l47.17 14.693.297-.954L2.498 11.288l-.298.954zm47.17 14.694c1.453.446 2.99.22 4.233-.589l-.545-.838a4.027 4.027 0 01-3.394.471l-.293.956zM1.34 15.117l48.296 14.854.294-.955L1.634 14.16l-.294.956zm48.294 14.854a5.695 5.695 0 004.644-.577l-.517-.856a4.695 4.695 0 01-3.828.478l-.299.955zm4.649-.58c.173-.107.345-.268.453-.48l-.892-.452a.245.245 0 01-.087.082l.526.85zm.44-.458l2.494-4.375-.868-.496-2.494 4.376.869.495zm2.494-4.375a.253.253 0 01.304-.107l.39-.921a1.253 1.253 0 00-1.562.532l.868.496zm.302-.108l1.66.714.396-.918-1.661-.715-.395.919zm1.664.716c.56.236 1.225.035 1.542-.496l-.858-.513a.239.239 0 01-.295.088l-.39.92zm1.537-.487l1.694-2.7-.847-.531-1.694 2.7.847.531zm1.696-2.703a.247.247 0 01.25-.103l.148-.989a1.25 1.25 0 00-1.249.566l.85.526zm.248-.103l1.79.278.154-.988-1.791-.278-.154.988zm1.782.276c.432.075.882-.09 1.167-.442l-.778-.63a.236.236 0 01-.22.087l-.169.985zm1.163-.438l2.06-2.487-.77-.637-2.06 2.486.77.638zm2.073-2.503a.217.217 0 01.097-.065l-.31-.95a1.21 1.21 0 00-.584.41l.797.605zm.098-.066l2.403-.791-.312-.95-2.404.791.313.95zM2.467 18.016l48.297 14.855.294-.956L2.76 17.06l-.294.955zM50.761 32.87a5.695 5.695 0 004.645-.577l-.517-.856a4.695 4.695 0 01-3.829.479l-.299.954zm4.649-.58c.174-.107.346-.268.453-.48l-.892-.451a.247.247 0 01-.086.08l.525.852zm.441-.458l2.494-4.375-.87-.495-2.492 4.375.868.495zm2.493-4.375a.253.253 0 01.305-.107l.39-.92a1.253 1.253 0 00-1.563.53l.868.497zm.302-.108l1.661.715.395-.92-1.661-.714-.395.919zm1.664.716a1.24 1.24 0 001.543-.495l-.858-.514a.239.239 0 01-.295.088l-.39.92zm1.537-.486l1.694-2.7-.847-.532-1.694 2.7.847.532zm1.696-2.704a.248.248 0 01.251-.103l.147-.989c-.477-.07-.978.13-1.248.566l.85.526zm.248-.103l1.79.278.154-.988-1.79-.278-.154.988zm1.782.277c.433.074.882-.091 1.167-.443l-.777-.63a.236.236 0 01-.22.087l-.17.986zm1.163-.439l2.06-2.486-.77-.638-2.06 2.486.77.638zm2.073-2.503a.218.218 0 01.097-.065l-.31-.95a1.21 1.21 0 00-.583.41l.796.605zm.098-.066l2.404-.79-.313-.95-2.403.79.312.95zm-65.609-1.17l48.297 14.855.294-.956L3.592 19.916l-.294.956zm48.295 14.854a5.695 5.695 0 004.644-.576l-.517-.857a4.695 4.695 0 01-3.829.479l-.298.954zm4.648-.579a1.23 1.23 0 00.453-.48l-.892-.452a.246.246 0 01-.086.081l.525.851zm.441-.459l2.494-4.375-.869-.495-2.493 4.375.868.495zm2.493-4.374a.253.253 0 01.305-.108l.39-.92a1.253 1.253 0 00-1.562.53l.867.498zm.302-.109l1.662.715.395-.919-1.662-.715-.395.92zm1.664.716c.56.237 1.226.035 1.543-.495l-.858-.514a.239.239 0 01-.295.088l-.39.92zm1.538-.486l1.694-2.7-.848-.532-1.694 2.7.847.532zm1.695-2.703c.043-.07.136-.12.251-.103l.147-.99c-.477-.07-.978.13-1.248.567l.85.526zm.248-.104l1.79.278.154-.988-1.79-.278-.154.988zm1.783.277c.432.074.882-.091 1.166-.443l-.777-.629a.236.236 0 01-.22.086l-.17.986zm1.162-.439l2.06-2.486-.77-.638-2.06 2.487.77.637zm2.074-2.503a.218.218 0 01.097-.065l-.311-.95a1.22 1.22 0 00-.583.41l.797.605zm.098-.065l2.403-.792-.313-.95-2.403.792.313.95zm-65.3-1.14l48.297 14.868.295-.956L4.734 22.801l-.294.956zm48.295 14.867a5.695 5.695 0 004.644-.576l-.517-.856a4.695 4.695 0 01-3.828.478l-.299.954zm4.649-.579c.173-.107.345-.269.453-.48l-.892-.452a.245.245 0 01-.087.081l.526.851zm.441-.459l2.493-4.375-.868-.495-2.494 4.375.869.495zm2.493-4.374a.253.253 0 01.304-.108l.39-.92a1.253 1.253 0 00-1.562.531l.868.497zm.302-.109l1.661.715.395-.919-1.661-.714-.395.918zm1.664.716c.56.237 1.225.035 1.542-.495l-.858-.513a.239.239 0 01-.295.087l-.39.921zm1.537-.486l1.694-2.7-.847-.532-1.694 2.7.847.532zm1.696-2.703c.043-.07.136-.12.25-.103l.148-.99a1.25 1.25 0 00-1.249.567l.85.526zm.248-.104l1.79.278.154-.988-1.791-.278-.153.988zm1.782.277c.432.074.882-.091 1.167-.443l-.778-.629a.236.236 0 01-.22.086l-.169.986zm1.163-.438l2.06-2.487-.77-.638-2.06 2.487.77.638zm2.073-2.504a.218.218 0 01.097-.065l-.31-.95c-.214.07-.43.209-.584.41l.797.605zm.098-.065l2.404-.791-.313-.95-2.404.791.313.95zM4.878 26.342l48.296 14.854.294-.956L5.171 25.386l-.293.956zm48.294 14.853a5.695 5.695 0 004.644-.576l-.517-.856a4.695 4.695 0 01-3.829.478l-.298.954zm4.648-.579a1.23 1.23 0 00.453-.48l-.892-.452a.247.247 0 01-.086.081l.525.851zm.442-.459l2.493-4.375-.869-.495-2.493 4.375.869.495zm2.493-4.374a.253.253 0 01.304-.108l.39-.92a1.253 1.253 0 00-1.562.531l.868.497zm.301-.109l1.662.715.395-.919-1.662-.714-.395.918zm1.664.716c.56.237 1.226.035 1.543-.495l-.858-.514a.238.238 0 01-.295.088l-.39.921zm1.538-.486l1.694-2.7-.847-.532-1.695 2.7.848.532zm1.695-2.703c.043-.07.136-.12.251-.103l.147-.99c-.477-.07-.978.13-1.248.567l.85.526zm.248-.104l1.791.278.153-.988-1.79-.278-.154.988zm1.783.277c.432.074.882-.091 1.166-.443l-.777-.629a.236.236 0 01-.22.086l-.17.986zm1.163-.438l2.06-2.487-.77-.638-2.06 2.487.77.638zm2.073-2.504a.218.218 0 01.097-.065l-.311-.95a1.22 1.22 0 00-.583.41l.797.605zm.098-.065l2.403-.792-.313-.95-2.403.792.313.95zM6.005 29.24L54.3 44.095l.294-.956L6.3 28.285l-.294.956zm48.294 14.853a5.695 5.695 0 004.644-.576l-.517-.856a4.695 4.695 0 01-3.828.478l-.299.954zm4.649-.579c.173-.107.345-.269.453-.48l-.892-.452a.247.247 0 01-.087.081l.526.851zm.441-.459l2.493-4.375-.868-.495-2.494 4.375.869.495zm2.493-4.374a.253.253 0 01.304-.108l.39-.92a1.253 1.253 0 00-1.562.531l.868.497zm.302-.109l1.661.715.395-.919-1.661-.714-.395.918zm1.664.716a1.24 1.24 0 001.543-.495l-.859-.513a.239.239 0 01-.295.087l-.39.921zm1.537-.486l1.694-2.7-.847-.532-1.694 2.7.847.532zm1.696-2.703c.043-.07.136-.12.25-.103l.148-.99a1.25 1.25 0 00-1.249.567l.85.526zm.248-.104l1.79.278.154-.988-1.791-.278-.153.988zm1.782.277c.432.074.882-.091 1.167-.443L69.5 35.2a.236.236 0 01-.22.086l-.169.986zm1.163-.438l2.06-2.487-.77-.638-2.06 2.487.77.638zm2.073-2.504a.218.218 0 01.097-.065l-.31-.95c-.214.07-.43.209-.584.41l.797.605zm.098-.065l2.404-.791-.313-.95-2.404.791.313.95z" fill="#3D4557"/></svg>