<svg width="71" height="60" fill="none" xmlns="http://www.w3.org/2000/svg"><path d="M0 18.926c.334-1.33.539-2.71 1.026-3.982 1.539-4.023 4.425-6.95 7.96-9.278C13.818 2.482 19.197.854 24.916.251 31.44-.437 37.797.269 43.93 2.642c4.183 1.618 7.916 3.932 10.865 7.372 2.679 3.125 4.055 6.723 4.018 10.875-.05 5.522-.013 11.047-.013 16.57v.907h.798c3.275 0 6.548.011 9.823-.01.635-.003 1.13.152 1.434.735v.69c-.402.886-.814 1.768-1.201 2.661-.056.127-.035.323.02.456.382.9.784 1.791 1.179 2.685v.69c-.402.887-.812 1.77-1.198 2.664a.638.638 0 00.015.456c.384.898.786 1.788 1.183 2.68v.69c-.4.889-.81 1.774-1.194 2.669a.647.647 0 00.008.456c.383.897.787 1.786 1.186 2.677v.69c-.341.539-.828.7-1.461.696-5.143-.019-10.287-.008-15.43-.008-.184 0-.374.019-.551-.022-.533-.12-.855-.448-.855-1.013 0-.564.32-.898.855-1.013.221-.046.46-.022.69-.024l13.285-.005h.845c-.225-.543-.4-1.035-.63-1.504-.243-.496-.278-.982.021-1.445 1.085-1.684 1.096-3.354.004-5.039-.317-.489-.299-1.015.015-1.5 1.057-1.637 1.09-3.268.024-4.914-.364-.559-.292-1.121.005-1.697.209-.403.356-.834.565-1.334h-.99c-12.685 0-25.37.022-38.054-.011-5.858-.015-11.491-1.148-16.796-3.707-.166-.08-.334-.157-.491-.253-.531-.323-.709-.85-.467-1.354.253-.528.805-.724 1.406-.473 1.253.522 2.478 1.12 3.755 1.574 5.408 1.925 10.982 2.493 16.684 1.945 5.205-.502 10.13-1.897 14.627-4.622 2.286-1.386 4.299-3.089 5.926-5.226 3.844-5.044 3.847-11.178-.013-16.211-2.718-3.543-6.327-5.905-10.447-7.444-9.724-3.633-19.439-3.526-29.045.464-3.513 1.457-6.609 3.57-9.019 6.561-4.533 5.63-4.28 12.488.653 17.81.764.824 1.63 1.559 2.464 2.317.614.56.741 1.107.328 1.61-.411.505-1.007.505-1.644-.005-1.941-1.552-3.61-3.35-4.986-5.628-.02.357-.042.567-.042.775-.002 3.407.074 6.816-.02 10.22-.131 4.72 1.815 8.466 5.216 11.555 3.98 3.615 8.77 5.591 13.966 6.711 3.517.758 7.082.854 10.663.838 5.42-.026 10.84-.008 16.26-.006.23 0 .466-.022.69.019.577.101.91.468.895 1.05-.013.547-.344.89-.89.987-.2.035-.413.016-.622.016-6.434-.002-12.87.045-19.304-.016-6.8-.067-13.255-1.55-19.12-5.119-3.59-2.183-6.614-4.963-8.363-8.855-.63-1.405-.895-2.974-1.326-4.47-.044-.154-.083-.307-.123-.46C0 33.659 0 26.292 0 18.925zm56.687 8.899c-3.371 5.325-8.285 8.323-13.824 10.499h13.824v-10.5z" fill="#fff"/><path d="M29.218 32.154C25.063 32.069 21 31.08 17.557 28.28c-2.615-2.126-4.192-4.833-4.113-8.287.076-3.338 1.705-5.912 4.246-7.95 2.548-2.045 5.515-3.121 8.725-3.542 4.313-.566 8.457-.01 12.354 2.002.387.202.765.425 1.129.667.587.389.745.96.433 1.474-.313.516-.913.655-1.509.28-3.094-1.935-6.5-2.662-10.1-2.542-3.506.116-6.792.99-9.619 3.168-2.057 1.585-3.44 3.607-3.578 6.271-.147 2.816 1.128 5.021 3.23 6.781 2.332 1.956 5.09 2.927 8.074 3.298 3.793.472 7.456.016 10.886-1.748 2.142-1.101 3.9-2.627 4.903-4.873.98-2.194.89-4.378-.19-6.522-.083-.165-.181-.322-.264-.486-.318-.629-.188-1.195.336-1.492.536-.305 1.096-.144 1.46.478 1.46 2.494 1.83 5.134.918 7.897-1.017 3.08-3.194 5.164-5.964 6.692-2.952 1.628-6.159 2.257-9.696 2.307z" fill="#fff"/><path d="M29.384 12.903c2.628.05 5.157.507 7.412 1.891.925.567 1.812 1.296 2.498 2.128 1.704 2.059 1.632 4.627-.053 6.707-1.356 1.673-3.174 2.64-5.207 3.203-4.185 1.157-8.255.917-12.102-1.221a8.669 8.669 0 01-2.05-1.613c-2.194-2.32-2.152-5.368.075-7.658 1.862-1.915 4.248-2.77 6.816-3.194.86-.142 1.74-.166 2.611-.243zm.024 2.033c-1.048.137-2.109.205-3.14.421-1.897.4-3.668 1.109-4.986 2.615-1.35 1.546-1.236 3.411.277 4.78.144.13.507.172.686.087 4.776-2.275 9.54-2.258 14.313.006.175.083.535.026.68-.107 1.49-1.379 1.61-3.192.289-4.722a6.661 6.661 0 00-1.46-1.25c-2.02-1.283-4.279-1.732-6.659-1.83zm5.26 9.39c-3.527-1.411-7.038-1.446-10.544.008 3.517 1.44 7.035 1.433 10.545-.008z" fill="#fff"/></svg>