<svg width="76" height="58" fill="none" xmlns="http://www.w3.org/2000/svg"><path d="M.719 3.563c.336-.89.742-1.727 1.574-2.282 2.2-1.468 5.142-.127 5.533 2.531.027.186.038.375.064.622h5.988c.413 0 .826-.01 1.237.004.78.03 1.247.466 1.228 1.134-.018.642-.46 1.051-1.219 1.057-2.134.014-4.268.005-6.405.005h-.818v44.353h14.125V6.634c-.45 0-.9.008-1.352-.002-.839-.016-1.334-.434-1.323-1.11.011-.673.504-1.071 1.358-1.086.43-.007.862-.002 1.277-.002.633-2.654 1.787-3.808 3.717-3.768 1.875.04 3.061 1.27 3.583 3.737h14.096c.099-1.239.468-2.405 1.594-3.067.603-.353 1.347-.614 2.037-.64 1.826-.077 2.784.954 3.66 3.713h14.053c.053-.32.088-.628.153-.926.375-1.712 1.936-2.91 3.654-2.81 1.736.1 3.204 1.518 3.359 3.256.032.36.027.726.027 1.088.002 9.951.002 19.902.002 29.854v.938c.62 0 1.173.028 1.721-.007.683-.042 1.241.13 1.61.74v12.06c-.866 1.175-2.203.461-3.346.793 0 1.44.05 2.867-.014 4.288-.064 1.432-.834 2.464-2.14 3.034-1.29.56-2.511.352-3.616-.521-.935-.74-1.28-1.772-1.39-2.893h-14.11c-.537 2.44-1.65 3.685-3.474 3.675-.733-.003-1.536-.265-2.18-.63-1.136-.649-1.503-1.824-1.598-3.067H29.288c-.455 2.442-1.669 3.772-3.56 3.705-.73-.026-1.526-.319-2.155-.708-1.054-.65-1.443-1.763-1.518-2.99H7.886c-.018.224-.029.413-.053.6-.19 1.533-1.343 2.754-2.891 3.065-1.432.287-2.948-.417-3.7-1.736-.2-.351-.35-.73-.523-1.095V3.562zm49.858 3.1v1.001c0 8.741 0 17.48-.003 26.222 0 .337-.002.684-.075 1.01-.113.504-.468.777-.992.797-.522.018-.906-.218-1.05-.717-.09-.318-.107-.668-.107-1.002-.006-9.66-.004-19.32-.006-28.981 0-.291.008-.582-.025-.87-.08-.708-.639-1.226-1.3-1.232-.683-.005-1.235.475-1.333 1.189-.036.262-.036.53-.036.797-.002 15.98-.002 31.959-.002 47.938 0 1.349.45 1.993 1.374 1.985.877-.007 1.322-.664 1.324-1.957.002-4.238-.003-8.474.004-12.712.002-.924.395-1.414 1.093-1.427.712-.012 1.101.463 1.13 1.383.006.17.002.339.002.508v10.404h14.142V6.665c-4.705-.002-9.356-.002-14.14-.002zM43.37 51.01V6.676H29.275V51.01H43.37zm23.61-22.2c0 7.986-.001 15.97.004 23.956 0 .359.022.73.108 1.076.153.62.63.93 1.228.946.6.016 1.084-.282 1.275-.885.093-.293.115-.617.115-.928.006-16.092.006-32.183.002-48.275 0-.264-.01-.537-.073-.79-.158-.631-.724-1.077-1.326-1.02-.63.058-1.109.365-1.241 1.03-.066.329-.09.67-.09 1.006-.003 7.962-.001 15.923-.001 23.884zm-42.687-.035v24.1c0 1.272.466 1.93 1.36 1.927.887-.003 1.362-.673 1.362-1.938.002-16.02.002-32.037 0-48.057 0-1.259-.484-1.93-1.373-1.927-.894.006-1.349.657-1.349 1.938v23.957zm-18.636.06c0-7.986.002-15.972-.004-23.957 0-.358-.02-.731-.112-1.073-.168-.615-.66-.914-1.256-.91-.595.004-1.079.306-1.248.923-.082.298-.11.618-.11.93a70864.85 70864.85 0 000 48.204c0 .31.03.633.115.93.177.613.66.907 1.258.91.567.001 1.046-.28 1.224-.856.106-.338.13-.713.13-1.072.005-8.01.003-16.02.003-24.029zm66.3 9.209v8.98h1.047v-8.98h-1.047z" fill="#fff"/></svg>