<svg width="76" height="68" fill="none" xmlns="http://www.w3.org/2000/svg"><path d="M0 17.065V8.16c.692-1.685 2.063-2.648 3.622-3.41 2.37-1.159 4.897-1.836 7.463-2.373C17.003 1.138 23.003.576 29.03.256 40.274-.34 51.47.062 62.59 1.925c3.147.527 6.252 1.242 9.187 2.54 1.784.788 3.426 1.766 4.223 3.692v8.907c-.371.6-.606 1.414-1.143 1.76-1.336.86-1.656 2.074-1.682 3.497-.003.146-.041.294-.077.437-.44 1.768-1.018 3.513-1.3 5.306-.98 6.224-1.859 12.463-2.775 18.696-.614 4.18-1.217 8.362-1.85 12.54-.058.397-.235.802-.45 1.145-1.04 1.655-2.678 2.53-4.413 3.225-4.969 1.992-10.217 2.645-15.493 3.098-4.958.426-9.927.459-14.897.183-4.97-.276-9.9-.829-14.724-2.105-2.369-.627-4.7-1.393-6.647-2.969-.997-.809-1.675-1.783-1.833-3.162-.322-2.796-.795-5.577-1.207-8.363-.921-6.258-1.839-12.516-2.763-18.773-.26-1.759-.382-3.56-.863-5.257-.546-1.93-1.138-3.828-1.285-5.843a1.072 1.072 0 00-.404-.71C1.198 19.076.407 18.23 0 17.066zm68.608 15.027c-1.392 1.178-2.685 2.401-4.105 3.45-3.21 2.37-6.81 3.977-10.611 5.159-.287.089-.665.303-.75.546-.785 2.242-1.931 3.092-4.291 3.094h-9.497c-4.155 0-8.31.005-12.464-.003-1.951-.005-3.422-.998-3.873-2.715-.16-.612-.486-.8-1.011-.967-5.004-1.585-9.608-3.893-13.437-7.568-.362-.35-.706-.717-1.198-1.218.061.481.09.748.128 1.014l1.11 7.554c.88 5.964 1.767 11.927 2.632 17.894.119.821.492 1.464 1.192 1.862.814.46 1.643.92 2.515 1.245 4.7 1.75 9.621 2.417 14.58 2.812 7.739.615 15.466.472 23.151-.732 3.25-.51 6.454-1.207 9.495-2.524 1.626-.703 2.756-1.719 2.724-3.64-.003-.218.073-.437.106-.657a99265.16 99265.16 0 003.075-20.9c.183-1.235.354-2.471.529-3.706zM5.866 21.549c.027.274.034.517.077.753.244 1.33.26 2.767.805 3.962.675 1.481 1.65 2.887 2.743 4.106 3.66 4.083 8.434 6.348 13.57 7.953.166.052.472-.06.594-.2.82-.936 1.842-1.393 3.073-1.394 7.517-.003 15.033-.003 22.552 0 .999 0 1.989.22 2.621 1.002.58.718 1.133.681 1.83.363.09-.04.186-.066.28-.1 4.435-1.534 8.54-3.633 11.922-6.971 2.635-2.602 4.29-5.632 4.1-9.438-10.42 3.09-21.19 3.721-32.003 3.726-10.836.001-21.626-.644-32.164-3.762zM2.53 12.434c0 1.08.094 2.077-.023 3.047-.14 1.167.402 1.89 1.337 2.304 1.62.716 3.25 1.46 4.947 1.937 6.412 1.805 13.01 2.438 19.628 2.803 9.622.53 19.23.34 28.805-.864 3.728-.47 7.444-1.051 11.021-2.239 1.487-.494 2.906-1.21 4.31-1.919.39-.196.838-.704.872-1.1.11-1.288.042-2.593.042-4.003-2.45 1.371-4.992 2.146-7.594 2.727-7.731 1.725-15.59 2.302-23.48 2.523-8.194.23-16.367-.1-24.497-1.181-5.243-.695-10.47-1.497-15.368-4.035zm35.16-9.92c-8.003.047-16.34.488-24.576 2.085-2.887.56-5.755 1.215-8.439 2.463-.64.298-1.24.714-1.796 1.155-.458.365-.499.904-.004 1.269 1.414 1.048 2.79 2.286 4.79 1.382.4-.181.853-.244 1.284-.35C16.325 8.677 23.854 8.03 31.42 7.72c7.818-.32 15.623-.1 23.407.729 4.894.52 9.75 1.247 14.472 2.704.205.064.477.16.637.08 1.035-.511 2.096-.994 3.052-1.63.689-.46.667-1.019-.003-1.516a10.36 10.36 0 00-2.168-1.255C67.187 5.321 63.35 4.6 59.49 4.001c-7.103-1.1-14.26-1.453-21.803-1.487zm27.11 10.14c-17.857-3.425-35.716-3.432-53.574.004 17.857 3.45 35.715 3.457 53.574-.004zM38.034 39.267c-3.61 0-7.22-.002-10.83.002-.271 0-.548-.008-.813.04-.643.114-1.002.515-1.029 1.168-.027.651.297 1.09.928 1.253.282.072.588.074.882.074 7.22.003 14.441.003 21.661 0 .294 0 .6-.003.882-.076.63-.163.951-.605.923-1.256-.028-.651-.389-1.054-1.033-1.165-.266-.046-.542-.038-.814-.038-3.586-.002-7.17-.002-10.757-.002z" fill="#fff"/><path d="M12.763 47.738c-.012-.9.456-1.468 1.146-1.529.67-.06 1.269.432 1.365 1.186.363 2.815.707 5.633 1.057 8.45.046.366.12.734.128 1.102.012.71-.484 1.247-1.156 1.302-.648.053-1.243-.356-1.332-1.027-.426-3.206-.82-6.416-1.208-9.484zm1.8-6.029c.016.916-.376 1.426-1.05 1.521-.713.101-1.294-.307-1.44-1.062a11.159 11.159 0 01-.19-1.537c-.035-.731.424-1.264 1.093-1.337.689-.074 1.262.328 1.398 1.029.1.506.141 1.022.189 1.386z" fill="#fff"/></svg>