<svg width="57" height="57" fill="none" xmlns="http://www.w3.org/2000/svg"><path d="M56.985 29.938c-.145 1.154-.28 2.31-.44 3.462-.983 7.006-2.542 13.875-4.912 20.55a7.673 7.673 0 01-.762 1.537c-.643 1.013-1.58 1.507-2.8 1.502-4.192-.013-8.384-.037-12.575.01-1.734.02-2.842-.753-3.505-2.29-.066-.15-.135-.3-.272-.6-.168.69-.323 1.239-.434 1.796-.146.727-.513 1.075-1.25 1.077-6.381.004-12.761.004-19.14 0-.703 0-1.102-.354-1.21-1.051-.332-2.134-1.425-3.767-3.163-5.03-2.954-2.143-5.198-4.882-6.047-8.465-1.344-5.668.196-10.626 4.218-14.811 1.813-1.887 4.034-3.18 6.392-4.263.808-.37 1.602-.77 2.397-1.167.214-.107.415-.246.613-.382.473-.328.788-.759.694-1.357-.09-.567-.581-.731-1.048-.866-1.374-.4-2.308-1.232-2.632-2.657-.46-2.024 1.059-4.088 3.137-4.113 4.155-.05 8.31-.039 12.463-.005 1.623.014 2.96 1.306 3.206 2.949.234 1.552-.73 3.127-2.26 3.684-.26.096-.535.158-.788.268-.777.34-.959 1.06-.406 1.71.23.27.549.468.732.622.739-1.116 1.37-2.232 2.168-3.212.524-.645 1.244-1.17 1.96-1.616 2.903-1.814 3.37-5.335 3.003-7.515-.259-1.542-1.304-2.583-2.552-3.427-.336-.228-.703-.41-1.055-.616C29.584 5 29.019 4.02 29.142 2.706c.122-1.295.871-2.123 2.07-2.574.1-.037.193-.087.29-.132h20.367c.146.068.29.141.439.202 1.106.458 1.772 1.274 1.897 2.465.132 1.257-.385 2.214-1.44 2.925-.899.608-1.842 1.194-2.61 1.948-1.312 1.285-1.386 2.957-1.147 4.673.32 2.286 1.376 4.079 3.414 5.25.35.201.67.469.965.747.408.386.44.977.128 1.421-.308.438-.932.643-1.381.345-1.685-1.12-3.42-2.21-4.305-4.148-1.143-2.503-1.644-5.088-.618-7.754.734-1.908 2.21-3.163 3.946-4.146.177-.1.424-.157.517-.309.153-.245.322-.578.266-.827-.049-.218-.377-.397-.614-.544-.108-.067-.29-.02-.438-.02-6.14 0-12.28-.002-18.42.002-.218 0-.455 0-.653.078a.747.747 0 00-.113 1.34c.728.454 1.437.865 2.399.833 2.464-.081 4.933-.03 7.4-.025.717.002 1.17.345 1.255.925.11.75-.385 1.292-1.216 1.297-1.837.009-3.673.003-5.51.003h-.456c.333.942.843 1.836.949 2.776.422 3.763-.394 7.177-3.73 9.388-2.37 1.571-3.505 3.729-3.962 6.39-.438 2.555-.224 5.102.131 7.644.915 6.528 2.342 12.938 4.439 19.192.21.632.465 1.249.703 1.87.224.586.62.836 1.28.833 4.174-.024 8.347-.024 12.521 0 .657.004 1.072-.252 1.304-.816.336-.823.666-1.65.94-2.492a104.746 104.746 0 004.283-19.113c.165-1.285.241-2.583.32-3.876.05-.81.275-1.246.842-1.398.53-.143.951.083 1.394.75-.003.7-.003 1.405-.003 2.11zM16.923 19.587c.256 2.284-.292 3.366-2.253 4.489-.482.275-.987.507-1.484.758-1.24.626-2.524 1.175-3.71 1.888-4.26 2.56-6.805 6.254-7.21 11.286-.33 4.114 1.363 7.384 4.317 10.091.71.65 1.526 1.18 2.247 1.817.333.295.654.4 1.087.399 3.375-.017 6.752-.01 10.127-.01.166 0 .334-.008.5.008.602.057 1.042.523 1.043 1.102.003.577-.434 1.05-1.033 1.11-.165.016-.333.007-.501.007l-8.514.001c-.193 0-.385.016-.583.025l.81 2.176h17.285c.57-1.122 1.104-2.15 1.61-3.193a.843.843 0 00.033-.563c-1.806-5.815-3.094-11.745-3.934-17.774-.395-2.84-.607-5.677-.107-8.53.027-.154-.105-.4-.24-.51-.475-.381-1.04-.664-1.467-1.088-1.732-1.717-1.231-4.381.987-5.38.32-.143.666-.227.992-.358.544-.22.854-.744.775-1.278-.084-.57-.541-.983-1.144-1.03-.11-.01-.223-.005-.333-.005H14.761c-.13 0-.26-.006-.39.006-.66.06-1.142.59-1.12 1.225.019.653.505 1.103 1.202 1.105 1.41.003 2.82-.005 4.229.003.75.004 1.252.476 1.237 1.133-.013.636-.503 1.076-1.228 1.088-.574.01-1.147.002-1.768.002z" fill="#fff"/><path d="M56.303 23.212A1.118 1.118 0 0155.2 24.31c-.63.007-1.129-.5-1.114-1.133a1.083 1.083 0 011.12-1.066 1.108 1.108 0 011.097 1.1z" fill="#fff"/></svg>