<svg width="69" height="62" fill="none" xmlns="http://www.w3.org/2000/svg"><path d="M57.961 6.73h5.163c1.608 0 1.657.046 1.657 1.616 0 7.453.04 14.903-.025 22.355-.02 2.294.258 4.506.855 6.713.873 3.231 1.646 6.49 2.452 9.738.242.975.066 1.244-.877 1.495-.773.204-1.855.193-2.225.697-.404.553-.17 1.585-.176 2.411-.015 1.468-.002 2.936-.004 4.404-.003 1.21-.191 1.406-1.395 1.404-5.856-.01-11.712-.023-17.57-.034-3.357-.006-6.72.078-10.075-.044-3.28-.12-6.444.322-9.604 1.163-4.335 1.157-8.712 2.163-13.071 3.231-1.144.28-1.397.127-1.69-1.041-.217-.857-.446-1.714-.62-2.58-.104-.525-.328-.72-.886-.707-1.665.038-3.33.016-4.996.014-1.326-.002-1.497-.169-1.497-1.473 0-7.783-.07-15.569.034-23.352a33.98 33.98 0 00-1.215-9.58C1.41 20.31.779 17.415.088 14.537c-.228-.952-.044-1.235.913-1.47.59-.146 1.18-.324 1.779-.424.493-.08.617-.324.608-.788-.026-1.275-.013-2.55-.006-3.822.004-1.14.166-1.304 1.303-1.304 6.163-.002 12.325-.066 18.485.027 2.913.044 5.72-.338 8.538-1.037 7.688-1.914 15.403-3.73 23.106-5.585 1.25-.3 1.448-.167 1.77 1.126.447 1.796.902 3.59 1.377 5.47zm-56.11 7.885C5.566 29.831 9.259 44.971 12.96 60.147c17.828-4.359 35.555-8.694 53.338-13.04-3.78-15.109-7.536-30.127-11.318-45.252C37.259 6.11 19.6 10.351 1.853 14.615zm36.642 41.044c.006.04.015.08.022.12h24.514v-6.12c-8.221 2.012-16.378 4.006-24.536 6zm-28.356.13L5.24 35.715a1.755 1.755 0 00-.106.022v20.05h5.003zm52.792-29.174a.904.904 0 00.086-.022V8.48h-4.623l4.537 18.136zM19.797 8.553l-.014-.083H5.146v3.602c4.932-1.185 9.79-2.354 14.652-3.52z" fill="#fff"/></svg>