<svg width="63" height="72" fill="none" xmlns="http://www.w3.org/2000/svg"><path d="M3.324 36c-.922-.507-1.714-.973-2.536-1.384-.58-.29-.79-.703-.788-1.343.018-5.224.016-10.45.002-15.674-.002-.609.206-.99.755-1.284A16440.667 16440.667 0 0030.834.192c.492-.264.895-.25 1.371.01 4.122 2.252 8.248 4.493 12.382 6.724.542.291.769.683.75 1.293-.032.95-.008 1.902-.008 3.022.784-.415 1.527-.717 2.163-1.167 1.143-.81 2.126-.708 3.341-.01 3.69 2.12 7.453 4.116 11.208 6.12.7.374.963.828.959 1.616-.03 5.127-.028 10.254-.002 15.381.004.736-.245 1.184-.906 1.498-.808.381-1.583.833-2.49 1.319.954.514 1.776.982 2.62 1.403.547.274.774.657.772 1.276-.016 5.248-.016 10.498 0 15.747.002.612-.218.998-.757 1.288a2139.254 2139.254 0 00-12.318 6.69c-.531.29-.976.307-1.508.006-.97-.554-1.976-1.049-3.082-1.628 0 1.082-.024 2.047.007 3.012.02.61-.206 1-.749 1.293a2139.254 2139.254 0 00-12.317 6.69c-.528.29-.965.304-1.506.014A14698.42 14698.42 0 00.754 55.695C.201 55.398 0 55.017.001 54.41.016 49.185.018 43.96 0 38.735c-.002-.64.214-1.049.792-1.338.82-.413 1.61-.887 2.532-1.398zm27.24 33.66c.023-.185.045-.275.045-.367.002-4.517-.01-9.034.017-13.552.002-.491-.27-.617-.594-.79-9.166-4.91-18.33-9.822-27.494-14.732-.226-.122-.46-.23-.72-.358-.024.164-.041.236-.041.309-.002 4.516.008 9.033-.016 13.551-.002.47.231.623.57.805 8.369 4.48 16.733 8.97 25.099 13.455 1.025.552 2.053 1.102 3.134 1.68zm30.651-50.852c-.174.047-.249.055-.31.088-9.377 5.023-18.757 10.045-28.123 15.09-.208.111-.387.485-.389.738-.023 4.442-.017 8.884-.015 13.326 0 .14.017.28.033.529 1.396-.748 2.726-1.46 4.053-2.173 8.06-4.322 16.12-8.647 24.189-12.956.423-.227.586-.472.574-.957-.037-1.366-.012-2.734-.012-4.1v-9.585zM42.56 7.886c-.297-.18-.478-.299-.666-.403-3.265-1.777-6.537-3.546-9.792-5.34-.435-.24-.763-.237-1.2 0-9.154 4.924-18.317 9.832-27.477 14.745-.182.098-.351.217-.588.366.284.17.484.302.692.415 3.244 1.765 6.495 3.519 9.727 5.305.445.247.77.223 1.2-.01 6.18-3.328 12.369-6.64 18.554-9.956 3.146-1.685 6.29-3.372 9.55-5.122zM20.433 26.612c.376.215.621.362.872.5 3.18 1.731 6.366 3.45 9.531 5.205.49.272.847.26 1.334 0 8.097-4.36 16.204-8.699 24.31-13.043 1.217-.652 2.43-1.313 3.731-2.016-.31-.186-.51-.315-.72-.428-3.221-1.756-6.45-3.497-9.662-5.27-.48-.267-.841-.278-1.333-.012-6.2 3.346-12.412 6.665-18.619 9.994-3.104 1.663-6.205 3.33-9.444 5.07zM12.89 39.17c.037-.153.06-.2.06-.247.003-4.563.013-9.129-.019-13.692-.001-.249-.284-.595-.527-.728-3.32-1.828-6.658-3.628-9.992-5.433-.184-.1-.38-.176-.64-.295 0 4.728-.005 9.364.018 13.998 0 .197.218.47.408.579 1.057.612 2.138 1.19 3.213 1.77 2.469 1.341 4.94 2.674 7.48 4.048zm37.143 21.09c.21-.094.322-.133.424-.19 3.438-1.866 6.87-3.743 10.317-5.588.416-.222.445-.501.445-.883-.006-4.391-.004-8.783-.006-13.174 0-.159-.021-.317-.033-.477-.1.005-.157-.008-.192.011-3.546 1.922-7.093 3.844-10.63 5.785-.162.09-.311.372-.311.566-.018 4.61-.014 9.218-.014 13.95zm-30.56-32.138c-.023.207-.043.301-.043.395-.002 4.487.008 8.977-.015 13.464-.002.468.23.628.567.81 3.351 1.816 6.699 3.642 10.048 5.462.163.088.341.15.532.233.021-.124.045-.194.045-.265.002-4.536.008-9.072-.016-13.61-.002-.223-.204-.534-.404-.654-.902-.536-1.838-1.017-2.761-1.518-2.616-1.42-5.232-2.842-7.952-4.317zm24.087 21.17c-.167.035-.22.035-.26.057-3.502 1.9-7.008 3.794-10.495 5.724-.221.123-.408.522-.41.796-.025 4.391-.017 8.783-.016 13.174 0 .176.034.352.057.587.29-.149.508-.254.72-.368 3.265-1.775 6.523-3.561 9.802-5.31.488-.261.617-.56.614-1.083-.022-4.196-.012-8.393-.012-12.589v-.988zm0-39.864c-.177.05-.251.058-.312.091-9.378 5.024-18.756 10.045-28.122 15.09-.208.112-.386.486-.386.738-.024 4.442-.018 8.884-.016 13.325 0 .139.018.28.033.526.836-.444 1.593-.88 2.381-1.252.418-.198.54-.454.537-.903-.02-3.344.002-6.686-.02-10.03-.003-.64.216-1.03.791-1.335 3.606-1.914 7.2-3.86 10.796-5.793 4.589-2.465 9.18-4.925 13.759-7.407.235-.127.514-.414.535-.65.065-.77.024-1.553.024-2.4zm-.98 38.292c-.733-.395-1.328-.684-1.888-1.027-.379-.23-.679-.217-1.071-.002-2.448 1.339-4.917 2.638-7.364 3.975-.526.287-.963.309-1.504.011a1624.244 1624.244 0 00-12.32-6.69c-.572-.31-.8-.713-.778-1.349.035-.964.01-1.931.01-3.01-1.026.547-1.971.999-2.862 1.54-.663.406-1.21.406-1.898.02-2.39-1.338-4.813-2.62-7.233-3.906-.211-.113-.539-.227-.72-.143-.717.333-1.4.744-2.133 1.147.118.106.163.166.222.198a13720.2 13720.2 0 0028.077 15.043c.217.115.62.078.85-.045 2.613-1.394 5.207-2.818 7.808-4.235.894-.485 1.788-.973 2.804-1.527zm-.567-2.299c.877.468 1.616.904 2.39 1.264.693.321.944.79.936 1.554-.035 3.293-.017 6.589-.008 9.882 0 .245.032.62.183.71.867.517 1.773.965 2.751 1.484 0-4.787.006-9.42-.017-14.056-.002-.198-.224-.466-.416-.578a50.163 50.163 0 00-2.716-1.454c-.208-.103-.536-.15-.73-.058-.769.362-1.508.788-2.373 1.252zm18.193-7.049c-.325-.188-.572-.291-.774-.452-1.161-.918-2.206-.779-3.485-.03-3.036 1.78-6.181 3.37-9.392 5.099.751.399 1.432.726 2.075 1.113.386.233.68.204 1.069-.01 2.87-1.58 5.758-3.135 8.638-4.7.593-.32 1.183-.644 1.87-1.02z" fill="#fff"/></svg>