<svg width="83" height="67" fill="none" xmlns="http://www.w3.org/2000/svg"><path d="M.445 36.513c-.036-.174-.062-.347-.11-.518-.716-2.543.31-5.24 2.599-6.553 10.844-6.237 21.69-12.473 32.564-18.658 4.203-2.39 9.791-1.247 12.854 2.498.112.136.226.27.407.486l.71-.406c4.373-2.507 8.738-5.025 13.121-7.51 1.222-.693 2.048-1.638 2.47-2.982.436-1.395 1.41-2.246 2.877-2.407 1.488-.161 2.675.438 3.418 1.726a3146.071 3146.071 0 0110.256 17.893c.735 1.29.654 2.618-.24 3.82-.882 1.188-2.108 1.593-3.53 1.268-1.374-.315-2.607-.083-3.822.623-4.36 2.53-8.74 5.021-13.111 7.527l-.687.393c.134.427.259.81.372 1.197 1.357 4.689-.584 9.522-4.846 11.97-10.605 6.09-21.216 12.164-31.827 18.244-2.754 1.578-5.34 1.203-7.572-1.083-.051-.053-.127-.082-.19-.122C10.918 54.786 5.682 45.65.445 36.513zm41.288 15.753c4.216-2.417 8.435-4.828 12.647-7.252 4.277-2.459 5.56-7.18 3.112-11.46a9959.806 9959.806 0 00-9.948-17.357c-2.457-4.278-7.181-5.564-11.459-3.115-8.546 4.891-17.087 9.791-25.628 14.69-2.094 1.2-2.62 3.11-1.428 5.195 4.839 8.446 9.68 16.892 14.522 25.336 1.195 2.084 3.11 2.601 5.201 1.405 4.329-2.48 8.654-4.962 12.98-7.442zM63.12 29.403l.763-.438c3.017-1.729 6.044-3.445 9.05-5.194 1.645-.957 3.365-1.303 5.228-.87.53.124 1.022.118 1.373-.383.355-.508.258-1.002-.031-1.507-3.346-5.828-6.687-11.658-10.025-17.49-.29-.506-.678-.829-1.294-.769-.606.06-.844.494-1.01 1.01-.555 1.764-1.669 3.07-3.273 3.983-3.068 1.744-6.127 3.507-9.189 5.262l-.745.427 9.152 15.969zM24.408 62.167c-1.51-.71-2.37-1.843-3.109-3.136A7138.82 7138.82 0 007.692 35.283c-.88-1.532-1.796-3.035-1.553-5.04l-1.635.938c-2.17 1.248-2.672 3.122-1.419 5.31 3.531 6.165 7.066 12.328 10.6 18.492 1.347 2.35 2.68 4.707 4.046 7.047.894 1.532 2.72 2.173 4.308 1.476.786-.345 1.502-.843 2.369-1.34zm25.596-46.422L59.12 31.65l1.915-1.097-9.116-15.905-1.915 1.097z" fill="#fff"/><path d="M13.388 31.393c.825.668 1.484 1.307 2.242 1.796 1.865 1.204 3.769 2.349 5.668 3.502 3.394 2.061 5.144 5.074 5.244 9.039.054 2.143.058 4.289.148 6.43.042 1.005.238 2.003.39 3.203l.896-.514 24.036-13.777c2.183-1.251 2.689-3.123 1.44-5.306-1.051-1.838-2.105-3.673-3.214-5.608l-.886.508-18.776 10.762c-1.325.76-1.677.661-2.435-.661-.584-1.02-1.17-2.039-1.753-3.06-.625-1.098-.51-1.541.587-2.17 6.301-3.617 12.605-7.228 18.908-10.84l.879-.504c-.12-.25-.196-.436-.294-.608-1.003-1.753-2-3.51-3.012-5.255-1.081-1.865-3.063-2.408-4.934-1.343-3.512 2.001-7.014 4.018-10.523 6.027-.2.114-.393.251-.61.323-.578.195-1.076.055-1.388-.48-.332-.568-.2-1.085.297-1.5.155-.129.347-.215.524-.317 3.462-1.984 6.922-3.972 10.388-5.954 3.194-1.826 6.507-.932 8.334 2.253 3.321 5.785 6.637 11.57 9.95 17.36 1.824 3.185.919 6.497-2.273 8.329-8.498 4.875-17 9.745-25.503 14.617-1.143.655-1.67.507-2.257-.668-.707-1.415-1.054-2.92-1.085-4.503-.039-2.093-.12-4.187-.118-6.28.007-3.42-1.428-5.969-4.397-7.692-1.92-1.116-3.794-2.31-5.676-3.491A9.774 9.774 0 0111 31.757c-.511-.843-.366-1.435.474-1.92a3907.2 3907.2 0 0110.72-6.144c.745-.424 1.378-.31 1.74.282.384.623.17 1.268-.602 1.71-2.993 1.723-5.991 3.436-8.989 5.154-.239.144-.48.283-.954.554zM29.894 39.1l19.133-10.966-1.092-1.905-19.133 10.966 1.092 1.905z" fill="#fff"/></svg>