<svg width="89" height="53" fill="none" xmlns="http://www.w3.org/2000/svg"><path d="M89 41.008c-.487.259-.996.484-1.451.79-.254.172-.501.444-.609.727-1.057 2.764-2.082 5.54-3.124 8.31-.579 1.541-1.383 2.134-2.995 2.15-1.912.02-3.824.02-5.736 0-1.625-.016-2.429-.595-3.014-2.125-.332-.867-.666-1.735-.974-2.61-.262-.749-.683-1.3-1.542-1.288-.812.012-1.222.53-1.474 1.253-.334.957-.71 1.901-1.067 2.852-.46 1.224-1.35 1.883-2.639 1.904-2.114.033-4.23.038-6.343-.005-1.285-.026-2.168-.7-2.614-1.932-.357-.982-.741-1.954-1.1-2.934-.253-.697-.703-1.145-1.468-1.14-.763.005-1.203.456-1.453 1.157-.35.984-.739 1.954-1.1 2.935-.453 1.23-1.34 1.893-2.627 1.917-2.114.039-4.23.039-6.343 0-1.285-.024-2.175-.687-2.627-1.917-.37-1.007-.763-2.007-1.133-3.015-.247-.672-.703-1.072-1.42-1.075-.718-.004-1.182.387-1.431 1.06-.372 1.007-.768 2.006-1.135 3.014-.449 1.232-1.33 1.905-2.615 1.931-2.113.042-4.229.04-6.343.004-1.284-.021-2.181-.679-2.639-1.904-.356-.95-.733-1.895-1.065-2.852-.252-.726-.666-1.241-1.476-1.253-.857-.014-1.28.537-1.542 1.287-.327.93-.692 1.848-1.03 2.775-.463 1.261-1.372 1.931-2.697 1.95-2.086.03-4.172.032-6.258-.001-1.33-.021-2.22-.72-2.684-1.974-1.05-2.828-2.108-5.655-3.155-8.485-.156-.424-.318-.717-.87-.795-.428-.061-.805-.463-1.207-.714v-1.047l1.493-1.122L0 34.724V7.154c.035-.046.087-.087.1-.138C1.285 2.266 4.18 0 9.066 0h70.868c.347 0 .695-.002 1.04.009 3.573.1 6.71 2.547 7.688 5.993.11.386.224.768.337 1.152v27.57l-1.542 4.28c.096-.004.193-.005.289-.009l1.253.963v1.05zm-2.608-8.636v-.625c0-7.705.004-15.412-.001-23.117-.004-3.61-2.396-6.007-6.003-6.007a246067.6 246067.6 0 00-71.782 0c-3.598 0-5.997 2.406-5.999 6.01-.005 7.706-.001 15.412 0 23.117 0 .236.032.47.044.625.812-1.29 1.646-2.572 2.43-3.886.235-.394.462-.874.466-1.315.03-6.107.02-12.212.02-18.319 0-2.23 1.02-3.26 3.227-3.26h47.623c.289 0 .59-.027.866.04.672.158 1.067.617 1.044 1.31-.022.687-.424 1.134-1.116 1.245-.283.046-.577.021-.867.021H24.888c0 1.049.015 1.947-.004 2.846-.037 1.62-1.135 2.715-2.752 2.74-1.244.019-2.49.006-3.737.003-1.989-.007-3.065-1.077-3.077-3.057-.005-.829 0-1.658 0-2.485H8.231v17.344c1.198-.126 2.374-.43 3.517-.334 2.49.21 4.23 1.768 5.618 3.713.779 1.093 1.396 2.302 2.105 3.492.169-.35.337-.715.518-1.073 1.032-2.052 2.32-3.9 4.299-5.146 2.17-1.368 4.417-1.458 6.656-.176.363.21.773.637.827 1.01.058.407-.162 1.079-.473 1.253-.396.222-1.105.248-1.505.032-1.749-.944-3.296-.653-4.735.572a9.176 9.176 0 00-1.427 1.514c-1.883 2.543-2.8 5.418-2.914 8.646h14.108c-.043-.654.007-1.277-.142-1.85a59.046 59.046 0 00-1.292-4.322c-.339-.987-.222-1.68.51-2.027.756-.36 1.434-.009 1.896.977.09.192.195.379.346.67.209-.424.362-.73.511-1.034.934-1.899 2.098-3.617 3.816-4.898 2.572-1.918 5.47-1.925 8.041-.014 1.744 1.294 2.926 3.036 3.861 4.967.144.299.306.59.506.974.205-.428.35-.74.502-1.049.914-1.839 2.044-3.512 3.685-4.786 2.558-1.985 5.497-2.048 8.11-.146 1.806 1.315 3.005 3.118 3.97 5.1.136.279.264.563.332.705.975-1.456 1.865-2.99 2.959-4.359 1.244-1.56 2.89-2.663 4.94-2.769 1.121-.058 2.261.24 3.391.379V8.21h-7.082c0 1.003.014 1.874-.003 2.745-.035 1.713-1.15 2.825-2.85 2.844-1.244.014-2.49.009-3.736.002-1.9-.01-2.964-1.065-2.982-2.954-.007-.862-.002-1.724-.002-2.646-.617 0-1.11.042-1.595-.01-.727-.078-1.161-.511-1.175-1.265-.014-.759.424-1.178 1.135-1.312.252-.047.52-.021.78-.021 5.648 0 11.298-.002 16.945 0 2.208 0 3.228 1.031 3.228 3.26.002 6.106-.001 12.213.01 18.318 0 .332.029.719.196.984.89 1.417 1.827 2.804 2.757 4.216zm-32.238 6.794h3.86c1.014 0 2.03-.017 3.043.009.89.022 1.451.539 1.465 1.28.014.742-.548 1.269-1.424 1.32-.318.019-.638.007-.956.007H4.716c0 .2-.023.29.004.362.96 2.583 1.913 5.17 2.916 7.737.09.228.498.462.762.468 1.766.041 3.534.003 5.3.033.499.008.723-.187.876-.632.311-.906.643-1.804 1-2.692.695-1.728 2.145-2.736 3.866-2.726 1.727.01 3.153 1.028 3.84 2.764.33.836.658 1.675.935 2.532.177.546.44.776 1.051.757 1.68-.049 3.36-.036 5.04-.005.542.01.836-.141 1.006-.69.277-.884.63-1.746.974-2.608.698-1.746 2.114-2.748 3.847-2.75 1.731-.001 3.158 1.004 3.852 2.743.365.916.662 1.86 1.064 2.76.107.241.48.505.737.51 1.795.044 3.593.047 5.387-.002.274-.007.665-.302.784-.562.415-.924.705-1.905 1.1-2.838.7-1.66 1.978-2.548 3.772-2.6 1.704-.05 3.148.96 3.835 2.631.374.913.72 1.837 1.038 2.77.153.45.37.646.869.638 1.766-.028 3.534-.03 5.3 0 .504.008.707-.197.859-.646.314-.935.657-1.862 1.037-2.77.696-1.662 1.965-2.559 3.759-2.623 1.698-.061 3.153.94 3.847 2.61.377.91.726 1.836 1.036 2.77.165.498.427.667.945.659 1.709-.03 3.42-.035 5.127.001.561.013.817-.19 1.003-.705.867-2.4 1.773-4.789 2.657-7.183.075-.2.112-.417.19-.715h-7.913c-3.157 0-6.315.01-9.472-.01-.927-.008-1.429-.502-1.436-1.285-.005-.787.497-1.267 1.412-1.314.422-.023.848-.003 1.403-.003-.348-4.2-1.45-7.906-4.805-10.528-1.739-1.36-3.58-1.15-5.321.556-2.726 2.675-3.854 6.05-4.045 9.97zm-2.618-.058c-.018-2.271-.537-4.306-1.448-6.248-.762-1.62-1.712-3.104-3.181-4.175-1.622-1.183-3.25-1.251-4.798.007-3.266 2.65-4.401 6.304-4.695 10.416h14.122zm-33.414.013c-.183-3.78-1.273-7.102-3.894-9.773-2.063-2.103-4.288-2.059-6.386.026-1.713 1.701-2.738 3.805-3.319 6.12-.292 1.163-.422 2.367-.64 3.627h14.239zm52.737-.028h14.265c-.228-1.291-.355-2.506-.664-3.67-.652-2.45-1.739-4.685-3.679-6.39-1.782-1.57-3.685-1.688-5.415-.202-3.1 2.661-4.236 6.233-4.507 10.262zM17.96 11.115h4.27v-2.85h-4.27v2.85zm53.06.022V8.271h-4.23v2.866h4.23z" fill="#fff"/></svg>