<svg width="80" height="81" fill="none" xmlns="http://www.w3.org/2000/svg"><path d="M36.404 0h7.188c1.586.65 2.418 1.8 2.357 3.545-.005.127.037.257.072.382.448 1.634 1.493 2.648 3.164 2.962 1.744.328 3.103-.304 4.1-1.753 1.17-1.698 2.731-2.066 4.522-1.042a337.73 337.73 0 014.52 2.616c1.613.951 2.09 2.543 1.286 4.212-.857 1.783-.642 3.5.6 4.754 1.336 1.348 3.015 1.593 4.868.71 1.644-.784 3.244-.334 4.173 1.223.96 1.606 1.946 3.203 2.775 4.876.322.649.394 1.508.322 2.246-.089.92-.78 1.526-1.554 2.032-1.47.96-2.082 2.616-1.657 4.284.414 1.622 1.733 2.928 3.316 2.98 1.744.056 2.89.8 3.544 2.382v7.188c-.653 1.583-1.805 2.328-3.547 2.4-.69.028-1.463.44-2.016.897-2.076 1.716-1.86 4.8.378 6.361 1.782 1.242 2.122 2.757 1.04 4.644-.868 1.511-1.72 3.032-2.618 4.524-.912 1.519-2.506 1.956-4.12 1.22-.49-.223-1.014-.44-1.543-.506-1.585-.197-2.871.41-3.773 1.71-.89 1.282-.94 2.659-.264 4.068.919 1.916.453 3.422-1.386 4.49-1.485.862-2.98 1.704-4.458 2.575-.783.46-1.61.606-2.477.392-.908-.225-1.501-.853-2.012-1.62-.953-1.432-2.633-2.023-4.32-1.596-1.54.39-2.862 1.756-2.909 3.3-.051 1.744-.797 2.895-2.381 3.549h-7.188c-1.348-.596-2.267-1.5-2.337-3.082-.085-1.86-1.185-3.265-2.879-3.748-1.745-.497-3.4.13-4.481 1.701-1.164 1.691-2.738 2.052-4.532 1.027-1.421-.813-2.839-1.638-4.256-2.458-1.934-1.12-2.388-2.569-1.422-4.59.422-.884.527-1.8.286-2.737-.644-2.508-3.303-3.703-5.685-2.575-1.914.906-3.434.444-4.497-1.383-.862-1.484-1.753-2.953-2.551-4.472a4.306 4.306 0 01-.485-1.845c-.025-1.164.65-1.961 1.613-2.586 1.49-.968 2.102-2.646 1.667-4.361-.389-1.538-1.74-2.857-3.298-2.913C1.806 45.919.655 45.18 0 43.597v-7.188c.652-1.584 1.8-2.398 3.549-2.373.395.006.817-.172 1.184-.35 2.824-1.364 3.025-5.158.381-6.982-1.662-1.145-2.037-2.72-1.044-4.464a361.49 361.49 0 012.618-4.525c.98-1.664 2.528-2.122 4.27-1.32.466.213.967.415 1.47.474 1.587.191 2.873-.414 3.773-1.717.886-1.283.937-2.66.259-4.069-.922-1.915-.456-3.412 1.392-4.484 1.485-.861 2.98-1.707 4.46-2.575.808-.475 1.656-.614 2.551-.37.877.241 1.44.862 1.935 1.6.97 1.446 2.608 2.024 4.317 1.595 1.538-.388 2.863-1.752 2.908-3.3.052-1.747.802-2.893 2.381-3.549zm30.864 19.485c.113.178.286.408.411.66.281.568.156 1.08-.336 1.457-.498.385-1.025.338-1.495-.073-.174-.152-.299-.358-.444-.54-8.119-10.19-18.652-14.451-31.467-12.154-19.03 3.41-30.402 23.846-23.612 41.989 8.255 22.058 36.696 27.793 52.763 10.58 6.759-7.24 9.398-15.921 8.273-25.735-.388-3.385-1.416-6.6-2.904-9.67-.37-.762-.157-1.443.475-1.737.633-.294 1.29-.019 1.658.723.299.604.567 1.22.796 1.715.77-.685 1.526-1.385 2.317-2.047.381-.32.506-.654.26-1.085-.92-1.603-1.821-3.216-2.796-4.781-.14-.224-.69-.363-.981-.286-.968.26-1.904.633-2.918.984zM35.751 73.637c.23 1.09.47 2.168.68 3.252.094.48.338.753.833.755 1.823.004 3.645.026 5.467-.025.274-.008.705-.332.774-.586.304-1.127.505-2.282.736-3.394-1.34.069-2.79.203-4.244.203-1.453-.002-2.905-.136-4.246-.205zM19.46 67.16c-.314.96-.649 2.008-.999 3.051-.16.472-.023.802.4 1.046 1.553.89 3.09 1.81 4.666 2.655.253.136.81.073 1.01-.12.824-.8 1.565-1.688 2.234-2.427L19.46 67.16zm33.766 4.203c.66.73 1.405 1.611 2.222 2.419.196.192.718.298.943.177a102.502 102.502 0 004.85-2.804c.206-.126.367-.601.3-.848-.3-1.106-.69-2.188-1.005-3.149-2.401 1.383-4.93 2.836-7.31 4.205zM8.583 53.318c-.733.65-1.55 1.386-2.378 2.105-.397.343-.35.707-.117 1.109.884 1.527 1.769 3.053 2.645 4.586.31.54.706.594 1.244.333a8.318 8.318 0 011.452-.54c.503-.135 1.03-.185 1.439-.254l-4.285-7.34zm58.612 7.222c.953.316 1.986.706 3.048.978.282.072.813-.116.958-.353a85.623 85.623 0 002.72-4.72c.13-.246.043-.797-.157-1-.766-.784-1.619-1.48-2.35-2.132a11884.2 11884.2 0 01-4.22 7.227zm6.683-16.374c.948-.19 2.003-.405 3.06-.608.489-.094.706-.388.704-.872v-5.377c0-.486-.227-.77-.714-.864-1.05-.201-2.099-.419-3.05-.61v8.33zM6.119 35.833c-.945.193-1.945.418-2.955.596-.515.091-.806.326-.806.861-.002 1.82-.025 3.638.026 5.454.008.27.335.698.59.766 1.073.284 2.175.46 3.145.651v-8.328zm6.47-16.396c-.882-.307-1.83-.627-2.77-.966-.464-.167-.81-.064-1.058.364-.906 1.575-1.815 3.147-2.719 4.724-.245.428-.143.764.241 1.084.788.66 1.545 1.357 2.213 1.947 1.328-2.322 2.737-4.785 4.094-7.153zM35.906 5.96h8.189c-.17-.913-.311-1.932-.577-2.916-.075-.278-.508-.645-.787-.655-1.816-.06-3.635-.031-5.452-.03-.492 0-.758.254-.842.738-.174.984-.364 1.967-.532 2.863zm24.67 6.619c.3-.877.602-1.807.937-2.725.167-.458.115-.82-.32-1.072-1.576-.911-3.144-1.835-4.741-2.707-.236-.128-.743-.126-.902.036-.767.777-1.456 1.628-2.072 2.336l7.097 4.132zM26.5 8.44c-.587-.677-1.21-1.466-1.918-2.17-.208-.208-.75-.344-.981-.22a91.516 91.516 0 00-4.788 2.759c-.225.139-.417.639-.347.898.27 1.008.65 1.986.95 2.86L26.5 8.44z" fill="#fff"/><path d="M17.605 26.135c2.243-.08 4.347-.251 6.45-.212 6.635.126 12.621 2.355 18.194 5.831 2.051 1.28 4.032 2.686 6.151 3.841 5.468 2.98 11.1 2.89 16.793.631.556-.22.746-.465.625-1.14-1.898-10.655-11.044-19.504-21.746-21.04-5.324-.764-10.42-.088-15.294 2.2-.117.055-.236.11-.357.16-.73.295-1.38.095-1.667-.508-.286-.607-.051-1.305.649-1.613 1.283-.564 2.567-1.15 3.898-1.575C47.84 7.427 65.213 18.127 68.28 35.212c2.513 14.002-5.906 25.93-16.753 30.869-17.103 7.787-36.144-3.133-39.557-20.534-2.2-11.22 1.458-20.612 10.232-27.967.33-.276.847-.515 1.242-.468.34.04.747.459.91.809.242.524-.072.966-.49 1.36-1.398 1.318-2.815 2.625-4.13 4.025-.788.843-1.403 1.853-2.128 2.83zM62.363 53.78c-.246 0-.375-.016-.5.001-6.51.916-12.749-.047-18.755-2.681-3.235-1.419-6.185-3.316-9.074-5.32-.469-.324-.767-.815-.476-1.337.198-.356.626-.698 1.015-.798.302-.078.731.18 1.053.373 2.32 1.391 4.549 2.947 6.948 4.179 6.483 3.33 13.36 4.297 20.546 3.026.514-.09.828-.295.992-.81.464-1.459 1.05-2.884 1.434-4.363.642-2.475.833-5.008.663-7.626-.23.07-.402.108-.564.17-7.035 2.663-13.768 2.123-20.17-1.906-2.267-1.426-4.48-2.951-6.814-4.26-6.79-3.804-14.048-4.984-21.72-3.656-.569.099-.934.305-1.112.882-.447 1.437-1.016 2.842-1.386 4.298-.63 2.478-.824 5.011-.65 7.655l.778-.28c5.081-1.83 10.19-2.209 15.343-.295.847.316 1.195.932.94 1.6-.26.683-.91.932-1.753.62-4.706-1.737-9.352-1.338-13.957.391-1.15.432-1.178.461-.876 1.678 2.708 10.921 9.456 18.054 20.474 20.334 10.864 2.247 19.8-1.551 26.582-10.338.36-.467.663-.978 1.04-1.537z" fill="#fff"/></svg>