<svg width="83" height="52" fill="none" xmlns="http://www.w3.org/2000/svg"><path d="M82.998 47.235c-.096.255-.197.509-.286.767-.752 2.222-2.794 3.746-5.288 3.94-.403.03-.808.048-1.213.048-23.145.002-46.29-.004-69.434.01-2.47.002-4.571-.678-5.823-2.734-.535-.878-.905-1.979-.91-2.981-.058-13.533-.047-27.066-.032-40.6C.016 2.524 2.565.124 5.967.006 6.13-.002 6.292 0 6.452 0c23.362 0 46.722-.003 70.084.002 2.85 0 5.002 1.252 5.985 3.474.182.413.32.842.479 1.263-.002 14.163-.002 28.33-.002 42.495zM41.52 2.26c-11.696 0-23.392-.002-35.09.002-2.515 0-3.996 1.37-3.996 3.683-.002 13.36-.002 26.719.002 40.079 0 .324.007.656.078.972.405 1.778 1.854 2.732 4.158 2.732 23.204.002 46.408.002 69.612 0 2.889 0 4.28-1.298 4.28-3.966 0-13.184-.03-26.37.031-39.552.011-2.186-1.42-3.996-4.311-3.978-11.586.069-23.176.028-34.764.028z" fill="#fff"/><path d="M63.547 25.985v19.808c0 1.357-.342 1.675-1.823 1.677-2.512.004-5.022.006-7.534 0-1.384-.004-1.746-.332-1.746-1.596-.002-13.255-.002-26.51 0-39.765 0-1.265.336-1.58 1.661-1.583 2.592-.004 5.184-.004 7.777 0 1.308.002 1.663.342 1.663 1.579.002 6.625.002 13.253.002 19.88zM54.95 6.811V45.16h6.104V6.811H54.95zM19.617 25.99V6.257c0-1.47.29-1.736 1.901-1.736 2.404 0 4.808-.004 7.21.002 1.296.002 1.664.326 1.667 1.504.004 13.306.004 26.61 0 39.916 0 1.17-.386 1.52-1.661 1.526-2.484.01-4.968.01-7.454 0-1.3-.004-1.663-.364-1.663-1.594V25.989zm2.492-19.18v38.343h5.782V6.809H22.11zm23.039 19.147v19.504c0 1.828-.197 2.007-2.2 2.007-1.106 0-2.213.004-3.322-.002-1.431-.006-1.773-.32-1.773-1.649-.002-8.056-.002-16.115-.002-24.172 0-5.146-.003-10.292 0-15.438 0-1.403.303-1.685 1.793-1.687 1.215-.002 2.43-.002 3.644 0 1.564.002 1.856.268 1.856 1.705.007 6.58.004 13.155.004 19.732zM40.285 6.829v1.146c0 11.973-.002 23.945.004 35.92 0 1.516-.227 1.254 1.41 1.332.818.04 1.037-.179 1.035-.952-.028-12.174-.02-24.348-.02-36.522V6.83h-2.43zM12.16 26.001V45.81c0 1.323-.348 1.653-1.76 1.66-1.323.005-2.646.011-3.97-.005-1.156-.014-1.56-.398-1.563-1.461-.002-13.356-.002-26.712 0-40.068 0-1.022.41-1.405 1.514-1.413 1.377-.01 2.754-.008 4.132-.002 1.269.004 1.646.35 1.646 1.52.002 6.656.002 13.31.002 19.961zM7.337 6.805v38.356h2.332V6.805H7.336zM70.84 25.98V6.17c0-1.333.332-1.645 1.752-1.649 1.323-.002 2.647-.006 3.97.002 1.165.008 1.57.377 1.572 1.438.002 13.355.002 26.711 0 40.067 0 1.02-.411 1.42-1.507 1.435-1.403.02-2.809.016-4.212.002-1.19-.012-1.57-.394-1.57-1.528-.004-6.654-.004-13.307-.004-19.959zm4.795 19.185V6.833h-2.328v38.332h2.328zM32.989 23.684c0-5.798 0-11.594.002-17.392 0-.3-.006-.608.059-.898.125-.568.545-.856 1.158-.854.615.002 1.027.294 1.154.862.061.266.057.548.057.823.002 11.671.002 23.342 0 35.01 0 .276.002.558-.059.824-.13.565-.545.857-1.16.855-.613-.002-1.031-.294-1.155-.861-.063-.292-.056-.598-.056-.898V23.684zm17.023.04v17.241c0 .226.009.453-.004.679-.043.831-.505 1.294-1.254 1.274-.712-.02-1.13-.47-1.171-1.272-.011-.201-.005-.4-.005-.602 0-11.544 0-23.09.002-34.633 0-.327-.01-.657.05-.975.106-.57.51-.88 1.124-.894.652-.016 1.085.29 1.206.894.059.292.05.6.05.9.002 5.794.002 11.59.002 17.388zm-35.419.004V6.183c0-.25-.028-.511.032-.749.15-.582.561-.91 1.217-.896.62.014 1.01.343 1.143.89.066.264.035.55.035.826.002 11.646.002 23.293 0 34.939 0 1.214-.39 1.75-1.254 1.727-.825-.022-1.178-.535-1.178-1.719.005-5.826.005-11.648.005-17.473zm51.384.006V6.264c0-.252-.029-.508.017-.751.12-.624.53-.987 1.226-.975.656.01 1.043.369 1.165.955.045.219.021.45.021.676v35.09c0 .202.013.403-.01.602-.074.647-.579 1.086-1.235 1.053-.693-.034-1.083-.402-1.174-1.032-.032-.222-.012-.451-.012-.677.002-5.824.002-11.646.002-17.47z" fill="#fff"/></svg>