<svg width="69" height="69" fill="none" xmlns="http://www.w3.org/2000/svg"><path d="M34.5.002c.762.49 1.61.887 2.273 1.488 3.79 3.437 7.525 6.935 11.302 10.387.963.88 1.405 1.904 1.39 3.207-.036 2.963-.009 5.924-.012 8.887-.004 2.258-1.387 3.633-3.66 3.638-2.02.004-4.04-.01-6.059.007a4.246 4.246 0 01-2.577-.815 849.383 849.383 0 00-9.65-6.747c-.43-.295-1.019-.46-1.544-.485-1.365-.067-2.736-.018-4.105-.024-1.696-.007-2.87-.846-3.378-2.447a3497.81 3497.81 0 01-3.962-12.561c-.65-2.074.228-3.745 2.302-4.43.06-.019.111-.067.167-.103C22.82.002 28.66.002 34.5.002zm-8.752 2.296c-2.627 0-5.254-.005-7.879.002-1.051.003-1.472.571-1.157 1.574 1.303 4.147 2.616 8.29 3.917 12.439.201.643.59.956 1.281.945 1.256-.021 2.515.04 3.771-.018 1.274-.057 2.349.318 3.382 1.058 3.1 2.223 6.231 4.4 9.374 6.562.377.26.9.422 1.36.433 1.975.047 3.951.024 5.926.02 1.107-.002 1.434-.336 1.434-1.459.001-2.918-.017-5.836.009-8.754.005-.666-.221-1.135-.707-1.58-3.873-3.548-7.733-7.11-11.585-10.681-.406-.376-.825-.552-1.382-.548-2.58.018-5.162.007-7.744.007zm18.32 66.7c-2.025-.672-2.823-2.116-2.686-4.188.052-.805.009-1.617.009-2.426v-2.896c.002-.99.336-1.838 1.042-2.543 2.67-2.664 5.329-5.341 8.005-8 1.475-1.467 3.437-1.478 4.908-.015 4.205 4.181 8.406 8.364 12.569 12.585.481.488.727 1.209 1.081 1.823v2.965c-.416 1.38-1.31 2.284-2.695 2.695H44.068zm11.118-2.296h9.157c2.375 0 2.4 0 2.336-2.406-.013-.44-.221-.983-.527-1.294-4.086-4.132-8.204-8.234-12.317-12.34-.702-.703-1.171-.695-1.883.014-2.573 2.568-5.137 5.146-7.719 7.705-.4.397-.555.828-.55 1.38.018 1.818.006 3.635.008 5.453.001 1.17.314 1.488 1.467 1.488 3.343.002 6.684 0 10.028 0zM.002 57.948c.345-1.123 1.108-1.883 2.04-2.568 3.144-2.31 6.26-4.662 9.37-7.018 1.004-.762 2.073-.988 3.29-.666 1.451.382 2.908.742 4.367 1.092 1.308.313 2.169 1.092 2.627 2.356a245.847 245.847 0 001.648 4.405c.46 1.2.34 2.318-.378 3.389a1132.91 1132.91 0 00-5.59 8.4c-.56.853-1.341 1.351-2.278 1.662H2.701C1.32 68.583.417 67.69.005 66.305c-.003-2.787-.003-5.572-.003-8.357zm8.906 8.754c1.774 0 3.547-.01 5.319.005.548.006.932-.203 1.234-.657a1726.05 1726.05 0 015.558-8.345c.302-.45.356-.885.158-1.392a184.924 184.924 0 01-1.626-4.343c-.196-.542-.543-.839-1.093-.97-1.459-.35-2.905-.762-4.375-1.064-.384-.079-.923.025-1.236.257-3.324 2.447-6.614 4.941-9.922 7.408-.436.325-.638.706-.634 1.25.014 2.178.002 4.354.007 6.532.002.972.36 1.317 1.358 1.319 1.752.004 3.502 0 5.252 0zM.002 24.528c.41-1.202 1.09-2.158 2.372-2.537 1.91-.566 3.757.566 4.224 2.589.535 2.314 1.062 4.632 1.588 6.95.882 3.892 1.761 7.784 2.643 11.675.349 1.537-.08 2.787-1.351 3.736-1.33.993-2.65 2.002-3.989 2.986-2.088 1.536-4.533.751-5.38-1.712-.028-.083-.073-.16-.109-.24.002-7.815.002-15.631.002-23.447zM2.298 36.23c0 3.612.004 7.225-.004 10.837-.001.526.083 1.002.604 1.247.487.228.904.025 1.303-.279 1.249-.95 2.494-1.908 3.771-2.819.626-.447.755-.96.586-1.684-1.03-4.452-2.029-8.912-3.04-13.368-.386-1.703-.767-3.41-1.18-5.106-.22-.904-1.18-1.23-1.716-.577-.216.26-.306.694-.31 1.05-.023 3.564-.014 7.133-.014 10.7zm66.7 15.789c-.02.012-.052.02-.056.035-.582 2.525-3.877 3.596-6.056 1.21-2.24-2.451-4.66-4.738-7.028-7.072-1.135-1.12-1.491-2.368-1.033-3.916.98-3.31 1.901-6.637 2.85-9.956.487-1.703 1.52-2.546 3.275-2.691 1.186-.099 2.374-.178 3.556-.304 2.528-.266 3.525.306 4.492 2.615v20.079zM66.702 41.97c0-3.008.002-6.017 0-9.025-.002-1.123-.404-1.48-1.54-1.38-1.319.117-2.636.27-3.958.336-.787.04-1.156.419-1.357 1.135a887.937 887.937 0 01-2.805 9.829c-.2.684-.082 1.186.43 1.69a969.672 969.672 0 017.19 7.195c.405.408.825.733 1.418.478.563-.24.63-.748.627-1.297-.01-2.989-.005-5.975-.005-8.961zm2.296-17.712c-.356.584-.602 1.296-1.096 1.716-.532.453-1.28.832-1.964.893-3.484.311-6.975.566-10.468.723-2.366.104-3.72-1.328-3.72-3.687-.003-2.559-.005-5.118 0-7.676.003-1.79.869-2.954 2.597-3.47 3.393-1.01 6.787-2.014 10.183-3.01 2.066-.605 3.518.222 4.466 2.518.002 3.998.002 7.995.002 11.993zm-2.296-6.03c0-1.683.004-3.369-.002-5.052-.004-1.109-.535-1.508-1.6-1.195-3.334.977-6.665 1.962-9.996 2.947-.886.262-1.059.501-1.059 1.45v7.341c0 1.305.286 1.653 1.57 1.58 3.337-.19 6.672-.433 10.007-.681.766-.058 1.076-.464 1.08-1.272.005-1.706 0-3.413 0-5.118zM8.896.002c1.561.494 2.318 1.628 2.774 3.157 1.168 3.902 2.444 7.773 3.67 11.66.85 2.7-.628 4.726-3.447 4.728-2.602.002-5.204 0-7.805 0-2.385 0-3.177-.524-4.088-2.7V2.697C.411 1.312 1.31.413 2.695.002h6.2zM2.298 9.704c0 2.086-.004 4.174.002 6.26.002.913.361 1.283 1.25 1.285 2.85.006 5.7.01 8.548-.002.961-.003 1.398-.587 1.112-1.502-1.312-4.188-2.64-8.373-3.957-12.56-.195-.62-.596-.9-1.25-.892-1.46.016-2.916.001-4.375.005-.98.004-1.326.354-1.328 1.348-.006 2.02-.002 4.039-.002 6.058zm66.7-5.524c-.48 1.6-1.62 2.387-3.19 2.826-4.249 1.19-8.478 2.452-12.706 3.715-1.495.446-2.76.19-3.894-.909-1.338-1.295-2.691-2.58-4.105-3.79C42.704 3.972 43.85.589 46.389.08c.04-.007.07-.052.106-.079h19.81C67.69.411 68.588 1.31 69 2.695c-.002.496-.002.99-.002 1.484zM56.401 2.297c-2.986 0-5.973.005-8.959-.004-.551-.001-1.045.078-1.283.65-.237.574.06.975.47 1.35a332.002 332.002 0 014.198 3.892c.46.435.926.537 1.533.356 4.425-1.317 8.856-2.613 13.285-3.92.83-.245 1.152-.683 1.048-1.388-.095-.648-.516-.932-1.4-.934-2.965-.004-5.927-.002-8.892-.002zM24.663 68.998c-.209-.079-.417-.154-.626-.235-1.883-.739-2.727-2.936-1.698-4.675.856-1.447 1.817-2.832 2.794-4.201.61-.856 1.537-1.235 2.575-1.242 2.694-.018 5.389-.032 8.082.004 1.905.025 3.274 1.462 3.299 3.369.013.965.004 1.93.004 2.896 0 2.388-.532 3.19-2.706 4.082-3.908.002-7.816.002-11.724.002zm5.812-2.296c1.704 0 3.409.007 5.112-.004.823-.005 1.197-.377 1.204-1.19a213 213 0 00.002-3.296c-.006-.9-.363-1.269-1.267-1.272-2.534-.01-5.067.001-7.602-.008-.546-.001-.93.218-1.226.676a178.563 178.563 0 01-2.163 3.243c-.282.415-.52.908-.167 1.292.275.3.782.518 1.195.534 1.637.06 3.275.025 4.912.025zm15.354-36.795c1.863 0 3.728-.009 5.591.002 2.422.015 3.948 1.995 3.303 4.334a365.959 365.959 0 01-2.598 9.049 4.306 4.306 0 01-1.025 1.7c-3.386 3.44-6.815 6.842-10.225 10.259-.737.739-1.605 1.1-2.656 1.094-3.189-.016-6.378-.002-9.568-.007-1.735-.004-2.822-.755-3.444-2.375-.442-1.152-.866-2.31-1.304-3.46-.51-1.341-.291-2.543.62-3.647a7093.934 7093.934 0 0012.802-15.549c.781-.952 1.739-1.426 2.979-1.407 1.841.029 3.683.007 5.525.007zM33.357 54.045c1.55 0 3.1-.016 4.648.01.557.008.982-.155 1.377-.552 3.326-3.344 6.668-6.67 9.99-10.02.271-.272.501-.646.61-1.014.84-2.86 1.648-5.73 2.46-8.598.333-1.171-.037-1.664-1.245-1.666-3.593-.001-7.187.01-10.778-.01-.597-.004-1.012.197-1.386.652-4.23 5.155-8.47 10.303-12.714 15.445-.366.444-.465.89-.255 1.43.446 1.15.882 2.304 1.303 3.463.22.61.623.875 1.275.868 1.57-.022 3.143-.008 4.715-.008z" fill="#fff"/><path d="M18.796 21.843c1.953 0 3.905.013 5.858-.005.93-.009 1.759.228 2.52.77 1.995 1.415 4.013 2.797 6.004 4.213 1.798 1.279 2.105 3.33.717 5.032-3.664 4.483-7.353 8.943-11.036 13.408-.949 1.15-2.162 1.554-3.61 1.204-1.197-.29-2.39-.599-3.583-.908-1.337-.346-2.194-1.187-2.501-2.537-1.303-5.7-2.612-11.4-3.874-17.11-.483-2.189 1.062-4.041 3.312-4.063 2.064-.02 4.129-.004 6.193-.004zm.002 2.297c-1.953 0-3.904-.002-5.858 0-1.214.002-1.606.463-1.345 1.62 1.252 5.53 2.515 11.056 3.764 16.586.13.57.444.903 1.006 1.037 1.11.266 2.225.527 3.326.829.629.172 1.073-.011 1.473-.498 3.617-4.404 7.245-8.8 10.864-13.203.65-.79.573-1.293-.282-1.894-1.946-1.367-3.885-2.742-5.854-4.075a2.422 2.422 0 00-1.24-.384c-1.948-.04-3.901-.018-5.854-.018z" fill="#fff"/></svg>