<svg width="81" height="81" fill="none" xmlns="http://www.w3.org/2000/svg"><path d="M.015 41.999c0-5.255.011-10.51-.013-15.765C0 25.52.23 25.087.86 24.723A22910.975 22910.975 0 0043.005.265c.631-.367 1.119-.345 1.735.015 11.682 6.84 23.37 13.665 35.064 20.48.816.476 1.2 1.022 1.196 2.06a4104.55 4104.55 0 00-.013 30.792c.002.825-.274 1.3-.981 1.696a366.242 366.242 0 00-7.524 4.36c-.62.37-1.116.364-1.735-.006-1.593-.96-3.221-1.859-4.838-2.776-.854-.485-2.289.331-2.293 1.31-.009 1.915-.022 3.833.009 5.748.009.621-.191 1.019-.735 1.33a540.942 540.942 0 00-7.875 4.57c-.588.35-1.073.264-1.604-.046-1.632-.948-3.269-1.884-4.9-2.832-.745-.435-2.191.355-2.198 1.226-.01 1.944-.024 3.888.007 5.83.009.623-.206 1.027-.742 1.334a1311.493 1311.493 0 00-7.949 4.608c-.48.28-.89.239-1.371-.042A14445.69 14445.69 0 00.998 59.451c-.741-.43-1.002-.924-.998-1.766.03-5.231.015-10.458.015-15.686zm61.41-10.51c-.365-.217-.595-.36-.832-.498a33418.22 33418.22 0 01-9.648-5.601c-7.78-4.518-15.558-9.038-23.345-13.543-.268-.153-.72-.302-.935-.182-2.411 1.341-4.792 2.737-7.247 4.156.32.202.568.367.825.516 3.59 2.095 7.179 4.19 10.77 6.284 7.37 4.296 14.74 8.594 22.12 12.877.245.143.664.272.868.16 2.44-1.338 4.856-2.718 7.423-4.169zM28.71 10.415c.143.127.195.19.263.23a16924.174 16924.174 0 0033.695 19.536c.25.145.744.095 1.016-.056 2.124-1.185 4.224-2.416 6.328-3.636.18-.105.349-.228.608-.397-.325-.202-.569-.362-.817-.507-4.579-2.675-9.158-5.35-13.74-8.022-6.351-3.706-12.699-7.414-19.062-11.1-.276-.16-.76-.267-1.007-.136-2.422 1.317-4.816 2.692-7.284 4.088zM10.165 21.199c.163.116.224.169.294.21 11.23 6.52 22.46 13.04 33.7 19.537.237.138.69.13.932-.005 2.197-1.226 4.367-2.494 6.543-3.756.151-.088.285-.21.467-.347-.239-.149-.419-.27-.607-.38L32.128 25.226c-4.61-2.675-9.217-5.356-13.836-8.02-.248-.142-.667-.28-.864-.17-2.407 1.344-4.79 2.735-7.263 4.164zm32.739 21.063c-.327-.204-.551-.353-.786-.489-3.405-1.98-6.81-3.956-10.216-5.933-7.593-4.406-15.185-8.814-22.785-13.206-.275-.158-.724-.332-.942-.215-1.845.994-3.655 2.053-5.606 3.166.387.226.659.388.933.546l16.175 9.395c5.582 3.241 11.16 6.488 16.754 9.707.274.158.757.246 1.005.112 1.806-.968 3.574-2.003 5.468-3.083zm35.362-20.537l-7.344-4.265C62.106 12.343 53.286 7.231 44.48 2.097c-.518-.3-.886-.318-1.4.004-1.389.87-2.821 1.672-4.232 2.506-.222.132-.428.29-.709.478.318.2.542.347.775.483 5.382 3.14 10.766 6.277 16.148 9.417 5.571 3.25 11.14 6.506 16.721 9.735.273.156.753.233 1.001.1 1.804-.97 3.572-2.006 5.483-3.095zm.614 12.018c-.313.164-.55.28-.776.412-13.248 7.673-26.492 15.35-39.746 23.014-.455.263-.652.54-.646 1.086.033 2.462.014 4.926.018 7.388 0 .226.042.454.079.827 2.188-1.275 4.27-2.466 6.319-3.708.202-.123.305-.549.31-.836.026-1.832.039-3.666 0-5.499-.016-.697.252-1.099.844-1.432 2.69-1.52 5.356-3.079 8.037-4.614 1.117-.641 1.714-.299 1.716.971.004 1.74 0 3.478 0 5.36 2.251-1.287 4.382-2.496 6.492-3.743.163-.096.228-.467.23-.71.018-1.916-.023-3.831.04-5.745.013-.381.299-.912.619-1.101 2.828-1.659 5.694-3.26 8.55-4.87.82-.464 1.376-.146 1.407.813.024.766.006 1.532.006 2.3v3.346c2.276-1.32 4.378-2.526 6.458-3.772.164-.099.239-.47.236-.713-.024-2.655-.07-5.308-.116-7.963-.002-.243-.044-.478-.077-.811zm.226 11.352c-.724.412-1.27.722-1.814 1.033-12.954 7.414-25.906 14.83-38.869 22.227-.434.248-.535.528-.533.976.016 2.49.007 4.98.009 7.47 0 .207.033.411.06.725 2.187-1.257 4.295-2.453 6.38-3.693.184-.11.27-.507.272-.772.022-1.887-.016-3.776.037-5.663.01-.375.226-.908.518-1.084 2.86-1.711 5.755-3.37 8.651-5.024.566-.323 1.194-.101 1.343.434.064.23.042.49.044.733.002 1.735.002 3.47.002 5.279.215-.081.32-.105.41-.156 1.968-1.128 3.945-2.242 5.892-3.407.23-.139.405-.556.412-.847.037-1.916.037-3.831.009-5.747-.009-.618.186-1.022.73-1.331 2.778-1.585 5.54-3.2 8.314-4.79.83-.476 1.365-.156 1.404.823.022.546.005 1.094.005 1.64v3.959c2.235-1.284 4.32-2.468 6.382-3.69.193-.115.323-.488.327-.742.03-1.532.015-3.065.015-4.597v-3.756zm0-21.845c-1.413.806-2.68 1.536-3.958 2.256-12.287 6.94-24.574 13.882-36.872 20.807-.425.239-.561.498-.56.96.018 2.49.007 4.983.012 7.474 0 .206.033.412.061.744 2.19-1.262 4.3-2.46 6.383-3.702.182-.11.263-.511.268-.779.022-1.834.035-3.668 0-5.503-.014-.689.228-1.09.84-1.428 2.73-1.505 5.426-3.074 8.153-4.586.34-.188.902-.355 1.163-.2.272.163.413.725.424 1.117.043 1.74.02 3.483.02 5.255.162-.026.252-.017.315-.054 2.017-1.157 4.04-2.302 6.036-3.496.21-.125.36-.524.364-.798.031-1.861.044-3.724.003-5.584-.016-.707.263-1.095.864-1.416 1.569-.836 3.111-1.72 4.658-2.595 1.213-.687 2.416-1.396 3.627-2.087.935-.533 1.444-.239 1.472.845.013.491.002.985.002 1.479v4.055c2.254-1.293 4.365-2.489 6.449-3.73.182-.108.261-.512.266-.78.021-1.75.01-3.503.01-5.257V23.25zM36.19 56.026v-.972c0-2.354-.027-4.709.017-7.06.013-.67-.224-1.017-.787-1.341-10.984-6.355-21.955-12.728-32.93-19.096-.217-.125-.447-.223-.779-.386 0 2.942-.015 5.729.027 8.516.004.23.335.53.586.675 9.05 5.27 18.11 10.528 27.167 15.785 2.172 1.26 4.347 2.516 6.699 3.879zm-.17 21.864c0-2.718-.037-5.261.023-7.802.02-.85-.257-1.312-.99-1.736C24.17 62.051 13.305 55.72 2.433 49.395c-.195-.114-.41-.197-.724-.344v1.007c0 2.245.04 4.49-.02 6.731-.021.814.233 1.253.948 1.666 8.709 5.04 17.393 10.119 26.084 15.185 2.376 1.387 4.759 2.771 7.3 4.25zM1.785 38.085c-.035.217-.073.344-.073.474-.004 2.628-.021 5.257.022 7.883.005.283.319.667.59.827 10.962 6.339 21.937 12.658 32.912 18.977.272.158.553.303.953.522v-1.042c0-2.273-.029-4.546.015-6.817.013-.735-.191-1.156-.862-1.542-9.238-5.282-18.453-10.598-27.675-15.903-1.935-1.115-3.875-2.225-5.882-3.38zm61.66 3.16l6.234-3.711c-1.465-.867-2.802-1.667-4.149-2.447-.544-.315-2.064.5-2.075 1.137-.029 1.606-.01 3.215-.01 5.02zm6.24 7.227c-1.526-.904-2.922-1.747-4.339-2.552-.382-.217-1.885.726-1.891 1.187-.025 1.628-.01 3.254-.01 5.064 2.125-1.26 4.106-2.433 6.24-3.7zm-17.164-1.01c-1.505-.89-2.859-1.705-4.23-2.492-.153-.088-.423-.09-.588-.018-.904.404-1.654.893-1.417 2.118.116.607.02 1.255.02 1.884v2.199c2.132-1.266 4.1-2.436 6.215-3.69zm.003 10.931c-1.48-.875-2.811-1.672-4.154-2.45-.458-.266-2.027.45-2.04.976-.044 1.672-.018 3.346-.018 5.163 2.128-1.262 4.11-2.44 6.212-3.689zm18.123-4.844l-3.824 2.157 3.824 2.137v-4.294zm-20.982 12.08l3.631 2.138v-4.281c-1.24.73-2.38 1.406-3.631 2.143zm3.684-23.874l-3.678 2.177c1.275.75 2.434 1.433 3.678 2.168v-4.345zM53.3 57.007v-4.292l-3.627 2.146c1.262.748 2.4 1.422 3.627 2.146zM70.63 31.86l-3.634 2.148c1.283.753 2.42 1.422 3.633 2.133V31.86zm.017 10.755c-1.275.753-2.416 1.422-3.653 2.153l3.653 2.15v-4.303z" fill="#fff"/><path d="M4.58 33.887c0-.41-.01-.82.001-1.23.024-.994.665-1.383 1.527-.891 2.091 1.189 4.17 2.4 6.252 3.602 1.373.792 2.733 1.606 4.12 2.372.516.285.76.64.73 1.24-.037.818.012 1.641-.015 2.462-.028.93-.708 1.336-1.511.875a973.63 973.63 0 01-10.567-6.13c-.266-.156-.452-.577-.516-.909-.088-.447-.022-.925-.022-1.39zm1.928-.169c-.281.928.026 1.398.766 1.804 2.51 1.378 4.978 2.835 7.462 4.257.204.116.42.208.653.322.277-.823.08-1.308-.673-1.698-1.45-.753-2.848-1.613-4.268-2.427-1.294-.744-2.59-1.485-3.94-2.258zM33.34 49.402c0 .52.026 1.04-.007 1.558-.044.715-.514 1.002-1.185.748a4.482 4.482 0 01-.656-.331c-3.333-1.927-6.657-3.866-10-5.769-.573-.325-.834-.7-.793-1.364.05-.79-.006-1.585.018-2.377.026-.919.709-1.323 1.51-.864a936.255 936.255 0 0110.553 6.12c.28.166.463.62.542.973.092.417.022.87.022 1.306h-.005zM22.498 42.97c-.283.937.029 1.406.766 1.81 2.486 1.367 4.935 2.804 7.396 4.213.248.142.507.267.762.401.272-.932-.024-1.492-.854-1.803-.302-.112-.57-.32-.853-.483l-7.217-4.138zm10.844 28.11c0 .491.015.985-.005 1.474-.035.856-.53 1.154-1.32.808-.174-.077-.336-.18-.503-.277-3.357-1.94-6.705-3.892-10.073-5.81-.55-.314-.775-.689-.742-1.312.042-.79-.004-1.584.016-2.376.024-.928.689-1.345 1.492-.9 3.53 1.964 7.054 3.94 10.556 5.953.282.162.484.614.555.965.094.476.024.981.024 1.475zm-10.846-6.24c-.28.934.029 1.402.768 1.81 2.537 1.393 5.031 2.86 7.541 4.298.2.114.415.204.602.296.337-.941-.06-1.415-.836-1.79-.933-.45-1.806-1.018-2.706-1.534a1945.522 1945.522 0 00-5.369-3.08zM4.58 55.47c0-.464-.018-.93.004-1.395.037-.842.682-1.257 1.404-.844a964.553 964.553 0 0110.711 6.209c.248.147.459.553.48.851.065.898.047 1.806.016 2.708-.03.923-.72 1.303-1.536.834a1101.638 1101.638 0 01-10.569-6.13c-.248-.148-.434-.536-.489-.841-.083-.45-.022-.926-.022-1.391zm10.65 6.346c.252-.818.07-1.308-.679-1.718-2.534-1.389-5.026-2.856-7.536-4.294-.22-.125-.452-.232-.68-.346-.28.912.039 1.369.783 1.775 2.466 1.345 4.884 2.777 7.322 4.173.254.145.517.27.79.41zm18.107-1.536c0 .547.031 1.097-.006 1.642-.046.684-.496.963-1.137.737a4.015 4.015 0 01-.66-.327c-3.337-1.931-6.666-3.873-10.014-5.786-.568-.325-.838-.724-.816-1.376.028-.847-.014-1.696.013-2.545.028-.935.7-1.327 1.512-.864a876.365 876.365 0 0110.5 6.088c.303.178.503.66.589 1.036.1.443.024.926.024 1.39-.002.005-.002.005-.005.005zm-1.909.04c.187-.81.07-1.301-.693-1.718-2.517-1.367-4.98-2.83-7.466-4.255-.244-.138-.5-.256-.773-.397-.256.876-.01 1.334.72 1.734 2.512 1.375 4.978 2.832 7.466 4.254.224.132.463.24.746.382zm-14.226-9.226c0 .355.002.71 0 1.066-.013 1.194-.667 1.58-1.696.99-2.534-1.46-5.064-2.925-7.594-4.389-.805-.465-1.604-.939-2.414-1.393-.623-.349-.98-.82-.928-1.58.044-.654.007-1.312.01-1.968.004-1.31.61-1.648 1.77-.98 3.102 1.785 6.163 3.648 9.32 5.331 1.297.689 1.85 1.512 1.532 2.923zm-10.753-6.48c-.068 1.31-.069 1.308.906 1.868 1.702.976 3.405 1.955 5.108 2.929.963.55 1.928 1.099 2.913 1.66.253-1.178.253-1.186-.632-1.695-1.63-.937-3.264-1.87-4.895-2.807-1.105-.634-2.21-1.27-3.4-1.955z" fill="#fff"/></svg>