<svg width="76" height="54" fill="none" xmlns="http://www.w3.org/2000/svg"><path d="M64.661.967c8.13 2.607 12.475 11.381 9.453 19.347-.527 1.391-1.443 2.638-2.206 3.934-.123.208-.371.367-.596.49-16.234 8.96-32.444 17.963-48.723 26.84-5.32 2.9-10.717 2.567-15.661-.964C2.075 47.148.067 42.245.937 36.372c.742-5.016 3.573-8.68 8.12-10.958 13.34-6.688 26.691-13.355 40.038-20.028 2.73-1.364 5.498-2.655 8.168-4.124 1.454-.8 2.911-1.017 4.486-.803.974.133 1.94.336 2.912.508zM28.322 46.038c1.828-1.007 3.494-1.927 5.16-2.846C45.55 36.537 57.618 29.885 69.68 23.216c.403-.223.809-.557 1.046-.942.537-.871 1.077-1.769 1.432-2.724 2.637-7.096-1.466-14.844-8.82-16.686-2.02-.505-4.029-.696-5.853.656-.19.142-.426.227-.642.335-13.149 6.582-26.3 13.162-39.45 19.737-.197.1-.43.129-.644.191l.113.2c10.618 1.018 16.691 12.667 11.46 22.055zm-16.594 4.71c6.661 2.048 13.77-1.659 15.81-8.244 2.098-6.773-1.638-13.811-8.447-15.913-6.585-2.033-13.67 1.754-15.724 8.406-2.037 6.593 1.747 13.718 8.36 15.752z" fill="#fff"/><path d="M25.555 41.787c-1.733 5.57-7.645 8.682-13.204 6.948a10.54 10.54 0 01-6.938-13.207c1.716-5.534 7.653-8.612 13.245-6.867 5.48 1.708 8.601 7.648 6.897 13.126zm-7.607-11.144a8.433 8.433 0 00-10.552 5.609c-1.349 4.413 1.178 9.123 5.631 10.492 4.413 1.356 9.172-1.175 10.516-5.591 1.35-4.437-1.163-9.156-5.595-10.51z" fill="#fff"/></svg>