<svg width="64" height="71" fill="none" xmlns="http://www.w3.org/2000/svg"><path d="M41.176 29.8c-1.091-.834-2.113-1.605-3.123-2.387-1.391-1.078-1.67-2.374-.814-3.895.7-1.244 1.749-2.127 3.038-2.705 1.14-.514 2.254-.213 3.209.782.64.667.779.644 1.162-.21.09-.2.174-.406.267-.608.713-1.529 2.197-2.13 3.747-1.481 1.543.648 3.079 1.311 4.598 2.01 1.876.862 2.271 2.965.844 4.452-1.093 1.138-2.215 2.244-3.324 3.368-.17.171-.332.353-.565.6.334.087.585.154.836.217 4.16 1.023 6.94 3.678 8.71 7.464 1.124 2.406 1.886 4.912 1.72 7.624-.045.736-.085 1.489.014 2.213.12.887.24 1.831.63 2.615.849 1.703 1.17 3.423.793 5.288-.377 1.868.018 3.673.544 5.453.409 1.38.723 2.77.413 4.212-.398 1.85-1.609 3.06-3.214 3.925-2.006 1.082-4.203 1.532-6.434 1.787a71.963 71.963 0 01-16.595-.008c-2.181-.255-4.326-.699-6.298-1.736-2.927-1.538-3.982-4.007-3.16-7.233.364-1.425.68-2.87.9-4.32.108-.714.025-1.482-.106-2.201-.308-1.687-.156-3.294.676-4.797.58-1.049.846-2.141.767-3.33-.215-3.25.255-6.376 1.644-9.348 1.807-3.865 4.571-6.606 8.828-7.63.071-.017.137-.057.293-.122zm4.73 38.895c2.337-.13 4.675-.247 7.01-.397.736-.047 1.489-.106 2.192-.302 1.555-.432 3.16-.8 4.609-1.481 1.733-.814 2.219-2.216 1.776-4.083-.118-.501-.274-.995-.41-1.493-.564-2.06-.926-4.141-.49-6.272.264-1.294.088-2.487-.56-3.63-.672-1.185-.95-2.471-.927-3.83.012-.715-.038-1.432.01-2.143.164-2.544-.591-4.876-1.712-7.092-1.707-3.382-4.337-5.556-8.237-5.931-.879-.085-1.569-.454-1.85-1.341-.27-.85.06-1.517.67-2.122 1.438-1.421 2.84-2.875 4.273-4.301.421-.419.396-.674-.162-.909-1.11-.468-2.21-.965-3.316-1.447-1.448-.632-1.448-.632-2.142.815a3.7 3.7 0 01-.1.198c-.892 1.659-3.032 2-4.398.7-.875-.834-.901-.85-1.844-.072-.338.278-.626.624-.9.968-.33.409-.311.74.175 1.092 1.298.936 2.561 1.922 3.83 2.901.824.636 1.113 1.365.846 2.185-.285.877-.957 1.262-1.836 1.372-.439.056-.878.13-1.304.247-3.46.946-5.572 3.338-7.016 6.482-1.22 2.653-1.467 5.437-1.316 8.297.073 1.412-.216 2.743-.921 3.974-.672 1.17-.78 2.394-.538 3.709.146.79.24 1.633.127 2.42a52.085 52.085 0 01-.967 4.911c-.535 2.19-.004 3.567 1.998 4.588.718.366 1.492.65 2.273.853 3.656.958 7.405 1.01 11.158 1.134z" fill="#fff"/><path d="M18.078 14.1c-.178-.146-.338-.289-.51-.419-1.352-1.031-2.706-2.06-4.056-3.09-2.063-1.579-2.335-3.281-.843-5.416.865-1.239 2.017-2.16 3.367-2.81 1.251-.605 2.69-.33 3.686.649.211.207.391.444.602.65.554.54 1.228.446 1.577-.237.236-.46.414-.946.633-1.414.814-1.74 2.545-2.461 4.306-1.729a182.94 182.94 0 016.292 2.746c2.147.987 2.58 3.507.921 5.214-1.735 1.783-3.5 3.539-5.248 5.309-.168.17-.327.35-.556.598.78.132 1.48.213 2.16.371 2.573.597 4.828 1.81 6.77 3.599.69.634.771 1.313.246 1.86-.498.52-1.162.498-1.83-.11-2.087-1.9-4.528-3.02-7.326-3.37-.146-.018-.292-.05-.437-.07-.937-.149-1.573-.67-1.89-1.56-.321-.908-.074-1.704.582-2.371 1.866-1.898 3.745-3.782 5.612-5.676.844-.855.755-1.324-.334-1.803-1.847-.812-3.693-1.624-5.545-2.428-.927-.403-1.265-.268-1.68.646-.203.448-.381.909-.608 1.345-1.04 2.003-3.645 2.41-5.255.828-.21-.208-.36-.522-.607-.634-.344-.156-.834-.344-1.118-.212-1.13.53-2.071 1.318-2.678 2.451-.32.599-.231 1.049.326 1.466 1.755 1.313 3.492 2.652 5.235 3.981.767.585 1.178 1.326.947 2.307-.238 1-.904 1.545-1.907 1.697-.05.008-.097.023-.145.03-4.984.683-8.415 3.513-10.656 7.866-1.57 3.05-2.624 6.259-2.424 9.768.053.933-.02 1.873.013 2.809a9.166 9.166 0 01-1.2 4.957c-.876 1.544-1.107 3.168-.753 4.916.607 3.006.034 5.921-.794 8.809-.196.685-.412 1.372-.512 2.073-.328 2.25.551 3.934 2.498 5.08 2.12 1.248 4.474 1.76 6.865 2.135 3.735.585 7.502.717 11.274.73.937.005 1.874-.019 2.81.007.625.017 1.014.377 1.091.997.081.65-.227 1.088-.85 1.292-.138.045-.29.061-.436.063-5.326.037-10.66.034-15.9-1.057-1.815-.377-3.637-.948-5.303-1.75-3.936-1.892-5.24-5.17-4.086-9.399a47.24 47.24 0 001.154-5.547c.14-.953.038-1.975-.144-2.931-.425-2.244-.198-4.367.917-6.362.73-1.306 1.028-2.68 1.01-4.173-.024-1.967-.192-3.982.146-5.898.97-5.49 3.1-10.422 7.749-13.898 1.802-1.349 3.84-2.186 6.041-2.638.218-.046.435-.087.65-.137.042-.014.073-.053.15-.11z" fill="#fff"/><path d="M13.165 34.559c-.168-3.47.865-6.626 2.889-9.504 1.445-2.052 2.804-4.163 4.227-6.231.212-.308.54-.697.85-.733.399-.045.935.117 1.231.387.455.415.324.986-.01 1.481-1.527 2.266-3.11 4.496-4.555 6.81-.745 1.197-1.39 2.503-1.808 3.844-.358 1.151-.37 2.42-.46 3.64-.072.956.005 1.92-.044 2.877a1.14 1.14 0 01-1.16 1.11c-.611-.002-1.117-.446-1.15-1.117-.044-.832-.01-1.67-.01-2.564zm20.774-3.139c-.024.684-.334 1.124-.977 1.24-.604.11-1.173-.135-1.276-.734-.684-3.906-3.378-6.71-5.364-9.903-.44-.709-.942-1.38-1.395-2.083-.437-.68-.326-1.367.255-1.746.553-.361 1.25-.227 1.67.395 1.79 2.648 3.589 5.291 5.322 7.975.955 1.481 1.482 3.148 1.765 4.857zm20.315 14.728c0 .834.022 1.424-.006 2.015-.035.778-.496 1.24-1.18 1.234-.68-.004-1.134-.466-1.167-1.252a32.638 32.638 0 01-.008-2.066c.04-2.034-.538-3.869-1.696-5.542-1.118-1.617-2.205-3.256-3.3-4.892-.536-.798-.488-1.454.118-1.882.619-.436 1.305-.23 1.852.577 1.05 1.546 2.065 3.116 3.14 4.645 1.568 2.228 2.374 4.673 2.247 7.163zm-16.402.326c-.135-2.779.658-5.275 2.27-7.542 1.1-1.543 2.115-3.14 3.182-4.705.512-.75 1.306-.895 1.88-.377.494.446.525 1.025.057 1.726-1.038 1.554-2.05 3.129-3.14 4.645-1.36 1.892-2.006 3.972-1.92 6.293.022.588.02 1.18-.013 1.77-.038.655-.411 1.04-1.067 1.103-.635.064-1.168-.337-1.237-.999-.062-.632-.012-1.276-.012-1.914z" fill="#fff"/></svg>