<svg width="26" height="29" fill="none" xmlns="http://www.w3.org/2000/svg"><path d="M17.741 28.25H2.11A2.11 2.11 0 010 26.138V21.2a2.11 2.11 0 012.11-2.112h15.632a2.11 2.11 0 012.11 2.112v4.938a2.112 2.112 0 01-2.111 2.112z" fill="red"/><path d="M2.342 28.494c-.266-.097-.548-.165-.795-.296C.567 27.678.024 26.86.01 25.74c-.017-1.5-.01-3.004-.002-4.506a2.765 2.765 0 012.763-2.755c.62-.003 1.242 0 1.909 0V.766c0-.601.157-.76.751-.76 5.36 0 10.719 0 16.078-.006.301 0 .527.085.74.3a430.911 430.911 0 003.303 3.305c.192.19.276.392.276.664-.008 2.448-.004 4.896-.006 7.344 0 .1.003.206-.023.303-.07.259-.32.413-.601.385a.54.54 0 01-.483-.493c-.009-.082-.003-.166-.003-.25V4.677H21.9c-.58 0-.75-.167-.75-.737V1.139H5.81v17.34h11.588c1.472.002 2.583.934 2.835 2.384.027.154.024.314.024.471.001 1.28-.014 2.56.006 3.839.012.772-.04 1.517-.547 2.191h4.995v-10.38c0-.092-.005-.185.003-.277a.555.555 0 011.105-.009c.008.074.004.148.004.222 0 3.617-.003 7.232.005 10.849.001.333-.091.577-.395.725H2.342zm7.778-1.113c2.41 0 4.82.002 7.23 0 1.086-.001 1.795-.71 1.797-1.792.002-1.4.002-2.8 0-4.199-.002-1.102-.705-1.8-1.814-1.8H2.928c-1.105 0-1.81.703-1.81 1.804-.002 1.38-.001 2.762 0 4.143 0 1.156.692 1.844 1.855 1.845h7.147zM23.8 3.547l-1.518-1.524v1.524H23.8z" fill="#000"/><path d="M18.288 11.083c1.04.022 2.073.087 3.064.44.216.077.43.17.629.287.634.374.854.89.676 1.54-.178.652-.697 1.091-1.39 1.042a4.62 4.62 0 01-1.413-.35c-.958-.395-1.774-1.029-2.591-1.655-.112-.085-.29-.15-.424-.13-1.088.157-2.174.33-3.258.518-.117.021-.248.15-.313.263-.666 1.162-1.4 2.272-2.435 3.148-.45.382-.938.708-1.554.729-1.062.035-1.766-.966-1.384-1.96.258-.67.777-1.12 1.339-1.521.935-.668 1.977-1.12 3.069-1.46.22-.069.371-.164.452-.39.325-.924.669-1.84.986-2.766.037-.107-.017-.269-.076-.38-.577-1.079-.956-2.217-.895-3.45.025-.515.16-1.042.342-1.528.113-.3.368-.586.63-.785.648-.494 1.471-.245 1.79.505.207.49.225 1.007.193 1.53-.073 1.206-.348 2.376-.64 3.544a.591.591 0 00.068.425c.606.9 1.381 1.643 2.216 2.326a.446.446 0 00.253.077c.221.008.443.001.666.001zm-6.606 2.346c-.936.364-1.82.795-2.504 1.545a.86.86 0 00-.207.323c-.033.119-.042.295.024.374.066.08.244.107.363.092.14-.019.282-.092.403-.173.83-.549 1.399-1.332 1.921-2.161zm2.816-9.877c-.719.264-.784 2.214-.25 3.38.22-1.143.51-2.233.25-3.38zm.112 6.327l-.575 1.614 1.814-.288L14.61 9.88zm4.463 2.355l-.043.116c.535.267 1.064.545 1.607.793.179.082.392.097.593.122.156.02.33-.022.334-.203.002-.102-.1-.252-.196-.303-.717-.385-1.508-.45-2.295-.525zm6.749 2.019a.54.54 0 01-.56.553.542.542 0 01-.549-.537.554.554 0 111.11-.016z" fill="#000"/><path d="M8.241 23.48v-2.14c.002-.428.204-.64.625-.633.545.008 1.101-.03 1.632.065.9.162 1.518.982 1.524 1.898.004.547.004 1.094 0 1.64a1.976 1.976 0 01-1.943 1.956 57.9 57.9 0 01-1.25 0c-.37-.005-.584-.22-.586-.59-.004-.732-.002-1.464-.002-2.195zm1.13-1.663v3.337c.242 0 .463.01.684-.002.48-.028.838-.38.853-.86.016-.537.016-1.075 0-1.612a.875.875 0 00-.852-.86c-.221-.014-.443-.003-.684-.003zm-4.693 2.224c0 .552.002 1.069 0 1.585-.002.404-.218.646-.567.64-.337-.005-.543-.242-.543-.633-.002-1.437-.002-2.873 0-4.308 0-.41.207-.617.612-.62.435-.002.87-.003 1.306 0a1.657 1.657 0 011.64 1.65 1.66 1.66 0 01-1.633 1.685c-.258.004-.517.001-.815.001zm.023-2.223v1.112h.659c.037 0 .074.001.11-.003.314-.034.547-.278.542-.563a.563.563 0 00-.532-.541c-.256-.018-.513-.005-.78-.005zm9.561-.003v1.116c.641 0 1.27-.005 1.896.002.283.003.5.206.535.47a.552.552 0 01-.376.61c-.086.026-.182.026-.274.027-.584.002-1.167.002-1.773.002-.008.078-.02.148-.021.218-.002.473.002.946-.002 1.418-.004.359-.232.592-.562.588-.318-.004-.545-.234-.546-.576a881.175 881.175 0 010-4.423c0-.337.222-.558.558-.56a142.57 142.57 0 012.447 0 .535.535 0 01.551.54.54.54 0 01-.556.565c-.617.008-1.237.003-1.877.003z" fill="#fff"/></svg>