<svg width="19" height="14" fill="none" xmlns="http://www.w3.org/2000/svg"><path d="M19 12.564V1.438c-.008-.016-.02-.032-.023-.048-.116-.8-.833-1.405-1.751-1.39-.736.012-1.472.003-2.208.003H1.77C.739.003.005.684.003 1.663-.002 5.222-.002 8.78.01 12.339c.001.25.064.518.174.742.316.643.882.919 1.606.919h15.418l.13-.001c.535-.023.976-.224 1.313-.636.194-.237.28-.514.35-.799zM17.086 1.088c-2.554 2.449-5.08 4.872-7.588 7.275L1.973 1.088h15.113zm-5.41 6.661l5.336 5.161H1.984l5.3-5.127c.027.033.066.088.113.134.541.525 1.082 1.05 1.627 1.573.285.273.59.272.879.002.124-.116.247-.234.368-.353l1.405-1.39zm6.196-5.9v10.27L12.54 6.964l5.332-5.114zM6.392 6.984c-1.76 1.7-3.521 3.405-5.264 5.09V1.892l5.263 5.09z" fill="#788298"/></svg>