<svg width="24" height="24" fill="none" xmlns="http://www.w3.org/2000/svg"><path d="M24 20.048c-.674 2.334-2.358 3.458-4.626 3.86-1.457.256-2.863-.058-4.242-.487-2.585-.803-4.846-2.197-6.89-3.949-2.375-2.035-4.505-4.304-6.251-6.915C1.132 11.273.433 9.902.16 8.364-.337 5.55.306 3.044 2.292.941 2.752.454 3.3.106 3.989.023c.758-.092 1.447.083 1.992.614 1.238 1.21 2.47 2.428 3.662 3.681.893.94.842 2.434-.065 3.424-.396.433-.822.838-1.239 1.252-.06.06-.145.095-.203.132 1.158 2.2 2.63 4.038 4.594 5.446.64.46 1.33.848 1.994 1.275.124.079.198.062.299-.041.386-.4.78-.793 1.176-1.183 1.104-1.092 2.642-1.09 3.74.008.968.97 1.923 1.953 2.904 2.91.54.527 1.026 1.073 1.157 1.85v.657zM1.47 6.758c.027.28.042.618.09.95.21 1.424.797 2.703 1.584 3.884 1.928 2.894 4.295 5.384 7.03 7.515 1.772 1.382 3.716 2.457 5.9 3.038 1.068.283 2.147.46 3.264.26 1.252-.222 2.211-.861 2.916-1.907.388-.577.337-1.091-.15-1.58l-3.217-3.23c-.52-.52-1.122-.521-1.647 0-.465.463-.928.932-1.393 1.397-.45.452-.983.547-1.538.23-.691-.395-1.385-.792-2.045-1.239-2.399-1.623-4.18-3.798-5.51-6.358-.278-.534-.19-1.058.234-1.486.486-.489.978-.97 1.457-1.466.463-.479.454-1.102-.01-1.57-1.12-1.127-2.243-2.254-3.367-3.378-.406-.407-.977-.445-1.421-.09-.202.16-.397.335-.564.53-1.098 1.276-1.542 2.79-1.612 4.5zm20.371 2.657c0 .41-.281.737-.646.788-.376.052-.72-.193-.819-.58-.133-.514-.211-1.05-.413-1.536-.945-2.275-2.613-3.735-5.001-4.35-.143-.037-.292-.049-.438-.074-.413-.07-.702-.45-.64-.843a.742.742 0 01.864-.632c2.78.473 4.813 2.004 6.188 4.446.46.818.763 1.697.888 2.632l.017.15zm-7.827-4.149c.399.129.852.231 1.268.42 1.822.823 2.997 2.207 3.487 4.161.037.15.062.312.052.465a.748.748 0 01-.711.687.75.75 0 01-.757-.611c-.297-1.55-1.194-2.629-2.591-3.297-.312-.15-.665-.217-1-.312a.769.769 0 01-.575-.64.729.729 0 01.392-.742c.114-.057.247-.077.435-.131z" fill="#C3C8D0"/></svg>