<svg width="23" height="24" fill="none" xmlns="http://www.w3.org/2000/svg"><path d="M11.494 15.207c1.202 0 2.405-.004 3.607.001 3.472.012 6.121 2.554 6.176 5.926.012.695-.01 1.393.02 2.088.021.453.393.772.826.778.43.007.836-.31.845-.758.025-1.339.125-2.685-.233-4.006-.911-3.364-3.96-5.664-7.547-5.676-2.405-.009-4.81-.003-7.215 0-4.325 0-7.633 2.981-7.936 7.175-.058.804-.034 1.616-.019 2.424.009.457.31.765.733.83.348.055.742-.142.873-.473.066-.169.087-.363.09-.546.012-.658-.01-1.318.013-1.976.096-2.829 2.056-5.1 4.902-5.67.41-.082.838-.107 1.257-.112 1.203-.015 2.405-.006 3.608-.006zm.014-3.291c3.382-.02 6.134-2.704 6.12-5.968C17.613 2.65 14.85-.01 11.452 0 8.1.011 5.353 2.722 5.369 6.003c.016 3.244 2.807 5.933 6.139 5.913zm.033-1.658c-2.404.05-4.408-1.856-4.469-4.25-.06-2.323 1.94-4.316 4.366-4.353 2.424-.037 4.426 1.852 4.487 4.234.062 2.355-1.909 4.319-4.384 4.37z" fill="#C3C8D0"/></svg>