<svg width="25" height="18" fill="none" xmlns="http://www.w3.org/2000/svg"><path d="M0 1.782c.107-.5.308-.946.725-1.288C1.162.134 1.67 0 2.235 0h15.473c1.7 0 3.4-.002 5.1.002.89.002 1.582.357 1.968 1.139.138.28.212.614.214.924.012 4.622.012 9.245.006 13.867 0 1.223-.912 2.063-2.212 2.064H4.724c-.83 0-1.66-.013-2.489.004-1.167.023-2.052-.724-2.202-1.699-.004-.029-.021-.057-.033-.086V1.782zm1.923-.754l-.047.075c.05.026.107.044.148.08 3.223 2.819 6.444 5.64 9.667 8.458.558.487 1.073.476 1.642-.021 3.193-2.794 6.384-5.588 9.577-8.38.064-.056.145-.095.218-.14l-.053-.071H1.923zm12.974 8.583c-.327.284-.597.52-.87.754-.357.306-.752.54-1.24.605-.716.095-1.303-.16-1.821-.609l-.866-.75-8.243 7.292.041.067H23.1l.038-.07c-2.743-2.426-5.486-4.852-8.24-7.29zM1.112 1.736c-.116.374-.098 14.257.003 14.466 2.733-2.418 5.466-4.84 8.21-7.269L1.113 1.736zm22.816 14.506V1.7l-8.256 7.234 8.256 7.31z" fill="#D6D9DE"/></svg>