<svg width="56" height="55" fill="none" xmlns="http://www.w3.org/2000/svg"><path d="M15.149 55c-.23-.088-.46-.17-.689-.261-1.52-.616-2.388-1.979-2.39-3.786-.004-5.549 0-11.096 0-16.645 0-2.29-.012-4.582.004-6.872.013-1.933 1.115-3.39 2.897-3.828.376-.094.779-.105 1.17-.107a497.36 497.36 0 016.712.005c.43.004.55-.128.54-.547a112.5 112.5 0 01-.006-3.437c.017-1.988 1.237-3.188 3.233-3.19h13.91c1.939 0 3.187 1.249 3.191 3.185.003 1.303 0 2.607 0 3.979h.62c2.184 0 4.371.063 6.552-.016 2.656-.098 4.159 2.053 4.14 4.108-.069 7.749-.027 15.5-.027 23.25 0 2.223-.89 3.43-3.025 4.102-.033.01-.06.038-.089.059L15.149 55zm-1.316-19.256v.464c0 4.939-.002 9.88.001 14.819.002 1.443.817 2.254 2.266 2.254h34.908c1.435 0 2.28-.835 2.282-2.259.004-4.975.001-9.951 0-14.926 0-.128-.026-.255-.036-.346-.577.197-1.1.442-1.653.554-2.94.591-5.886 1.15-8.831 1.718-1.571.303-3.144.602-4.69.9-.054.89-.028 1.739-.173 2.558-.393 2.217-2.415 3.668-4.808 3.526-2.03-.121-3.85-1.95-3.988-4.043-.045-.674-.007-1.354-.007-2.02-.214-.06-.35-.11-.488-.135-2.702-.514-5.41-.994-8.103-1.544-2.212-.45-4.488-.633-6.68-1.52zm24.193 1.42c3.67-.702 7.265-1.382 10.857-2.083 1.014-.198 2.039-.383 3.019-.7 1.003-.324 1.386-.997 1.388-2.05.001-1.54-.052-3.081.015-4.618.063-1.418-.772-2.512-2.49-2.504-8.932.047-17.866.029-26.798.03-2.721 0-5.443-.013-8.164-.004-1.15.004-2.003.85-2.013 1.996-.016 1.79.009 3.58-.001 5.37-.003.7.31 1.225.892 1.54.462.25.977.447 1.494.549 3.312.65 6.63 1.265 9.944 1.892.941.178 1.883.353 2.904.546 0-.959-.01-1.83.003-2.702.017-1.128.649-1.777 1.762-1.785 1.809-.015 3.617-.015 5.425 0 1.107.008 1.757.678 1.763 1.78.004.896 0 1.788 0 2.743zM26.993 19.882h13.115v3.526H42c0-1.261.002-2.475 0-3.689-.001-1.223-.454-1.67-1.69-1.67H26.786c-.16 0-.323-.008-.482.011-.709.085-1.165.577-1.17 1.296-.012 1.27-.005 2.54-.002 3.81 0 .084.027.168.041.257h1.821l-.001-3.54zm3.88 14.502c-.023.092-.046.142-.046.191-.002 2.058-.014 4.115.007 6.172.007.73.336 1.351.884 1.83.857.747 1.84.95 2.891.494 1.136-.49 1.675-1.416 1.686-2.631.018-1.879.006-3.757.003-5.635 0-.137-.025-.273-.04-.42h-5.385zm7.469-12.77H28.79v1.84h9.55v-1.84z" fill="#fff"/><path d="M0 2.046C.349 1.096.897.336 1.946.09c.274-.066.564-.08.85-.08 7.966-.004 15.933.001 23.9-.01.77-.001 1.405.264 1.914.806 2.197 2.334 4.398 4.661 6.548 7.036.343.379.578.979.608 1.49.085 1.446.046 2.898.033 4.349-.004.554-.366.912-.847.918-.49.006-.875-.389-.88-.951-.012-1.108-.004-2.216-.004-3.394-.499 0-.96.002-1.42 0-1.128-.004-2.259.036-3.382-.026-1.85-.102-3.143-1.486-3.159-3.335-.014-1.697-.002-3.395-.002-5.171H2.946c-.943 0-1.226.278-1.226 1.205V45.4c0 .929.29 1.221 1.214 1.223l6.339.001c.691 0 1.066.297 1.073.84.007.56-.383.872-1.1.872-2.004.002-4.011-.056-6.014.019C1.63 48.414.54 47.833.002 46.3 0 31.549 0 16.798 0 2.046zM27.828 3.09c0 1.414-.03 2.68.01 3.942.029.86.722 1.461 1.603 1.473.981.011 1.964.004 2.946 0 .107 0 .216-.035.376-.064l-4.935-5.35zm11.857-1.368c-.2.944-.389 1.85-.584 2.754-.135.624-.518.92-1.043.816-.507-.1-.775-.496-.659-1.098.225-1.173.484-2.341.743-3.51.104-.463.424-.678.899-.677.948.005 1.897-.003 2.847.003.57.004.848.233.971.794.184.836.374 1.673.525 2.515.055.307.181.454.47.558.604.218 1.182.505 1.787.716.198.07.495.074.666-.028.738-.438 1.442-.932 2.163-1.397.538-.347.853-.334 1.297.097.681.66 1.343 1.34 2.01 2.014.372.375.382.782.098 1.213-.481.732-.977 1.456-1.425 2.208-.102.172-.105.468-.036.666.21.606.5 1.182.716 1.787.103.29.248.418.555.474.825.15 1.643.343 2.463.52.64.14.853.39.856 1.026.005.912-.005 1.825.005 2.738.005.548-.237.874-.78.984-.822.168-1.64.352-2.463.514-.336.066-.521.202-.659.56-.317.832-.702 1.64-1.116 2.427-.285.54-.77.663-1.216.41-.459-.26-.518-.742-.26-1.308a46.04 46.04 0 001.16-2.808c.16-.43.392-.695.85-.784.908-.176 1.813-.377 2.74-.57V13.73c-.84-.177-1.672-.376-2.514-.52-.644-.11-.956-.432-1.145-1.077-.254-.866-.656-1.694-1.059-2.504-.224-.452-.26-.827.023-1.247.51-.757 1-1.524 1.525-2.33l-1.234-1.067c-.663.432-1.43.913-2.175 1.425-.455.314-.848.28-1.34.037a23.383 23.383 0 00-2.612-1.076c-.494-.172-.798-.417-.894-.941-.142-.772-.324-1.537-.47-2.309-.055-.296-.171-.43-.493-.405-.39.028-.782.006-1.192.006z" fill="#fff"/><path d="M15.9 7.658c1.913 0 3.828-.017 5.742.017.32.006.716.158.934.382.402.412.154 1.11-.412 1.284-.216.068-.458.076-.687.076-3.721.005-7.443.003-11.164.003-.072 0-.144.002-.215-.001-.66-.025-1.065-.362-1.065-.885.001-.524.41-.873 1.068-.876 1.934-.004 3.867 0 5.798 0zm31.749 6.918c-.217.877-.393 1.767-.662 2.629-.21.676-.706.907-1.228.69-.476-.198-.614-.689-.37-1.319 1.188-3.06-.426-6.335-3.546-7.167-.393-.105-.808-.14-1.215-.172-.663-.052-1.023-.378-.995-.94.026-.535.395-.817 1.053-.802 3.796.074 6.85 3.227 6.963 7.081zM15.9 11.586c1.913 0 3.828-.002 5.742.001.727.002 1.123.309 1.122.856-.003.538-.426.87-1.125.87-3.846.002-7.693.003-11.538 0-.712 0-1.183-.463-1.05-1.033.121-.515.486-.7.998-.697 1.95.009 3.9.003 5.85.003zm-2.819 5.604c-1.02 0-2.04.003-3.062-.002-.599-.003-.969-.322-.985-.828-.015-.522.373-.881.988-.883 2.04-.004 4.082-.005 6.123 0 .596.002.947.333.945.858 0 .527-.349.848-.948.853-1.02.006-2.04.001-3.061.001zM5.51 7.592c.286.094.596.137.838.287.34.213.406.593.273.95-.214.576-.726.601-1.244.594-.487-.006-.888-.155-1.042-.656-.116-.377.006-.728.347-.924.237-.133.53-.165.828-.25zm.01 9.598c-.749-.002-1.166-.203-1.175-.664-.006-.304.165-.678.38-.905.269-.283 1.322-.201 1.619.034.317.253.406.597.281.957-.194.562-.671.622-1.105.577zm-.041-3.82c-.269-.077-.619-.075-.785-.249-.205-.215-.395-.608-.338-.865.058-.256.404-.498.68-.636.2-.102.491-.04.741-.029.565.025.893.348.888.859-.005.496-.351.829-.9.862-.09.006-.18.001-.27.001l-.016.056zM34.4 40.45a.86.86 0 01-.844.865c-.452.004-.864-.393-.878-.848-.014-.47.415-.903.887-.893.466.012.838.4.835.876z" fill="#fff"/></svg>