<svg width="49" height="55" fill="none" xmlns="http://www.w3.org/2000/svg"><path d="M12.848.003c.367.033.735.07 1.102.096.536.039.873.353.866.817-.008.46-.364.805-.884.796-1.254-.02-2.508-.079-3.762-.089a5.98 5.98 0 00-3.794 1.274c-.178.137-.336.299-.581.518h31.397c-.814-.733-1.671-1.132-2.66-1.162-3.973-.12-7.947-.22-11.92-.321-1.749-.045-3.498-.076-5.246-.12-.598-.014-.977-.347-.976-.832.002-.492.383-.818.984-.805 4.327.102 8.655.207 12.982.317 1.482.038 2.968.043 4.447.152 1.77.13 3.192.986 4.235 2.431.298.414.574.425.981.254a596.63 596.63 0 014.842-2.013c1.589-.654 2.884-.118 3.509 1.492.261.675.538 1.372.616 2.081.103.95-.368 1.77-1.224 2.139-2.187.94-4.408 1.802-6.632 2.652-.466.177-1 .176-1.579.27-.06.588-.133 1.22-.185 1.853-.366 4.384-.722 8.769-1.095 13.153-.406 4.776-.83 9.549-1.235 14.325-.336 3.956-.656 7.913-.988 11.869-.045.534-.082 1.073-.196 1.594a2.834 2.834 0 01-2.795 2.252c-3.605.007-7.21.003-10.814.001-.608 0-.964-.315-.952-.825.013-.49.352-.779.94-.78 3.464-.003 6.927 0 10.39-.002 1.226 0 1.669-.463 1.764-1.692.213-2.764.466-5.523.7-8.286.227-2.69.447-5.383.675-8.073.23-2.727.47-5.452.701-8.179.192-2.263.378-4.526.57-6.79.23-2.726.466-5.451.697-8.178.062-.743.116-1.486.18-2.297h-1.324c-1.501 0-3.004.003-4.505-.002-.643-.003-.978-.277-.99-.783-.012-.535.337-.833.997-.833 2.368-.002 4.737.04 7.102-.023a8.144 8.144 0 002.525-.472c1.69-.614 3.337-1.35 5-2.045.695-.29.84-.651.568-1.351a38.983 38.983 0 00-.42-1.042c-.277-.655-.651-.815-1.309-.547-1.666.682-3.325 1.386-4.998 2.048a3.56 3.56 0 01-1.278.254c-12.12.013-24.243.01-36.363.016-.294 0-.65-.03-.874.117-.758.491-.335 1.303-.427 1.976-.054.395.041.778.438.947.234.1.513.117.77.117 8.464.005 16.928.004 25.391.004.912 0 1.285.241 1.278.822-.007.569-.379.797-1.302.797H4.695L7.3 40.604c3.888-.593 6.804.709 8.441 4.367 1.101 2.46.724 5.873-2.031 8.382.193.014.34.034.486.036 1.501.003 3.004 0 4.505.001.625.002.991.284 1.01.774.02.508-.368.83-1.01.832-3.197.001-6.397.004-9.594 0-3.235-.004-6.05-2.16-6.926-5.295-.869-3.105.405-6.442 3.134-8.149.337-.21.422-.401.383-.803-.253-2.707-.462-5.418-.692-8.126-.23-2.708-.47-5.416-.7-8.124-.192-2.263-.379-4.526-.57-6.789-.217-2.582-.438-5.163-.664-7.821-.24 0-.464.007-.687-.001C1.017 9.842.042 8.846.009 7.454a31.421 31.421 0 010-1.504C.04 4.518 1.041 3.436 2.453 3.479c.792.024 1.313-.244 1.815-.816C5.505 1.256 7.042.363 8.901.082c.046-.007.086-.055.13-.082 1.272.003 2.544.003 3.817.003zM9.135 42.092c-3.078-.014-5.598 2.483-5.619 5.572-.021 3.11 2.484 5.692 5.552 5.72 3.046.03 5.576-2.5 5.598-5.596.022-3.16-2.425-5.68-5.53-5.696z" fill="#fff"/><path d="M11.393 28.114c-.102-.347-.31-.704-.278-1.039.043-.462.458-.595.896-.673 1.127-.2 2.246-.446 3.367-.674.61-.125.949.056 1.14.654a175.19 175.19 0 011.113 3.57c.224.747-.295 1.268-1.05 1.091-.12-.028-.254.009-.382.015v.169c.13.013.258.034.386.036 1.236.003 2.471 0 3.707.003.717.001 1.01.28 1.015.99.008 1.18.008 2.36 0 3.542-.006.727-.315 1.029-1.049 1.03-2.525.006-5.048-.003-7.573.013-.521.003-.857-.204-1.105-.66a155.72 155.72 0 00-1.965-3.489c-.253-.435-.253-.815.008-1.247.662-1.096 1.296-2.21 1.941-3.316-.056-.008-.114-.01-.17-.015zm1.02 6.231c1.083-1.798 2.111-3.503 3.133-5.212.048-.08.074-.208.048-.294-.134-.456-.288-.907-.432-1.346-.92.057-1.658.172-2.083 1.178-.459 1.09-1.176 2.07-1.764 3.108-.075.133-.13.356-.069.471.358.688.752 1.358 1.168 2.095zm7.219.793v-2.266c-1.435 0-2.826-.005-4.216.008a.465.465 0 00-.336.184c-.406.661-.789 1.337-1.219 2.074h5.77zm1.553-12.722l-1.943 3.432c-.444.785-.805.882-1.59.425-.935-.542-1.87-1.082-2.801-1.627-.716-.42-.817-.774-.416-1.486 1.25-2.22 2.508-4.435 3.748-6.661.247-.442.576-.623 1.074-.616 1.343.022 2.686.026 4.029.006.488-.007.789.19 1.018.61.615 1.125 1.25 2.237 1.89 3.375.133-.043.244-.086.359-.113.66-.154 1.187.373.982 1.027a118.09 118.09 0 01-1.235 3.703c-.175.503-.556.706-1.04.601-1.206-.261-2.418-.506-3.611-.816-.279-.072-.633-.34-.704-.589-.07-.248.171-.588.279-.887.04-.112.09-.22.135-.328l-.174-.056zm3.793.935c.165-.48.32-.914.46-1.351.028-.092.034-.224-.012-.302a459.218 459.218 0 00-2.297-3.968c-.055-.093-.175-.206-.267-.208-.786-.016-1.57-.01-2.432-.01.108.212.174.353.248.488a2572.72 2572.72 0 002.663 4.868c.037.067.11.143.18.159.475.113.953.214 1.457.324zm-6.907 1.285c.727-1.286 1.428-2.526 2.122-3.769.047-.084.09-.225.052-.294-.389-.723-.794-1.438-1.237-2.23a8618.094 8618.094 0 00-2.905 5.146c.66.383 1.282.746 1.968 1.147zm8.068 12.204c-.037.14-.058.26-.098.374-.227.643-.936.822-1.39.322a142.58 142.58 0 01-2.568-2.93c-.345-.401-.291-.813.054-1.202.813-.918 1.604-1.86 2.45-2.748.199-.21.606-.38.86-.322.252.06.433.43.64.67.077.087.14.186.21.279.047-.033.093-.068.14-.1-.652-1.121-1.302-2.244-1.954-3.363-.509-.874-.436-1.187.405-1.689a692.82 692.82 0 012.828-1.683c.65-.385 1.012-.29 1.398.371 1.294 2.215 2.579 4.435 3.878 6.645.242.41.27.779.024 1.2a180.853 180.853 0 00-2.023 3.583c-.233.423-.554.603-1.03.597-1.27-.014-2.54-.005-3.824-.005zm-2.396-2.799c.332.382.617.722.919 1.048.074.08.2.16.302.16a387.34 387.34 0 004.447-.048c.127-.003.318-.042.372-.13.416-.694.804-1.404 1.206-2.115-.09-.041-.106-.053-.122-.053-1.976-.029-3.95-.059-5.927-.075-.098 0-.215.102-.291.186-.299.322-.585.661-.906 1.027zm7.256-2.774l-2.976-5.106-1.956 1.164c.736 1.266 1.44 2.484 2.158 3.692.068.114.232.236.354.239.773.021 1.545.011 2.42.011zM9.124 44.364c1.856.007 3.307 1.495 3.301 3.385-.006 1.863-1.515 3.384-3.343 3.367-1.818-.018-3.334-1.572-3.322-3.41a3.356 3.356 0 013.364-3.342zm-.03 5.094a1.752 1.752 0 001.74-1.712c.015-.951-.802-1.778-1.745-1.77-.937.01-1.7.794-1.698 1.751-.001.969.745 1.727 1.703 1.731z" fill="#fff"/></svg>