<svg width="259" height="44" fill="none" xmlns="http://www.w3.org/2000/svg"><path fill-rule="evenodd" clip-rule="evenodd" d="M34.916 44l8.728-8.8V2.649l-8.728 8.803v19.35h-3.194l-8.042-11.14V30.8h-3.717V16.702H14.97V31.56L2.63 44h32.286zM0 41.348V8.799L8.728 0h32.285l-9.814 9.895V24.34l-8.042-11.137H6.207v3.5h4.997v13.353L0 41.348z" fill="#ED1C24"/><path d="M52.376 17.474V13.2h15.313v4.275h-5.235v13.323h-4.839V17.474h-5.24zm17.851-4.271h14.038v4.147h-9.251v2.665h8.376v3.846h-8.376v2.79h9.379v4.146H70.227V13.203zm22.133 8.649l-5.737-8.649h5.56l3.093 4.954 3.118-4.954h5.433l-5.731 8.6 5.987 8.998h-5.56l-3.344-5.304-3.365 5.304h-5.438l5.983-8.95zm14.006-8.649h4.839v6.586h6.211v-6.586h4.84v17.598h-4.84v-6.688h-6.211v6.688h-4.839V13.203zm18.793 8.799c0-5.056 4.038-9.154 9.427-9.154 5.385 0 9.374 4.05 9.374 9.154 0 5.056-4.038 9.154-9.426 9.154-5.385-.004-9.375-4.053-9.375-9.154zm13.866 0c0-2.541-1.821-4.754-4.487-4.754-2.644 0-4.416 2.164-4.416 4.754 0 2.542 1.82 4.75 4.464 4.75 2.666 0 4.439-2.16 4.439-4.75zm7.866-8.799h4.839v6.586h6.207v-6.586h4.839v17.598h-4.839v-6.688h-6.207v6.688h-4.839V13.203zm19.651 0h4.79v9.904l6.762-9.904h4.513v17.598h-4.787v-9.907l-6.761 9.903h-4.513V13.203h-.004zm24.665 0v7.14l6.009-7.14h5.737l-6.608 7.566 6.832 10.032h-5.811l-4.391-6.537-1.772 1.983v4.55h-4.835V13.203h4.839zm12.01 8.799c0-5.056 4.038-9.154 9.423-9.154 5.388 0 9.379 4.05 9.379 9.154 0 5.056-4.043 9.154-9.428 9.154-5.389-.004-9.374-4.053-9.374-9.154zm13.861 0c0-2.541-1.817-4.754-4.487-4.754-2.643 0-4.417 2.164-4.417 4.754 0 2.542 1.822 4.75 4.461 4.75 2.675 0 4.443-2.16 4.443-4.75zm26.558-8.799h4.839v5.53h2.644c4.192 0 7.258 2.014 7.258 5.983 0 3.801-2.745 6.085-7.007 6.085h-7.734V13.203zm7.355 13.5c1.597 0 2.543-.727 2.543-2.11 0-1.234-.95-2.036-2.521-2.036h-2.543v4.146h2.521zm-24.688-13.5v7.722c0 1.822-.185 4.466-1.377 5.397-.558.44-1.486.772-2.072.772v4.15h.458c1.671 0 3.546-.678 4.267-1.139 2.917-1.867 3.277-5.42 3.277-9.433v-3.194h4.175v13.323h4.839V13.203h-13.567z" fill="#000"/></svg>