<svg width="26" height="25" fill="none" xmlns="http://www.w3.org/2000/svg"><path d="M20.415 25v-.71c0-2.671.014-5.343-.01-8.014-.006-.684-.046-1.391-.222-2.047-.566-2.108-2.991-2.756-4.588-1.259-.762.715-1.049 1.616-1.046 2.648.011 2.89.004 5.78.004 8.669v.696h-5.51V8.205h5.485v2.184l.119.059.375-.405c1.863-2.004 4.076-2.825 6.744-1.952 2.362.772 3.527 2.583 4 4.92.142.707.214 1.44.22 2.163.023 3.125.011 6.25.01 9.376 0 .14-.02.281-.034.449L20.415 25zM.37 24.994v-16.8h5.495v16.8H.369zM3.111 5.843C.937 5.843-.476 4.018.15 2.016.583.625 2.099-.213 3.713.047c1.604.258 2.668 1.523 2.565 3.05-.111 1.65-1.375 2.747-3.167 2.746z" fill="#fff"/></svg>