<svg width="271" height="46" fill="none" xmlns="http://www.w3.org/2000/svg"><path fill-rule="evenodd" clip-rule="evenodd" d="M36.533 46l9.133-9.199V2.768l-9.133 9.204v20.23h-3.341l-8.414-11.648v11.647h-3.89v-14.74h-5.224v15.533L2.753 46h33.78zM0 43.227V9.2L9.132 0h33.781L32.644 10.344v15.102L24.23 13.803H6.495v3.659h5.229v13.96L0 43.227z" fill="#fff"/><path d="M54.803 18.268v-4.47h16.022v4.47h-5.477v13.929h-5.063V18.268h-5.482zm18.678-4.465H88.17v4.336h-9.68v2.786h8.764v4.02H78.49v2.917h9.814v4.335H73.48V13.803zm23.158 9.042l-6.002-9.042h5.817l3.236 5.18 3.263-5.18h5.685l-5.997 8.99 6.264 9.409h-5.818l-3.498-5.546-3.522 5.546h-5.689l6.26-9.357zm14.655-9.042h5.063v6.886h6.499v-6.886h5.064v18.399h-5.064v-6.993h-6.499v6.993h-5.063V13.803zm19.664 9.199c0-5.285 4.225-9.57 9.864-9.57 5.634 0 9.808 4.234 9.808 9.57 0 5.286-4.225 9.57-9.863 9.57-5.635-.004-9.809-4.238-9.809-9.57zm14.509 0c0-2.656-1.906-4.97-4.695-4.97-2.767 0-4.622 2.263-4.622 4.97 0 2.657 1.905 4.966 4.672 4.966 2.789 0 4.645-2.258 4.645-4.966zm8.229-9.199h5.064v6.886h6.494v-6.886h5.064v18.399h-5.064v-6.993h-6.494v6.993h-5.064V13.803zm20.562 0h5.012v10.354l7.075-10.354h4.723v18.399h-5.009V21.843l-7.074 10.354h-4.723V13.803h-.004zm25.808 0v7.465l6.288-7.465h6.002l-6.914 7.91 7.148 10.489h-6.079l-4.595-6.835-1.854 2.073v4.757h-5.059V13.803h5.063zm12.566 9.199c0-5.285 4.225-9.57 9.86-9.57 5.638 0 9.813 4.234 9.813 9.57 0 5.286-4.23 9.57-9.864 9.57-5.639-.004-9.809-4.238-9.809-9.57zm14.504 0c0-2.656-1.901-4.97-4.695-4.97-2.766 0-4.621 2.263-4.621 4.97 0 2.657 1.905 4.966 4.667 4.966 2.799 0 4.649-2.258 4.649-4.966zm27.788-9.199h5.063v5.782h2.767c4.386 0 7.594 2.105 7.594 6.255 0 3.974-2.872 6.362-7.332 6.362h-8.092V13.803zm7.696 14.114c1.671 0 2.661-.76 2.661-2.207 0-1.289-.995-2.128-2.638-2.128h-2.661v4.335h2.638zm-25.832-14.114v8.073c0 1.905-.193 4.669-1.441 5.642-.584.46-1.555.807-2.168.807v4.34h.48c1.748 0 3.709-.71 4.464-1.191 3.052-1.953 3.429-5.666 3.429-9.863v-3.338h4.368v13.929h5.064V13.803h-14.196z" fill="#fff"/></svg>