<svg width="21" height="21" fill="none" xmlns="http://www.w3.org/2000/svg"><path d="M13.922 14.326c-2.734 2.175-5.731 1.248-7.195-.388-1.656-1.85-1.746-4.625-.21-6.556 1.443-1.815 4.329-2.738 7.008-.945.02-.069.034-.134.056-.196.192-.551.65-.852 1.162-.761.497.087.835.505.842 1.061.008.577.002 1.155.002 1.732 0 1.45-.002 2.9.001 4.35.002.87.513 1.5 1.302 1.618.772.116 1.415-.323 1.682-1.148 1.629-5.021-1.762-10.28-7.049-10.936C6.31 1.51 1.74 5.79 2.056 11.025c.371 6.15 6.989 9.853 12.439 6.961.111-.06.22-.124.332-.183.561-.3 1.144-.166 1.437.33.304.515.155 1.149-.445 1.424-.967.444-1.943.94-2.97 1.174C6.72 22.127.83 17.935.076 11.701-.63 5.848 3.662.571 9.558.043c5.717-.512 10.766 3.63 11.379 9.319.157 1.463.02 2.89-.41 4.294-.46 1.495-1.455 2.414-3.007 2.592-1.53.175-2.71-.472-3.51-1.793-.022-.036-.047-.07-.088-.129zm-3.397-.75a3.052 3.052 0 003.027-3.05 3.048 3.048 0 00-3.045-3.03 3.05 3.05 0 00-3.047 3.068c.013 1.667 1.389 3.017 3.065 3.011z" fill="#fff"/></svg>