<svg width="18" height="22" fill="none" xmlns="http://www.w3.org/2000/svg"><path d="M8.976 17.9c-1.293 1.215-2.53 2.385-3.776 3.547-.567.53-1.264.677-2.01.45-.767-.233-1.248-.754-1.377-1.51-.108-.627.13-1.162.601-1.607.782-.737 1.568-1.469 2.351-2.204.131-.124.256-.254.42-.416-.729-.245-1.419-.445-2.08-.708-.701-.28-1.394-.59-2.057-.94C.033 13.973-.28 12.89.265 11.966c.544-.92 1.685-1.25 2.716-.733 1.392.698 2.833 1.248 4.402 1.474 2.45.353 4.749-.114 6.942-1.141.221-.104.437-.22.659-.327 1.042-.497 2.18-.206 2.734.7.567.928.268 2.06-.801 2.575-1.116.537-2.298.957-3.453 1.422-.189.076-.39.124-.698.22l1.954 1.808c.298.277.601.55.89.836.805.797.798 1.885-.009 2.644-.767.72-1.962.748-2.785.008-1.13-1.017-2.225-2.07-3.335-3.106-.148-.135-.3-.266-.505-.448z" fill="#fff"/><path d="M9.033 0c3.287.02 5.946 2.538 5.91 5.593-.037 3.074-2.713 5.525-6.01 5.507-3.238-.019-5.896-2.537-5.882-5.573C3.065 2.46 5.751-.02 9.033 0zm-.019 8.297c1.621-.009 2.947-1.25 2.955-2.767.007-1.533-1.351-2.803-2.987-2.793-1.619.01-2.947 1.255-2.955 2.77-.008 1.534 1.345 2.799 2.987 2.79z" fill="#fff"/></svg>