<svg width="16" height="20" fill="none" xmlns="http://www.w3.org/2000/svg"><path d="M6.891 13.856c-.25.896-.48 1.873-.804 2.82-.255.748-.604 1.467-.951 2.181-.14.288-.356.552-.586.78-.602.598-1.212.446-1.38-.373-.113-.541-.128-1.111-.111-1.666.057-1.929.68-3.756 1.095-5.62.176-.787.387-1.567.558-2.355a1.194 1.194 0 00-.041-.565c-.35-1.212-.365-2.394.308-3.51.412-.682.997-1.148 1.84-1.201 1.1-.07 1.973.644 1.965 1.729-.005.715-.182 1.437-.343 2.141-.153.671-.404 1.32-.58 1.986-.336 1.272.634 2.197 1.935 1.864.677-.175 1.169-.596 1.556-1.144.805-1.137 1.104-2.434 1.19-3.79.05-.77.03-1.538-.282-2.266-.59-1.372-1.712-2.05-3.155-2.242-2.003-.266-3.771.193-5.09 1.798-.892 1.084-1.27 2.349-1.067 3.723.071.49.353.97.622 1.406.201.326.302.626.206.989-.073.276-.136.556-.224.83-.166.51-.555.69-1.057.476C1.418 11.39.732 10.563.38 9.492-.435 7.019.076 4.769 1.768 2.818 3.741.54 6.366-.19 9.307.04c1.885.147 3.537.867 4.85 2.235 1.318 1.375 1.93 3.014 1.833 4.91-.106 2.096-.64 4.044-2.123 5.621-1.395 1.485-3.135 2.164-5.189 1.779-.614-.114-1.182-.475-1.787-.73z" fill="#fff"/></svg>