<svg width="21" height="18" fill="none" xmlns="http://www.w3.org/2000/svg"><path d="M0 8.06c1.29-.519 2.58-1.04 3.871-1.557C9.246 4.349 14.621 2.196 19.994.038c.146-.059.243-.056.36.055.171.164.36.313.548.459.092.071.114.14.088.258-.547 2.52-1.088 5.042-1.63 7.563-.65 3.018-1.3 6.035-1.947 9.054-.035.165-.087.278-.273.325-.196.05-.388.13-.573.216-.132.061-.22.03-.33-.051-1.558-1.139-3.118-2.272-4.678-3.407-.039-.027-.079-.053-.177-.132-.043.07-.074.15-.13.207-.681.696-1.363 1.391-2.053 2.077a.512.512 0 01-.315.132c-.417.015-.834.006-1.27.006l-.466-1.468c-.44-1.395-.879-2.79-1.313-4.186-.037-.117-.094-.173-.214-.21C3.8 10.385 1.98 9.827.16 9.27.108 9.255.053 9.25 0 9.24V8.06zm15.678-2.347l-8.654 5.119 1.474 4.682 1.895-1.85-1.311-.956.73-.982 6.542 4.758 3.22-14.959L2.021 8.56c1.387.425 2.719.83 4.048 1.243a.426.426 0 00.38-.048c2.527-1.5 5.056-2.995 7.585-4.491.333-.198.668-.393 1.013-.595l.63 1.045z" fill="#fff"/></svg>