<svg width="18" height="20" fill="none" xmlns="http://www.w3.org/2000/svg"><path d="M7.396 7.387v3.427c-.474 0-.935-.063-1.373.011-1.608.274-2.635 1.655-2.435 3.21.192 1.49 1.563 2.589 3.134 2.509 1.56-.08 2.787-1.34 2.79-2.899.01-4.375.007-8.75.01-13.126V0h3.545c.062 1.283.504 2.428 1.463 3.35.949.914 2.1 1.38 3.47 1.417v3.426c-1.783.011-3.379-.515-4.921-1.519v.463c0 2.162.014 4.323-.004 6.485-.027 3.113-2.137 5.6-5.266 6.245-4.173.86-8.168-2.58-7.783-6.702.321-3.443 3.237-5.949 6.791-5.834.186.006.372.035.579.056z" fill="#fff"/></svg>