<svg width="24" height="20" fill="none" xmlns="http://www.w3.org/2000/svg"><path d="M0 17.842c2.582.09 4.92-.536 7.08-2.168-2.25-.26-3.761-1.379-4.608-3.52H4.49l.051-.109c-2.354-.79-3.65-2.393-3.823-4.91l2.011.564.079-.136C1.835 6.758 1.143 5.779.892 4.527.645 3.291.81 2.12 1.455.957c2.7 3.178 6.07 4.96 10.257 5.242 0-.731-.1-1.427.02-2.082.346-1.898 1.47-3.199 3.276-3.823 1.792-.618 3.437-.249 4.875.984.274.234.499.338.84.21.856-.32 1.718-.623 2.609-.943-.318 1.041-1.007 1.832-1.884 2.489l.07.132L24 2.476c-.567.86-1.22 1.585-2.001 2.18-.294.225-.406.455-.4.834.091 6.398-4.114 12.22-10.123 13.923-3.841 1.088-7.55.669-11.06-1.3-.145-.08-.278-.18-.416-.27z" fill="#fff"/></svg>