<svg width="27" height="16" fill="none" xmlns="http://www.w3.org/2000/svg"><path d="M15.789 4.059c0 .963-.025 1.926.015 2.887.012.266.154.634.354.75.16.094.564-.043.742-.208.54-.503 1.125-1.005 1.508-1.625a77.36 77.36 0 002.753-4.85c.36-.69.809-1.026 1.563-1.013.895.018 1.791-.006 2.688.008.942.015 1.24.4.901 1.284-.29.759-.65 1.504-1.072 2.195-.871 1.422-1.798 2.809-2.716 4.199-.555.839-.528 1.045.156 1.797 1.188 1.31 2.367 2.63 3.511 3.98.312.37.538.838.714 1.296.252.656-.012 1.156-.684 1.191-1.19.062-2.39.079-3.574-.02-.411-.035-.841-.415-1.173-.733-.93-.893-1.785-1.869-2.73-2.746a6.587 6.587 0 00-1.656-1.112c-.856-.404-1.27-.11-1.297.832-.024.837-.003 1.676-.007 2.514-.003.86-.25 1.138-1.104 1.248-1.859.24-3.592-.187-5.243-1.03-1.316-.671-2.495-1.549-3.458-2.674C3.43 9.254 1.477 5.92.268 2.16A6.546 6.546 0 01.008.907C-.048.428.185.073.671.06 1.881.03 3.091.022 4.3.065c.578.02.765.545.967 1.011.621 1.432 1.18 2.9 1.902 4.277.557 1.06 1.301 2.024 2.012 2.992.272.372.657.82 1.184.61.502-.2.35-.765.356-1.187.023-1.318.012-2.638.007-3.957-.004-.9-.249-1.706-.815-2.428C9.72 1.14 9.58.721 9.645.435c.093-.416.541-.431.924-.43 1.387.003 2.775-.002 4.163.002.785.003 1.015.205 1.038 1.005.028 1.015.006 2.032.006 3.048l.013-.001z" fill="#fff"/></svg>