<svg width="21" height="21" fill="none" xmlns="http://www.w3.org/2000/svg"><path d="M.74 20.52c.112-.35.202-.644.3-.934.286-.852.565-1.707.868-2.554.098-.272.058-.47-.096-.714-2.198-3.47-2.417-7.071-.543-10.724C3.287 1.66 7.788-.574 12.055.128c4.571.754 8.067 4.182 8.8 8.63a10.476 10.476 0 01-8.85 12.127c-2.447.357-4.752-.12-6.876-1.402-.267-.16-.49-.204-.792-.1-1.044.357-2.1.683-3.15 1.019-.126.04-.255.067-.447.117zM4.416 7.691c.03.243.045.488.09.728.214 1.133.846 2.054 1.505 2.964 1.804 2.49 4.12 4.229 7.167 4.883.417.09.884.13 1.293.039 1.69-.38 2.348-1.247 2.352-2.63 0-.157-.11-.393-.238-.46-.799-.413-1.615-.791-2.43-1.174-.3-.14-.56-.064-.761.197-.209.27-.404.55-.616.817-.405.514-.588.56-1.19.304-1.68-.716-2.933-1.91-3.882-3.451-.173-.282-.144-.504.068-.736.22-.242.465-.473.633-.748.116-.19.22-.485.154-.668-.32-.868-.695-1.718-1.066-2.566-.055-.126-.184-.286-.3-.306-.63-.108-1.256-.133-1.762.375-.669.671-.998 1.482-1.017 2.432z" fill="#fff"/></svg>