<svg width="33" height="31" fill="none" xmlns="http://www.w3.org/2000/svg"><path d="M0 20.604c.031-.068.06-.136.094-.202a.786.786 0 01.886-.427c.35.086.587.388.588.748a.767.767 0 01-.613.761c-.335.075-.691-.101-.857-.426l-.097-.197L0 20.604zM10.134 31c-.17-.17-.395-.31-.498-.512-.182-.361.026-.797.398-.966a.772.772 0 01.762 1.335c-.068.049-.137.095-.206.142l-.456.001zM25.79 4.63l.757.75c.171-.181.34-.372.52-.551.641-.641 1.289-1.276 1.927-1.92.218-.22.464-.33.78-.326.778.01 1.558.001 2.338.005.535.001.888.315.888.774 0 .46-.354.772-.89.774-.638.004-1.277-.003-1.916.005-.108.002-.247.03-.32.1-.75.729-1.488 1.47-2.244 2.222.56.733-.027 1.135-.475 1.582.903 1.677 1.324 3.46 1.223 5.349-.1 1.887-.696 3.619-1.774 5.193l.184.2c.44.483.43.883-.032 1.344-.658.655-1.315 1.31-1.977 1.962-.44.435-.854.435-1.296-.003-4.839-4.809-9.677-9.618-14.515-14.43-.425-.422-.424-.836 0-1.262.648-.65 1.3-1.295 1.952-1.942.519-.516.909-.518 1.441-.008.039.038.062.09.104.15 1.605-1.079 3.338-1.68 5.238-1.784 1.905-.105 3.693.311 5.387 1.2.456-.372.839-.992 1.648-.445.194-.219.39-.464.608-.684.722-.728 1.459-1.442 2.18-2.172A2.284 2.284 0 0129.27 0c.941.015 1.884.002 2.826.005.542.001.895.3.903.759.009.47-.351.788-.907.788-.953.003-1.906-.008-2.859.01-.178.003-.402.066-.524.184-.977.944-1.936 1.909-2.92 2.885zM13.684 5.666L25.5 17.413c.017-.023.057-.072.089-.126a8.384 8.384 0 001.236-4.124c.056-1.688-.363-3.257-1.236-4.706-.3-.5-.261-.78.155-1.204.072-.072.14-.149.178-.19-.625-.622-1.22-1.214-1.867-1.86-.055.076-.113.184-.196.267-.36.355-.684.399-1.108.144-1.678-1.005-3.49-1.422-5.438-1.214a8.31 8.31 0 00-3.629 1.266zm11.5 13.8L11.65 6.013 10.61 7.03l13.54 13.46 1.035-1.026zm-5.828 2.574a.763.763 0 01-.775-.775.775.775 0 01.793-.762.78.78 0 01.761.764.767.767 0 01-.78.774zM7.968 28.617a.756.756 0 01-.775-.771.775.775 0 01.784-.771.788.788 0 01.764.763.768.768 0 01-.773.78zm1.831-16.075a.76.76 0 01-.77-.777.78.78 0 01.76-.763.791.791 0 01.793.77.772.772 0 01-.783.77zm2.406 2.378a.76.76 0 01-.784-.763.769.769 0 01.771-.78c.414 0 .761.338.776.751a.777.777 0 01-.763.793zm-5.522.727a.757.757 0 01-.777-.768.769.769 0 01.752-.768.786.786 0 01.8.758.772.772 0 01-.775.778zm8.666.872a.773.773 0 01-.771.783.784.784 0 01-.775-.784.772.772 0 01.76-.76.758.758 0 01.786.76zm-3.124 3.101a.77.77 0 01-.767.785.787.787 0 01-.781-.779.781.781 0 01.76-.765.76.76 0 01.788.759zM9.29 22.539a.764.764 0 01-.768.781.777.777 0 01-.786-.77.791.791 0 01.756-.772.784.784 0 01.798.76zm-6.1-.202a.76.76 0 01.773.776.782.782 0 01-.763.763.787.787 0 01-.792-.77.77.77 0 01.782-.77zm6.942 2.581a.771.771 0 01.791-.762c.414.01.758.356.761.765a.79.79 0 01-.78.78.773.773 0 01-.772-.783zm6.845-6.782c.44.005.771.344.763.783a.774.774 0 01-.766.755.788.788 0 01-.787-.773c0-.424.357-.77.79-.765zM13.85 21.24a.76.76 0 01.768.781.782.782 0 01-.766.76.79.79 0 01-.788-.774c0-.424.353-.77.787-.767zm-1.327 6.064a.754.754 0 01.777-.767.77.77 0 01.77.75.787.787 0 01-.769.792.775.775 0 01-.778-.775zm-3.451-9.279a.76.76 0 01-.777-.772.774.774 0 01.783-.773.784.784 0 01.765.762.77.77 0 01-.77.783zM6.12 20.944a.776.776 0 01-.774-.756.782.782 0 01.787-.78.764.764 0 01.763.793.755.755 0 01-.776.743zm10.112 4.202a.762.762 0 01-.773-.775.765.765 0 01.759-.758.774.774 0 01.794.76.773.773 0 01-.78.773zM5.588 26.241a.76.76 0 01-.785-.761.765.765 0 01.745-.773.78.78 0 01.808.747.772.772 0 01-.768.787zm-2.622-8.445a.756.756 0 01.764-.756.76.76 0 01.78.774.78.78 0 01-.766.767.776.776 0 01-.778-.785z" fill="#fff"/></svg>