<svg width="43" height="45" fill="none" xmlns="http://www.w3.org/2000/svg"><path d="M21.77 0c.953.47 1.9.952 2.86 1.408a8100.848 8100.848 0 0017.718 8.395c.465.22.653.51.652 1.022-.012 7.8-.012 15.6 0 23.4.001.514-.199.8-.66 1.017a8579.682 8579.682 0 00-20.29 9.622c-.386.183-.71.18-1.097-.003-6.746-3.21-13.496-6.41-20.252-9.6C.203 35.028 0 34.73 0 34.18c.014-7.77.014-15.54 0-23.31-.001-.547.194-.85.694-1.086C7.41 6.614 14.12 3.43 20.829.248c.142-.067.269-.165.403-.248h.537zM2.242 10.525l.47.232c4.186 1.986 8.373 3.972 12.559 5.96.51.242 1.025.473 1.524.736.34.18.425.499.282.833-.148.349-.46.444-.82.35-.155-.041-.3-.126-.448-.197L2.808 12.27c-.466-.22-.934-.435-1.456-.679v.488c0 7.184.003 14.369-.01 21.553 0 .368.13.529.45.679 5.801 2.74 11.598 5.493 17.395 8.243.52.247 1.044.488 1.642.768v-7.616c0-4.81-.004-9.618.007-14.427.001-.34-.082-.537-.419-.665-.43-.164-.838-.379-1.252-.582-.429-.21-.588-.575-.42-.93.168-.357.552-.464.995-.262.487.222.958.478 1.454.676a.9.9 0 00.614 0c.67-.285 1.32-.615 1.976-.926.805-.382 1.607-.771 2.418-1.14.381-.174.757-.04.919.284.164.33.033.691-.326.895-.09.05-.188.088-.282.132-1.302.619-2.598 1.25-3.908 1.848-.332.151-.443.334-.442.692.01 7.17.008 14.34.01 21.508 0 .152.015.302.027.507.17-.079.275-.126.38-.177 6.24-2.958 12.479-5.92 18.725-8.867.306-.144.346-.328.346-.61-.007-7.2-.005-14.399-.005-21.597v-.436c-.1.028-.144.034-.182.052-1.92.908-3.837 1.822-5.762 2.72-.253.117-.246.29-.246.496 0 2.419-.012 4.839.01 7.257.005.55-.203.856-.704 1.084-1.5.683-2.983 1.404-4.474 2.108-.784.372-1.197.117-1.198-.74-.003-2.39-.01-4.78.008-7.17.003-.38-.127-.56-.471-.72-2.303-1.072-4.594-2.168-6.889-3.256-4.16-1.972-8.32-3.947-12.484-5.913-.156-.074-.391-.14-.526-.076-2.14.992-4.27 2.007-6.485 3.055zm13.715-6.502c.209.108.334.177.466.24C22.58 7.183 28.738 10.1 34.89 13.03c.247.117.432.096.661-.014 1.62-.776 3.246-1.542 4.868-2.313.096-.046.182-.113.313-.194-2.549-1.207-5.043-2.39-7.538-3.573-3.782-1.793-7.565-3.589-11.352-5.374-.154-.073-.389-.13-.525-.066-1.767.817-3.521 1.656-5.359 2.527zm17.683 9.894c-.225-.117-.365-.195-.509-.263-1.408-.669-2.818-1.335-4.226-2.004-4.696-2.227-9.392-4.455-14.091-6.678-.163-.077-.401-.171-.535-.111-1.25.569-2.485 1.168-3.789 1.79 1.169.557 2.266 1.079 3.364 1.6 5.166 2.448 10.333 4.899 15.504 7.339.166.078.419.136.568.069 1.217-.548 2.42-1.13 3.714-1.742zm-3.185 9.842c.093-.025.15-.032.201-.056 1.074-.506 2.143-1.024 3.224-1.516.259-.117.236-.3.236-.501l-.001-6.067c0-.126-.013-.252-.024-.425-.174.074-.308.125-.437.186-.939.443-1.873.902-2.82 1.327-.299.134-.411.292-.408.623.018 1.993.009 3.985.01 5.979-.001.14.012.28.019.45z" fill="#fff"/><path d="M3.456 26.848c.244.08.39.112.522.174 1.852.875 3.703 1.75 5.551 2.63.497.237.67.6.486.974-.183.372-.568.449-1.084.204-1.825-.862-3.648-1.727-5.47-2.594-.12-.057-.293-.103-.336-.2-.098-.223-.226-.5-.165-.705.06-.2.337-.34.496-.483zm3.807 5.126c.01.661-.488.956-1.013.716-.85-.386-1.688-.796-2.53-1.198-.16-.077-.327-.145-.479-.235-.343-.205-.45-.54-.288-.862.162-.323.51-.471.865-.309 1.037.475 2.07.96 3.087 1.472.184.095.29.333.358.416z" fill="#fff"/></svg>