<svg width="993" height="249" fill="none" xmlns="http://www.w3.org/2000/svg"><path d="M365.371 100.959l2.768-4.093c.353-.528.284-1.264-.23-1.644a1.166 1.166 0 00-1.656.28l-1.148 1.707c-6.466-43.252-37.033-77.13-76.224-89.813a1.612 1.612 0 00-.25-.083.106.106 0 01-.047-.019l-.002.007a1.35 1.35 0 00-.415-.018 1.323 1.323 0 00-1.132 1.485c.076.55.483.972.991 1.102 38.313 12.38 68.19 45.491 74.485 87.78l-1.565-1.053c-.528-.353-1.264-.284-1.643.23a1.16 1.16 0 00.28 1.656l4.159 2.8a1.18 1.18 0 001.629-.324zm89.969 139.753l-4.481 2.081c-.578.264-1.294.079-1.586-.489a1.165 1.165 0 01.54-1.59l1.867-.862c-41.67-13.271-70.249-48.842-76.529-89.552a1.55 1.55 0 01-.043-.26c-.001-.015-.002-.036-.011-.05l.007-.001a1.363 1.363 0 01.049-.412 1.321 1.321 0 011.646-.881c.532.163.882.632.93 1.154 6.122 39.795 34.053 74.563 74.8 87.512l-.791-1.713c-.264-.578-.079-1.293.49-1.586a1.16 1.16 0 011.59.54l2.101 4.553a1.178 1.178 0 01-.579 1.556zM95.371 154.24l2.768 4.092c.353.529.284 1.265-.23 1.644a1.166 1.166 0 01-1.656-.28l-1.148-1.706c-6.466 43.252-37.033 77.13-76.224 89.812a1.505 1.505 0 01-.25.083c-.014.004-.035.009-.047.019l-.002-.007a1.333 1.333 0 01-.415.019 1.323 1.323 0 01-1.132-1.486 1.33 1.33 0 01.991-1.102c38.313-12.38 68.19-45.491 74.485-87.78l-1.565 1.053c-.528.353-1.264.285-1.643-.23a1.16 1.16 0 01.28-1.656l4.16-2.799a1.179 1.179 0 011.628.324zM187.34 7.486l-4.481-2.08c-.578-.265-1.294-.08-1.586.489a1.165 1.165 0 00.54 1.59l1.867.861c-41.67 13.271-70.249 48.842-76.529 89.553a1.544 1.544 0 00-.043.26c-.001.014-.002.036-.011.05h.007a1.37 1.37 0 00.049.413 1.321 1.321 0 001.646.88c.532-.162.882-.631.93-1.153 6.122-39.796 34.053-74.564 74.8-87.512l-.791 1.712c-.264.578-.079 1.294.49 1.586a1.16 1.16 0 001.59-.54l2.101-4.552a1.179 1.179 0 00-.579-1.557zm716.031 90.473l2.768-4.093c.353-.528.284-1.264-.23-1.644a1.166 1.166 0 00-1.656.28l-1.148 1.707c-6.466-43.252-37.033-77.13-76.224-89.813a1.612 1.612 0 00-.25-.083.106.106 0 01-.047-.019l-.002.007a1.35 1.35 0 00-.415-.018 1.323 1.323 0 00-1.132 1.485c.076.55.483.972.991 1.102 38.313 12.38 68.19 45.491 74.485 87.78l-1.565-1.053c-.528-.353-1.264-.284-1.643.23a1.16 1.16 0 00.28 1.656l4.159 2.8a1.179 1.179 0 001.629-.324zm87.969 142.753l-4.481 2.081c-.578.264-1.294.079-1.586-.489a1.165 1.165 0 01.54-1.59l1.867-.862c-41.67-13.271-70.249-48.842-76.529-89.552a1.452 1.452 0 01-.042-.26c-.002-.015-.003-.036-.012-.05l.008-.001a1.33 1.33 0 01.048-.412 1.322 1.322 0 011.647-.881c.531.163.881.632.93 1.154 6.121 39.795 34.052 74.563 74.8 87.512l-.791-1.713c-.265-.578-.08-1.293.489-1.586a1.16 1.16 0 011.59.54l2.101 4.553a1.178 1.178 0 01-.579 1.556zM631.371 154.24l2.768 4.092c.353.529.284 1.265-.23 1.644a1.166 1.166 0 01-1.656-.28l-1.148-1.706c-6.466 43.252-37.033 77.13-76.224 89.812a1.526 1.526 0 01-.25.083c-.014.004-.035.009-.047.019l-.002-.007a1.333 1.333 0 01-.415.019 1.323 1.323 0 01-1.132-1.486 1.33 1.33 0 01.991-1.102c38.313-12.38 68.19-45.491 74.485-87.78l-1.565 1.053c-.528.353-1.264.285-1.643-.23a1.16 1.16 0 01.28-1.656l4.159-2.799a1.179 1.179 0 011.629.324zM723.34 7.486l-4.481-2.08c-.578-.265-1.294-.08-1.586.489a1.165 1.165 0 00.54 1.59l1.867.861c-41.67 13.271-70.249 48.842-76.529 89.553a1.544 1.544 0 00-.043.26c-.001.014-.002.036-.011.05h.007a1.37 1.37 0 00.049.413 1.321 1.321 0 001.646.88c.532-.162.882-.631.93-1.153 6.122-39.796 34.053-74.564 74.8-87.512l-.791 1.712c-.264.578-.079 1.294.49 1.586a1.16 1.16 0 001.59-.54l2.101-4.552a1.179 1.179 0 00-.579-1.557z" fill="#EBEDF0"/></svg>