<svg width="45" height="46" fill="none" xmlns="http://www.w3.org/2000/svg"><path d="M45 17.88c-.183.189-.347.403-.55.564-4.28 3.37-8.557 6.74-12.848 10.092-1.688 1.318-3.64 2.008-5.718 2.366-1.846.319-3.69.653-5.53 1-.18.034-.367.175-.498.317a2687.251 2687.251 0 00-7.242 7.891c-1.029 1.126-2.067 2.247-3.057 3.408-.987 1.156-2.028 2.196-3.58 2.482h-1.23c-.985-.223-1.862-.636-2.614-1.356C1.11 43.667.25 42.608 0 41.149V39.89c.125-.394.184-.83.39-1.172.354-.593.728-1.206 1.219-1.676 3.177-3.035 6.393-6.027 9.584-9.046.817-.773 1.597-1.584 2.382-2.39a.926.926 0 00.228-.459c.386-2.16.74-4.329 1.146-6.486a12.134 12.134 0 012.243-5.11C20.44 9.238 23.688 4.92 26.94.606c.166-.22.379-.404.568-.605h.528c.373.373.752.74 1.121 1.118 4.97 5.076 9.936 10.154 14.902 15.232.318.325.627.659.939.99l.001.54zM27.787 1.996c-.062.078-.138.167-.21.262-3.043 4.045-6.083 8.095-9.132 12.136-.927 1.228-1.608 2.585-1.912 4.095-.455 2.255-.828 4.526-1.213 6.795-.027.158.102.393.228.522 1.388 1.439 2.795 2.86 4.183 4.298.208.215.396.28.693.225 1.754-.333 3.512-.651 5.272-.956 1.953-.336 3.739-1.044 5.319-2.296 3.216-2.55 6.45-5.075 9.677-7.613.798-.627 1.595-1.256 2.37-1.867-5.1-5.206-10.172-10.39-15.275-15.601zM12.278 29.069c-.142.132-.293.27-.443.411l-3.169 2.98c-2.037 1.917-4.08 3.826-6.108 5.751-1.397 1.326-1.421 3.212-.083 4.606.154.16.31.318.465.477 1.578 1.615 3.333 1.587 4.844-.087 2.83-3.136 5.654-6.279 8.48-9.418.108-.12.21-.242.294-.34a3761.7 3761.7 0 00-4.28-4.38zm1.239-1.175l4.192 4.287.94-.915a13368.61 13368.61 0 01-4.228-4.318l-.904.946z" fill="#fff"/><path d="M40.588 17.63c-.175.24-.285.526-.484.628-.2.103-.498.059-.739.007-.137-.028-.25-.196-.363-.312a4956.033 4956.033 0 01-7.85-8.033c-.15-.155-.346-.358-.35-.542-.004-.251.087-.593.262-.736.173-.143.505-.125.76-.102.133.012.263.177.375.29 2.642 2.696 5.282 5.391 7.915 8.095.177.183.291.429.474.704zm-11.48 8.172c-.189.25-.303.536-.503.633-.203.098-.497.043-.74-.007-.122-.025-.226-.181-.329-.285-2.713-2.772-5.428-5.543-8.132-8.326-.174-.18-.354-.448-.357-.677-.003-.222.168-.535.354-.649.186-.113.493-.06.736-.017.123.022.23.175.333.28 2.714 2.773 5.43 5.543 8.135 8.322.185.191.31.445.503.726zm.872-18.978c-.01.66-.655 1.077-1.087.714-.638-.536-1.216-1.158-1.772-1.79-.252-.286-.155-.66.119-.929.26-.256.614-.34.878-.097.616.568 1.187 1.188 1.762 1.802.08.085.083.245.1.3zM12.323 32.618c.406-.01.762.34.766.758a.763.763 0 01-.709.766.747.747 0 01-.783-.728.76.76 0 01.726-.796zm-3.694 5.313c-.428 0-.743-.328-.737-.767a.756.756 0 01.717-.753c.4-.013.764.344.77.755a.754.754 0 01-.75.765zM4.92 40.218c.422.002.744.34.736.771a.744.744 0 01-.723.744.756.756 0 01-.763-.753.748.748 0 01.75-.762z" fill="#fff"/></svg>