<svg width="45" height="46" fill="none" xmlns="http://www.w3.org/2000/svg"><path d="M44.999 14.288c-.278.225-.524.524-.837.66-1.896.817-3.806 1.6-5.713 2.388-.605.251-1.08.086-1.29-.428-.206-.508.027-.983.62-1.23 1.755-.735 3.513-1.464 5.271-2.195l.488-.2c.738-.304 1.032-.21 1.462.466l-.001.54zM13.974.001c.225.298.523.563.661.898.79 1.91 1.554 3.832 2.293 5.762.107.279.142.684.017.928-.122.236-.476.426-.756.478-.376.07-.659-.198-.806-.56-.335-.828-.661-1.659-.992-2.488L12.99 1.495c-.3-.756-.205-1.057.457-1.495l.528.001zM0 31.72c.292-.229.552-.532.88-.674a241.511 241.511 0 015.634-2.348c.263-.105.606-.121.88-.05.353.093.517.426.512.804-.005.421-.235.693-.607.847-1.025.431-2.051.861-3.078 1.288-.919.382-1.84.76-2.76 1.14-.737.303-1.04.206-1.46-.468a82.426 82.426 0 01-.001-.54zm8.448-8.347c.024-2.566.487-4.71 1.472-6.726.356-.73.802-.98 1.318-.725.524.258.595.77.265 1.511-2.173 4.872-1.729 9.51 1.611 13.613 3.21 3.942 7.485 5.365 12.356 4.108 4.958-1.279 8.045-4.657 9.068-9.786 1.421-7.13-3.491-13.952-10.56-14.836-2.216-.277-4.347.06-6.392.973-.134.06-.266.124-.402.179-.533.216-1.011.04-1.214-.445-.196-.465-.007-.934.49-1.182 1.421-.708 2.919-1.19 4.49-1.317 5.799-.467 10.402 1.732 13.502 6.777 5.13 8.343.46 19.438-8.967 21.512-7.89 1.737-15.577-3.615-16.845-11.74-.117-.737-.151-1.487-.192-1.916z" fill="#fff"/><path d="M32.167 23.173c-.047 2.248-.786 4.343-2.258 6.163-.387.477-.902.566-1.305.235-.407-.334-.442-.873-.068-1.353 1.925-2.477 2.365-5.199 1.317-8.176-.207-.586-.009-1.078.481-1.26.496-.185.937.057 1.162.645.45 1.17.664 2.383.671 3.746zm-4.05-16.008c.023-.077.055-.237.116-.386.814-1.981 1.63-3.96 2.448-5.939.26-.629.737-.871 1.238-.644.479.217.634.73.386 1.333a1361.39 1361.39 0 01-2.487 6.02c-.199.475-.592.697-1.002.607-.426-.094-.71-.461-.699-.99zM16.88 38.855c-.024.078-.06.24-.121.389-.815 1.985-1.632 3.97-2.453 5.951-.245.59-.688.823-1.175.636-.504-.192-.698-.715-.457-1.302.653-1.6 1.318-3.195 1.978-4.793.193-.468.37-.945.587-1.401a.837.837 0 01.993-.466c.408.117.664.472.647.986zM6.992 17.26c-.078-.026-.248-.068-.407-.136-1.925-.826-3.846-1.656-5.768-2.485-.604-.26-.838-.713-.64-1.224.202-.524.709-.695 1.32-.433 1.952.837 3.902 1.676 5.85 2.52.49.212.72.616.627 1.05-.093.434-.452.722-.982.709zm30.993 11.488c.066.02.21.046.344.104 1.968.844 3.937 1.689 5.902 2.541.557.241.771.683.601 1.173-.185.533-.709.73-1.306.474-1.82-.782-3.638-1.569-5.455-2.355-.216-.094-.438-.175-.638-.297a.862.862 0 01-.384-1.006c.122-.4.451-.643.936-.634zM27.924 38.909c.013-.514.213-.804.601-.938.394-.135.722-.003.972.322.08.103.132.233.181.357.796 1.992 1.595 3.984 2.372 5.985.09.233.111.533.055.776-.083.365-.378.568-.748.587-.428.023-.725-.199-.887-.599-.363-.898-.722-1.797-1.08-2.697a817.345 817.345 0 01-1.32-3.324c-.071-.18-.116-.368-.146-.47zm-4.54-34.458c0 .538.008 1.076-.002 1.613-.01.557-.358.933-.851.945-.502.012-.892-.378-.899-.947a129.406 129.406 0 010-3.225c.007-.567.401-.96.901-.945.494.013.838.389.849.947.01.537.002 1.074.002 1.612zM8.756 7.71c.111.066.368.156.544.33a82.845 82.845 0 012.033 2.101c.42.447.43.98.05 1.35-.364.355-.88.334-1.29-.082a150.675 150.675 0 01-2.087-2.173c-.266-.281-.35-.617-.186-.988.152-.343.417-.526.936-.538zM37.46 8.96c-.068.119-.16.378-.331.558a89.214 89.214 0 01-2.056 2.08c-.42.413-.923.429-1.289.065-.378-.377-.363-.912.064-1.35.69-.707 1.39-1.407 2.093-2.105.285-.284.622-.387 1.001-.208.336.16.505.435.518.96zM10.688 34.002c.228.19.512.349.685.591a.717.717 0 01-.073.916 65.029 65.029 0 01-2.406 2.413c-.317.3-.816.208-1.113-.106-.299-.315-.348-.853-.039-1.18a80.654 80.654 0 012.308-2.326c.138-.134.358-.178.638-.309zM4.266 23.744c-.497 0-.994.009-1.49-.002-.552-.014-.914-.358-.928-.862a.873.873 0 01.879-.92 63.68 63.68 0 013.065-.001.876.876 0 01.885.915c-.012.504-.372.845-.923.869l-.088.001h-1.4zm36.514-1.479c.482 0 .965-.01 1.446.003.551.014.913.363.925.866a.877.877 0 01-.884.916 68.76 68.76 0 01-3.067 0 .874.874 0 01-.88-.918c.013-.503.374-.85.926-.864.512-.014 1.023-.003 1.534-.003zm-4.54 16.034c-.112-.067-.367-.16-.543-.334a89.864 89.864 0 01-2.036-2.1c-.42-.445-.428-.98-.044-1.35.37-.357.874-.335 1.288.087.703.716 1.398 1.443 2.088 2.173.266.28.348.618.184.989-.153.345-.42.522-.937.535zm-14.618 3.349c0-.508-.01-1.015.002-1.523.013-.568.393-.958.898-.945.488.012.847.394.853.946.01 1 .007 2.001-.005 3.002-.007.602-.388 1.005-.903.99-.508-.013-.843-.4-.85-.991-.006-.492-.001-.986-.001-1.479h.006zm-8.174-29.313c.475-.01.868.38.877.87.008.494-.364.896-.837.905-.491.008-.915-.406-.912-.89a.897.897 0 01.872-.885zm12.327 18.023a.85.85 0 01.867.868c.005.498-.361.892-.84.905a.891.891 0 01-.9-.899.873.873 0 01.873-.874z" fill="#fff"/></svg>