<svg width="20" height="45" fill="none" xmlns="http://www.w3.org/2000/svg"><path d="M3.628 44.998c-.167-.055-.331-.117-.5-.166C1.316 44.3.059 42.695.04 40.846.025 39.118.036 37.39.036 35.663c0-.784.325-1.413.96-1.893.564-.427 1.125-.86 1.739-1.33-.436-.225-.816-.42-1.193-.619-1.09-.572-1.282-1.717-.437-2.6.213-.224.428-.446.663-.688-.29-.444-.568-.874-.848-1.304-.633-.97-.561-1.595.278-2.418.223-.217.428-.455.672-.646.28-.22.268-.425.107-.712-.309-.55-.556-1.135-.874-1.68-1.312-2.26-1.35-4.647-.653-7.059.921-3.186 2.986-5.448 6.077-6.81.135-.06.27-.123.41-.186v-.92c-.138-.034-.278-.066-.416-.105-.633-.18-1.086-.706-1.096-1.346a71.474 71.474 0 01.004-3.25C5.46.987 6.434.044 7.589.023c1.618-.029 3.236-.03 4.854.001a2.211 2.211 0 012.16 2.167c.02.892.006 1.787.008 2.679 0 1.224-.293 1.602-1.516 1.936v.925c1.249.49 2.392 1.148 3.38 2.043 2.217 2.011 3.368 4.503 3.51 7.45.03.63-.184 1.133-.661 1.56-.795.712-1.568 1.447-2.393 2.211.27.222.525.436.783.643.393.317.792.627 1.181.947.84.692.902 1.67.147 2.462-.583.61-1.181 1.206-1.77 1.809-.102.103-.198.214-.247.266.512.54.973 1.078 1.493 1.557.494.455.746.972.7 1.634-.019.247.009.499-.007.746-.032.524.117.986.324 1.475.243.567.42 1.203.434 1.812.05 2.121.026 4.246.017 6.368-.01 2.079-1.318 3.685-3.395 4.199-.068.016-.13.057-.196.087h-1.078c-.894-.212-1.721-.548-2.336-1.193-.396.264-.742.55-1.136.743-.407.199-.86.304-1.294.451H9.472c-.9-.203-1.725-.547-2.394-1.24-.621.686-1.433.996-2.281 1.24-.39-.002-.78-.002-1.169-.002zM2.084 30.407c.53.27.979.494 1.424.729 1.096.575 1.195 1.691.219 2.453-.585.457-1.2.88-1.758 1.367-.199.173-.38.483-.384.734a148.682 148.682 0 00-.008 5.227c.019 1.155.874 2.178 2 2.49.992.275 2.119-.12 2.671-1.06.46-.783 1.248-.678 1.673.014.948 1.543 3.21 1.507 4.208-.006.556-.844 1.057-.85 1.613-.02.897 1.336 2.656 1.537 3.837.434.594-.556.877-1.243.877-2.044 0-2.065.027-4.13-.018-6.193-.012-.534-.25-1.065-.392-1.594-.114-.42-.399-.86-.336-1.25.218-1.35-.41-2.252-1.425-3.01-.095-.07-.172-.163-.256-.247-.773-.766-.785-1.665-.027-2.446.587-.606 1.17-1.215 1.777-1.803.24-.231.257-.37-.019-.586-.586-.455-1.15-.938-1.719-1.413-.832-.694-.865-1.616-.08-2.354.714-.669 1.42-1.346 2.157-1.99.28-.244.357-.496.32-.843-.412-3.894-2.463-6.563-6.21-7.97-.537-.202-.68-.388-.684-.944-.004-.433-.001-.865-.001-1.291H8.53c-.021.049-.042.074-.043.1-.005.35-.008.701-.01 1.053-.002.736-.105.868-.807 1.122-2.67.962-4.562 2.733-5.527 5.344-.84 2.269-.925 4.549.353 6.741.333.57.608 1.174.907 1.763.47.928.384 1.492-.36 2.214-.34.329-.7.636-1.058.96.362.55.681 1.026.989 1.509.476.749.408 1.434-.197 2.084-.208.223-.424.443-.694.726zM13.07 5.244c0-1.04.013-2.046-.008-3.054-.007-.39-.323-.672-.746-.676a264.3 264.3 0 00-4.627.001c-.385.004-.701.23-.715.604-.039 1.033-.014 2.067-.014 3.125h6.11z" fill="#fff"/><path d="M13.847 18.004c-.027.478-.352.673-.77.794-2.02.587-4.037 1.178-6.057 1.769-.444.129-.886.263-1.333.384-.48.129-.865-.06-1.002-.48-.134-.413.08-.806.559-.947 2.519-.744 5.039-1.482 7.561-2.211.559-.163 1.04.174 1.042.691zm-6.09 14.247c-.428 0-.764-.284-.803-.676a.723.723 0 01.653-.808c2.062-.263 4.124-.517 6.19-.76a.731.731 0 01.817.648c.048.415-.181.757-.626.819-1.362.188-2.729.349-4.094.519-.712.087-1.425.171-2.137.258zm2.911-5.259c-.905-.176-1.904-.37-2.9-.566-.338-.065-.678-.12-1.01-.207-.43-.114-.669-.475-.593-.853.08-.397.418-.67.859-.591 1.324.234 2.645.49 3.96.766.405.085.616.471.548.842-.066.36-.378.607-.864.61z" fill="#fff"/></svg>