<svg width="59" height="85" fill="none" xmlns="http://www.w3.org/2000/svg"><path d="M4.555 32.305C1.715 31.948.008 30.28.003 27.883c-.003-1.51.65-2.702 1.852-3.61 1.18-.891 2.577-.842 3.995-.83v-2.922c-.5 0-1.01.012-1.517-.002C1.885 20.443-.024 18.483 0 16.074c.022-2.361 1.934-4.273 4.345-4.341.486-.015.968-.003 1.503-.003V8.796c-.46 0-.938.007-1.414-.002C1.92 8.742-.019 6.799 0 4.354.02 1.958 1.96.013 4.432.01c16.718-.012 33.433-.015 50.152 0 2.47.003 4.401 1.958 4.414 4.359.012 2.442-1.929 4.373-4.451 4.422-.453.01-.907.003-1.402.003v2.934c.505 0 1.015-.012 1.525.002 2.409.071 4.313 1.992 4.328 4.357.015 2.408-1.897 4.356-4.35 4.427-.483.014-.968.002-1.498.002v2.935c.439 0 .884-.005 1.33 0 2.47.031 4.41 1.823 4.515 4.17.106 2.379-1.615 4.334-4.064 4.608-.15.017-.303.025-.554.042-.3 1.764-.606 3.526-.902 5.288-1.283 7.66-2.557 15.32-3.845 22.978a5352.113 5352.113 0 01-3.518 20.731c-.391 2.276-2.128 3.72-4.443 3.723-8.604.012-17.209.012-25.813 0-2.217-.003-4.086-1.476-4.392-3.57-.965-6.577-1.874-13.16-2.79-19.743-1.355-9.719-2.7-19.44-4.05-29.158-.013-.049-.037-.105-.07-.215zm46.787.015H7.602l2.035 14.54h39.279c.81-4.861 1.616-9.69 2.426-14.54zM10.139 49.877c.67 4.909 1.328 9.733 1.983 14.551.2.027.32.06.44.06 10.908.002 21.816-.003 32.723.016.643 0 .734-.3.818-.812.448-2.795.933-5.583 1.399-8.375.298-1.794.584-3.59.884-5.44H10.14zm2.421 17.589c0 .163-.014.284.003.399.586 4.165 1.17 8.333 1.771 12.496.2 1.377.608 1.713 1.99 1.713 8.324.002 16.644.002 24.968 0 1.374 0 1.813-.385 2.03-1.706.347-2.105.71-4.207 1.059-6.312.362-2.183.714-4.368 1.076-6.59H12.56zM29.498 2.937H5.16c-.308 0-.621-.03-.919.022-.796.142-1.274.63-1.274 1.442 0 .81.48 1.294 1.274 1.444.268.05.552.022.828.022h48.858c.276 0 .56.026.828-.022.79-.15 1.276-.632 1.276-1.442 0-.81-.478-1.3-1.273-1.441-.298-.054-.614-.022-.92-.022-8.116-.003-16.23-.003-24.341-.003zm.093 11.725H5.161c-.308 0-.621-.03-.919.022-.796.142-1.274.63-1.276 1.44 0 .81.48 1.294 1.274 1.443.268.052.551.025.827.025h48.859c.276 0 .56.027.828-.022.793-.15 1.276-.632 1.276-1.442 0-.81-.478-1.3-1.274-1.441-.298-.054-.613-.025-.919-.025H29.591zm0 11.723H5.161c-.308 0-.621-.03-.919.022-.796.142-1.274.629-1.276 1.439 0 .81.48 1.295 1.274 1.444.268.051.551.024.827.024h48.859c.276 0 .56.027.828-.022.793-.149 1.276-.631 1.276-1.441s-.478-1.3-1.274-1.442c-.298-.053-.613-.022-.919-.024H29.591zM8.925 8.815v2.854h41.15V8.816H8.926zM8.89 23.393h41.186v-2.82H8.89v2.82z" fill="#86DA00"/></svg>