<svg width="84" height="85" fill="none" xmlns="http://www.w3.org/2000/svg"><path d="M12.261 85c-.765-.313-1.588-.532-2.289-.954-1.963-1.177-2.641-3.07-2.87-5.242-.587-5.554-1.246-11.1-1.846-16.653-.06-.56-.319-.652-.79-.707-2.558-.297-4.35-2.191-4.46-4.677-.11-2.426 1.523-4.528 3.952-5.042.484-.102.995-.1 1.492-.102 2.077-.011 4.152-.005 6.296-.005-1.118-2.434-.98-4.993-1.308-7.468-.466-3.506-.814-7.027-1.218-10.584-.285-.056-.548-.115-.816-.16-2.353-.399-3.98-2.439-3.82-4.794.157-2.304 2.113-4.142 4.49-4.195.974-.023 1.947-.005 2.921-.005h2.758c-1.026-5.313-1.238-10.701-2.041-16.008-.493-.133-.986-.22-1.444-.4-1.874-.744-2.893-2.63-2.532-4.629.337-1.86 1.988-3.28 3.92-3.368.194-.009.39-.007.584-.007h57.54c2.367 0 4.112 1.337 4.471 3.408.433 2.506-1.12 4.464-4.009 4.97-.167 1.426-.341 2.874-.508 4.324-.11.947-.65 1.481-1.41 1.395-.763-.089-1.185-.714-1.082-1.668.143-1.341.308-2.68.47-4.069H15.28c.301 2.688.596 5.324.893 7.959.2 1.785.421 3.57.602 5.357.192 1.89 1.077 2.725 2.969 2.725 14.837.002 29.674.002 44.513 0 1.865 0 2.763-.82 2.95-2.654.106-1.044.22-2.091.351-3.133.1-.794.605-1.238 1.325-1.2.707.035 1.24.576 1.158 1.344-.203 1.856-.475 3.707-.732 5.65h2.177c1.17 0 2.34-.027 3.507.009 2.33.068 4.245 1.907 4.408 4.186.17 2.349-1.461 4.398-3.814 4.797-.246.042-.493.084-.812.142-.235 2.046-.473 4.1-.705 6.153-.353 3.131-.676 6.269-1.071 9.395-.105.832-.422 1.637-.66 2.526 2.184 0 4.396.007 6.612-.002 1.249-.005 2.364.368 3.294 1.189 1.562 1.374 2.1 3.113 1.542 5.1-.573 2.038-2.003 3.22-4.098 3.508-.678.093-.906.279-.982.984-.624 5.828-1.293 11.65-1.976 17.474-.274 2.341-2.041 4.293-4.372 4.931-.212.058-.42.131-.63.198H28.134c-.11-.116-.279-.215-.32-.35-.128-.45-.39-.974-.26-1.355.116-.34.662-.575 1.062-.761.23-.106.548-.024.825-.024 13.697 0 27.392.002 41.088-.003 2.129 0 3.492-1.153 3.74-3.224.56-4.694 1.086-9.393 1.621-14.09.136-1.195.254-2.392.381-3.616H7.768c0 .27-.02.488.002.7.645 5.66 1.279 11.32 1.948 16.975.25 2.105 1.593 3.253 3.707 3.258 3.008.006 6.015-.018 9.02.024.45.007 1.001.202 1.318.503.548.526.332 1.207-.478 1.963C19.61 85 15.935 85 12.261 85zm-.495-51.46c.027.316.042.583.071.849.531 4.696 1.08 9.393 1.588 14.092.226 2.086 1.323 3.135 3.434 3.135 16.755.002 33.512.002 50.267 0 2.11 0 3.215-1.049 3.434-3.135.341-3.245.73-6.484 1.095-9.724.194-1.72.384-3.444.58-5.218h-60.47zm30.269 20.569H5.707c-.306 0-.613-.012-.92.008a2.444 2.444 0 00-2.274 2.251 2.41 2.41 0 001.985 2.581c.38.069.776.073 1.164.073 24.218.003 48.437.003 72.654 0 .388 0 .783-.004 1.162-.075.997-.184 1.651-.796 1.908-1.756.256-.958.055-1.896-.779-2.45a3.845 3.845 0 00-1.996-.612c-12.19-.03-24.383-.02-36.576-.02zM41.993 26.9H9.843c-.306 0-.616-.015-.917.02-1.024.122-1.796.947-1.836 1.943-.042 1.01.638 1.87 1.675 2.066.353.067.719.07 1.08.07L74.142 31c.306 0 .616.007.917-.035 1.127-.162 1.885-1.038 1.838-2.102-.047-1.06-.885-1.883-2.003-1.956-.277-.018-.555-.007-.834-.007H41.992zm-.027-21.074H68.51c.89 0 1.782.02 2.67-.01.946-.03 1.637-.751 1.64-1.645.004-.86-.65-1.57-1.546-1.663-.248-.026-.5-.013-.75-.013H13.428c-.25 0-.505-.013-.75.015-.888.105-1.537.839-1.517 1.692.023.86.694 1.553 1.588 1.617.277.02.556.009.835.009 9.46-.002 18.921-.002 28.382-.002z" fill="#FF552C"/></svg>