<svg width="80" height="77" fill="none" xmlns="http://www.w3.org/2000/svg"><path d="M46.125 44.625v2.648H33.832l-.164-2.05 7.113-11.285h2.684L40.559 38.8l-3.54 5.824h9.106zm-1.934-10.688V51h-3.375V33.937h3.375zM.002 63.093a.62.62 0 01.015-.135c.566-2.356 1.967-4.307 3.153-6.357 4.328-7.484 8.684-14.95 13.028-22.423.075-.129.146-.259.22-.397a.558.558 0 00-.21-.75c-1.028-.595-2.047-1.188-3.1-1.798a.56.56 0 01.063-1l10.405-4.415a.566.566 0 01.784.45l1.353 11.165a.562.562 0 01-.839.552l-3.103-1.772a.568.568 0 00-.76.19 4.061 4.061 0 00-.07.114c-5.034 8.66-10.048 17.331-15.115 25.97-1.204 2.054-.022 3.825 1.35 4.162.398.098.824.113 1.235.113 5.181.007 10.362.005 15.542.005h.337c.31 0 .562.25.562.56v4.28a.561.561 0 01-.562.558c-.124 0-.246 0-.37-.002-5.26-.044-10.518-.086-15.777-.132-4.117-.035-7.154-2.524-8.014-6.558a.587.587 0 00-.063-.152.551.551 0 01-.066-.263l.002-1.965zm65.312-16.816c1.296-.744 2.557-1.468 3.839-2.206.26-.15.594-.06.744.2 2.984 5.21 5.99 10.412 8.943 15.64 2.266 4.013 1.126 8.618-2.67 11.018-1.45.918-3.063 1.242-4.765 1.242-10.183-.005-20.364-.001-30.547-.001h-.455a.56.56 0 00-.563.558v3.712c0 .46-.53.724-.902.447l-9.355-6.969a.558.558 0 010-.896l9.301-6.933a.563.563 0 01.902.446V66.2c0 .29.223.534.513.557.061.005.12.009.178.009 10.365.001 20.73.005 31.095 0 1.963-.002 3.212-1.27 2.957-3.043-.07-.491-.318-.98-.572-1.42-2.925-5.063-5.867-10.117-8.852-15.256a.567.567 0 01.21-.77zM27.76 22.089l-3.698-2.124a.562.562 0 01-.205-.77l2.259-3.834c2.211-3.745 4.403-7.503 6.641-11.233C35.3-.108 40.43-1.293 44.311 1.554c1.031.756 1.904 1.855 2.558 2.965 5.004 8.502 9.937 17.045 14.892 25.573.06.103.12.202.185.307.16.256.496.342.76.192 1.02-.58 2.036-1.16 3.113-1.77.4-.228.893.096.839.553l-1.349 11.163a.564.564 0 01-.781.449l-10.41-4.42a.558.558 0 01-.062-1l3.102-1.785a.558.558 0 00.214-.75l-.082-.144c-5.007-8.62-10.018-17.235-15.02-25.856-.444-.763-.959-1.42-1.866-1.647-1.058-.265-1.962.01-2.673.827-.236.27-.418.592-.6.904-2.813 4.834-5.622 9.67-8.435 14.503-.054.094-.112.187-.17.282a.573.573 0 01-.766.189z" fill="#fff"/></svg>