<svg width="68" height="82" fill="none" xmlns="http://www.w3.org/2000/svg"><path d="M32.598 34.126H2.836v27.297h24.31v2.744H2.775c0 1.419-.013 2.746.005 4.074.02 1.448-.09 2.924.138 4.34.944 5.82 7.311 8.478 12.204 5.207.914-.61 2.005-1.044 3.075-1.304 1.55-.377 3.053.04 4.35.955 1.399.986 2.889 1.659 4.621 1.782v2.696c-2.04-.06-3.826-.675-5.454-1.761-2.097-1.398-3.179-1.376-5.267-.023-3.474 2.249-7.136 2.507-10.778.552C2.067 78.751.098 75.603.08 71.48.024 57.54-.085 43.594.117 29.656c.116-7.93 4.109-13.644 11.247-17.056.678-.324 1.043-.637.928-1.426-.073-.495-.014-1.01-.014-1.578H9.629V6.852h2.649c0-1.733-.002-3.376 0-5.016.002-1.398.433-1.831 1.825-1.833 3.338-.003 6.676-.005 10.014 0 1.277.002 1.735.465 1.74 1.749.006 1.65.002 3.298.002 5.04h2.66V9.54h-2.656c0 .844-.036 1.63.027 2.408.016.18.354.388.585.49 5.29 2.346 8.88 6.264 10.683 11.784.444 1.359.637 2.803.977 4.347l-2.77.205c-.105-.609-.187-1.188-.305-1.76-1.263-6.047-4.773-10.169-10.505-12.377-1.24-.476-1.413-.707-1.413-2.075V9.619h-8.147v2.816c0 1.547-.112 1.709-1.542 2.233-6.84 2.516-11.207 9.345-10.629 16.721h29.772c.002.929.002 1.77.002 2.737zM15.035 6.768h8.041V2.776h-8.04v3.992z" fill="#0CBCB9"/><path d="M40.754 81.949c-2.179 0-4.356.009-6.535-.003-2.544-.013-4.263-1.735-4.283-4.278-.007-1.054.052-2.11-.014-3.157-.102-1.574.104-3.043.962-4.407.147-.235.117-.752-.048-.987-1.066-1.517-1.018-3.237-.857-4.925.07-.75.614-1.443.866-2.192.109-.326.163-.825-.007-1.07-1.061-1.518-1.011-3.233-.861-4.926.065-.723.505-1.432.854-2.105.236-.454.284-.817-.002-1.252-.775-1.184-.984-2.489-.911-3.898.079-1.533.01-3.073.02-4.61.011-1.722.79-2.99 2.297-3.793.848-.451 1.74-.828 2.562-1.32.268-.16.527-.575.542-.886a46.78 46.78 0 00.019-3.67c-.044-1.591.678-2.76 2-3.507 2.204-1.248 4.485-1.275 6.725-.085 1.438.764 2.207 1.978 2.152 3.675-.038 1.193.018 2.39-.02 3.585-.016.475.15.717.562.91.896.42 1.778.872 2.649 1.341 1.478.799 2.217 2.065 2.229 3.748.013 2.02.088 4.046-.037 6.058-.052.832-.5 1.658-.864 2.443-.213.463-.283.832.023 1.252 1.086 1.498.996 3.232.835 4.922-.068.723-.613 1.389-.858 2.107-.11.326-.165.826.005 1.07 1.061 1.519 1.018 3.236.857 4.927-.07.75-.612 1.446-.862 2.194-.108.328-.158.805 0 1.072.758 1.27 1.019 2.61.921 4.076-.077 1.133-.009 2.276-.016 3.414-.018 2.546-1.732 4.26-4.285 4.272-2.207.014-4.413.005-6.62.005zm-2.673-44.262c0 .522-.036.894.007 1.259.129 1.092-.331 1.76-1.327 2.194-1.036.45-2.009 1.04-3.036 1.51-.769.351-1.109.882-1.084 1.73.034 1.223.073 2.45-.007 3.668-.095 1.467.13 2.822.955 4.049.542.805.449 1.565-.012 2.39-.53.956-1.197 1.928-.909 3.105.222.916.513 1.84.937 2.675.433.853.44 1.57-.018 2.404-.495.906-.99 1.79-.98 2.935.009 1.111.506 1.969.982 2.847.456.837.476 1.567.002 2.4-.388.679-.837 1.42-.9 2.168-.136 1.581-.06 3.182-.034 4.776.013.853.537 1.408 1.38 1.41 4.497.018 8.994.018 13.49.002.885-.002 1.395-.554 1.409-1.47.02-1.566.034-3.13-.002-4.695-.03-1.304-.8-2.02-2.073-2.02H36.777V68.29h10.057c1.25 0 1.886-.486 2.08-1.74a6.902 6.902 0 00.004-1.957c-.173-1.241-.832-1.766-2.057-1.766H36.78v-2.732h10.056c1.25 0 1.887-.488 2.077-1.743a6.818 6.818 0 00.002-1.957c-.172-1.243-.832-1.765-2.056-1.765h-10.08v-2.732h9.89c1.55 0 1.557.004 2.13-1.428.103-.253.137-.548.137-.824.011-1.763-.014-3.528.016-5.291.013-.81-.3-1.341-1.025-1.688-1.123-.538-2.213-1.14-3.338-1.67-.758-.355-1.132-.89-1.082-1.738.03-.492.005-.987.005-1.56-1.857.703-3.599.714-5.431-.013zm2.71-1.991c.791-.297 1.564-.486 2.231-.865.658-.372.621-.887.05-1.369-1.075-.905-3.472-.905-4.547-.002-.578.486-.614.992.046 1.367.666.376 1.437.572 2.22.869z" fill="#0CBCB9"/><path d="M54.773 80.674l-1.83-1.818c1.285-1.444 3.612-1.656 5.217-.379.724.575 1.445.808 2.332.75.705-.045 1.415.014 2.12-.018 1.374-.059 2.542-1.101 2.594-2.456.072-1.87.018-3.745.018-5.711H54.419v-2.715h10.764v-2.743H54.437V62.84h10.758v-2.714h-10.77v-2.744h10.858c-.109-.68-.12-1.305-.315-1.864-1.29-3.692-1.477-5.036-.338-9.052h-10.2v-2.73h10.742v-2.744H54.419v-2.715h10.853l-.234-2.744h-10.61v-2.746h9.96c-.588-1.094-1.021-2.077-1.609-2.96-1.242-1.866-2.59-3.66-3.839-5.522a3.003 3.003 0 01-.471-1.487c-.06-1.645-.023-3.294-.023-5.002h-5.43c0 1.613.051 3.225-.028 4.833-.03.611-.229 1.293-.567 1.797-1.385 2.074-2.855 4.09-4.356 6.216-.721-.402-1.472-.817-2.324-1.291.435-.67.818-1.291 1.231-1.889 1.095-1.587 2.624-3.026 3.186-4.783.553-1.729.134-3.772.14-5.677 0-.198-.008-.399.005-.597.055-.858.544-1.387 1.402-1.394 2.687-.02 5.374-.023 8.06 0 .88.007 1.382.563 1.393 1.487.02 1.679.052 3.36-.011 5.034-.034.88.215 1.574.732 2.263 1.007 1.336 1.955 2.718 2.912 4.091 2.086 3.002 3.113 6.348 3.156 10.002.023 1.934.123 3.877-.031 5.8-.12 1.48-.501 2.958-.914 4.393-.465 1.613-.59 3.198.002 4.77.766 2.03.986 4.114.966 6.271-.05 5.632-.014 11.266-.018 16.9-.002 3.635-2.26 5.9-5.88 5.904-.82.003-1.662.117-2.456-.032-.889-.166-1.837-.42-2.569-.916-.778-.53-1.435-.849-2.274-.324zM8.149 54.594H5.536V42.41H8.15v12.184zm.12-25.764c-.928-.11-1.758-.205-2.671-.312.358-3.082 1.578-5.65 3.673-7.917.655.632 1.277 1.227 1.943 1.873-1.632 1.806-2.619 3.872-2.945 6.356zm4.726-7.93c-.474-.716-.95-1.44-1.504-2.279l3.37-1.63.843 2.59-2.71 1.319zM8.162 39.57h-2.61v-2.64h2.61v2.64zm29.883 5.564v3.989h-2.613v-3.99h2.613z" fill="#0CBCB9"/></svg>