<svg width="50" height="83" fill="none" xmlns="http://www.w3.org/2000/svg"><path d="M12.434 6.926c.08-.99.058-1.865.23-2.7.506-2.46 2.616-4.174 5.123-4.207 1.991-.027 3.983-.023 5.972-.002 3.037.03 5.334 2.345 5.373 5.39.007.46 0 .922 0 1.522h3.53c1.605.002 2.01.397 2.012 1.967.003 1.44.003 2.88 0 4.321-.002 1.6-.4 2.006-1.973 2.008h-2.123v3.279c2.988.778 5.24 2.696 7.346 4.89 2.295 2.39 4.733 4.644 7.064 6.998 4.275 4.317 5.716 9.486 4.7 15.444-1.644 9.645-3.21 19.304-4.81 28.956-.193 1.164-.271 2.364-.616 3.481-.789 2.556-2.748 3.886-5.234 4.527-.606.157-1.256.187-1.888.19-9.955.011-19.908.014-29.864.004-4.265-.002-7.233-2.97-7.235-7.237-.007-11.35.09-22.702-.04-34.053-.064-5.794 1.57-10.98 4.87-15.626 1.71-2.406 3.805-4.539 5.692-6.82.28-.336.495-.814.534-1.246.082-.882.026-1.778.026-2.787-.87 0-1.695.01-2.519-.002-1.126-.016-1.626-.515-1.633-1.648a362.158 362.158 0 010-5.014c.01-1.127.511-1.62 1.65-1.63 1.265-.014 2.53-.005 3.813-.005zm23.626 73.3c.594 0 1.055.014 1.515-.002 2.264-.08 3.874-1.528 4.212-3.758.095-.626.218-1.247.32-1.872 1.598-9.652 3.143-19.311 4.817-28.95.893-5.136-.21-9.6-3.916-13.324a686.747 686.747 0 00-8.866-8.74c-1.855-1.798-4.154-2.745-6.707-2.796-4.585-.09-9.174-.034-13.76-.006-.36.002-.801.163-1.058.406-3.224 3.063-5.891 6.544-7.809 10.573-1.67 3.511-2.262 7.205-1.924 11.131h.964c5.02 0 10.04.014 15.058-.013.824-.005 1.407.26 1.936.893a4291.07 4291.07 0 0014.529 17.15c.476.56.703 1.131.698 1.872-.02 5.474-.011 10.945-.011 16.418.002.307.002.619.002 1.018zM2.815 45.652v.923c0 9.705-.003 19.408 0 29.113 0 2.862 1.697 4.538 4.59 4.538 8.307.003 16.613 0 24.92 0h.883c.044-.17.072-.224.072-.277.004-5.586.014-11.173-.007-16.76 0-.304-.183-.66-.389-.902-4.515-5.349-9.05-10.684-13.564-16.035-.367-.434-.73-.621-1.306-.616-4.758.023-9.519.014-14.277.014-.28.002-.56.002-.922.002zM31.866 9.754H9.781v2.658h22.085V9.754zM15.282 6.866h11.082c0-.489.004-.918 0-1.345-.021-1.686-1.071-2.731-2.771-2.74-1.904-.01-3.808-.02-5.709.004-1.485.018-2.551 1.087-2.598 2.56-.016.485-.004.972-.004 1.521zm12.425 8.406H13.954v2.657h13.753v-2.657z" fill="#FFDC00"/><path d="M36.974 45.663c-1.8-.048-3.236-.54-4.374-1.65-2.473-2.415-4.948-4.832-7.335-7.33-2.338-2.45-2.211-6.29.169-8.652 2.39-2.371 6.222-2.498 8.67-.169 2.502 2.383 4.963 4.816 7.33 7.335 1.827 1.946 2.146 4.3 1.075 6.736-1.083 2.451-3.104 3.596-5.535 3.73zm3.284-6.348c.012-1.016-.4-1.847-1.1-2.546-2.242-2.242-4.474-4.495-6.736-6.716-1.483-1.457-3.637-1.454-5.038-.048-1.374 1.378-1.365 3.483.039 4.965.613.649 1.26 1.268 1.892 1.898 1.652 1.648 3.285 3.317 4.964 4.94 1.122 1.083 2.463 1.362 3.904.718 1.367-.61 2.04-1.718 2.075-3.211zm-22.247 9.162v2.664H5.655v-2.664H18.01zm-2.769 5.533v2.707H5.655V54.01h9.588zm12.546 20.72h2.674v2.685h-2.674V74.73z" fill="#FFDC00"/></svg>