<svg width="91" height="91" fill="none" xmlns="http://www.w3.org/2000/svg"><path d="M11.496 0h67.942c1.333.553 2.497 1.273 3.117 2.683a2189.87 2189.87 0 005.781 13.038c.868 1.937 1.773 3.858 2.664 5.786v1.066c-.169.337-.368.665-.504 1.014-1.62 4.157-3.224 8.32-4.842 12.48-1.229 3.157-2.469 6.308-3.735 9.54.161.28.432.672.622 1.101 2.638 5.91 5.263 11.827 7.898 17.739.15.337.373.641.561.96v1.243c-.138.25-.306.49-.409.753-2.63 6.75-5.26 13.498-7.874 20.256-.927 2.398-2.257 3.34-4.843 3.34H45.776c-10.997 0-21.993.003-32.988-.002-2.145 0-3.702-1.047-4.429-2.923C5.613 80.99 2.852 73.911.14 66.814c-.18-.465-.162-1.135.032-1.593 1.305-3.044 2.683-6.057 4.035-9.08 1.604-3.587 3.205-7.175 4.826-10.798-.19-.368-.48-.82-.673-1.31A3779.25 3779.25 0 01.13 22.774c-.171-.444-.176-1.083.012-1.513C2.696 15.44 5.356 9.664 7.868 3.822 8.638 2.038 9.614.635 11.496 0zM29.3 43.935v-1.033c0-3.82-.002-7.64.005-11.463 0-.352.002-.72.1-1.052.197-.674.708-1.035 1.394-1.023.682.011 1.19.375 1.364 1.063.086.34.095.703.095 1.055.007 3.82.005 7.64.005 11.463v.954H58.67V42.89c0-3.317-.002-6.634.002-9.95 0-.323.003-.656.072-.97.163-.73.67-1.122 1.399-1.127.732-.005 1.24.39 1.419 1.111.076.311.069.646.069.969.004 3.348.002 6.693.002 10.04v.965h4.405V33.117c0-.237-.007-.474.005-.71.045-.963.606-1.571 1.447-1.574.841-.002 1.454.618 1.457 1.563.014 3.523.007 7.05.007 10.573v.973h4.424v-1.724c0-3.229-.005-6.456.002-9.685.003-1.03.552-1.671 1.412-1.7.9-.028 1.468.615 1.501 1.7.008.238.003.475.003.71 0 3.258-.003 6.515.002 9.776 0 .31.033.62.055.975h1.974c.775 0 1.243-.365 1.528-1.101 2.393-6.207 4.81-12.406 7.214-18.61.09-.233.143-.478.22-.746H54.286c0 .867.007 1.688-.003 2.507-.033 2.982-1.798 4.749-4.769 4.758-2.697.008-5.393.008-8.093 0-2.974-.009-4.742-1.77-4.773-4.753-.01-.82-.002-1.64-.002-2.5H3.657c.031.18.031.299.071.404 2.467 6.37 4.926 12.743 7.435 19.094.152.387.675.798 1.088.879.732.142 1.514.04 2.379.04V31.648c0-.266-.01-.535.01-.8.061-.896.641-1.491 1.44-1.496.826-.005 1.456.634 1.46 1.57.017 2.99.008 5.982.008 8.974v4.037h4.424V32.676c0-.682-.03-1.365.026-2.042.064-.75.734-1.327 1.46-1.275.76.057 1.277.453 1.392 1.244.047.32.035.65.035.976.002 3.792.002 7.581.002 11.373v.98c1.533.003 2.937.003 4.413.003zM3.69 67.567c0 .159-.016.223.003.273 2.483 6.425 4.959 12.852 7.482 19.263.147.373.63.786 1.015.855.762.133 1.568.04 2.445.04v-1.037c0-3.405-.003-6.812 0-10.217 0-.682-.024-1.365.033-2.042.064-.788.663-1.301 1.42-1.304.752-.002 1.353.523 1.45 1.29.034.263.017.531.017.797v12.499h4.424V75.5c0-.297-.028-.601.029-.886.15-.762.632-1.206 1.418-1.209.782-.002 1.283.414 1.426 1.19.06.316.04.648.04.974.003 3.88-.007 7.759.02 11.639.002.277.235.788.38.795 1.316.062 2.635.036 4.01.036v-12.56c0-.267-.016-.537.024-.799.121-.771.725-1.303 1.464-1.282.789.024 1.264.463 1.42 1.218.065.314.053.649.053.972.002 3.82.002 7.64.002 11.46v.938h26.408v-9.725c0-.681-.033-1.365.029-2.042.076-.824.727-1.389 1.478-1.375.753.015 1.354.601 1.444 1.423.026.235.012.472.012.71v11.068c1.172 0 2.236-.059 3.291.02.893.066 1.155-.202 1.138-1.121-.061-3.227-.023-6.456-.023-9.683 0-.237-.005-.474.002-.71.03-1.08.613-1.737 1.502-1.704.85.03 1.406.684 1.409 1.712.007 3.495.002 6.99.002 10.482v.938h4.424v-2.094c0-3.11-.005-6.218.003-9.329.002-1.025.558-1.678 1.411-1.71.886-.03 1.468.627 1.502 1.708.007.237.002.475.002.71 0 3.257-.002 6.515.002 9.773 0 .31.031.624.05 1.009.687 0 1.274-.005 1.863.002.844.01 1.355-.375 1.663-1.18 2.37-6.152 4.767-12.294 7.153-18.44.102-.265.183-.54.282-.84H54.28c0 .94.021 1.824-.005 2.707-.078 2.761-1.884 4.528-4.629 4.537-2.725.008-5.453.005-8.18.003-3.016-.002-4.798-1.776-4.822-4.796-.007-.815 0-1.632 0-2.472H3.69zm59.396-20.571c0 1.355.002 2.595 0 3.832-.005 3.19-1.759 4.953-4.94 4.953-8.445.002-16.892.002-25.337 0-3.193 0-4.951-1.755-4.956-4.937-.003-1.258 0-2.516 0-3.727-.185-.064-.243-.1-.297-.1-5.035-.01-10.072-.017-15.107-.022-.708 0-1.143.376-1.421 1.007-2.324 5.245-4.655 10.485-6.981 15.728-.102.23-.174.475-.266.738h83.415c-.157-.372-.276-.67-.404-.961-2.25-5.05-4.526-10.091-6.727-15.163-.435-1.004-1.022-1.375-2.086-1.365-4.59.038-9.184.017-13.777.017h-1.116zm0-44.007c0 1.382.004 2.707 0 4.032-.012 2.904-1.816 4.71-4.722 4.713-8.596.005-17.193.005-25.787 0-2.909-.002-4.715-1.807-4.724-4.708-.005-1.325 0-2.652 0-3.987-.2-.043-.311-.085-.423-.085-4.98-.005-9.96-.005-14.939-.003-.74 0-1.188.397-1.48 1.062C8.728 9.179 6.43 14.34 4.14 19.503c-.125.287-.24.58-.375.907h83.418c-.153-.363-.26-.634-.378-.902-2.248-5.053-4.527-10.094-6.727-15.168-.449-1.035-1.062-1.422-2.157-1.412-4.624.035-9.248.014-13.872.016-.292.003-.58.026-.962.045zm-32.208.04c-.055.162-.088.217-.088.271-.01 1.126-.02 2.249-.02 3.374.003 1.722.419 2.135 2.168 2.135 8.354.002 16.71 0 25.065 0 .295 0 .597.005.886-.04.654-.1 1.162-.478 1.19-1.133.065-1.524.022-3.051.022-4.606H30.878zM30.875 47.1c-.043.14-.09.22-.092.304a319.34 319.34 0 00-.015 3.376c.005 1.62.43 2.035 2.07 2.035h25.25c.207 0 .416.005.623-.007.79-.043 1.345-.465 1.386-1.232.073-1.47.02-2.944.02-4.476H30.876zm8.723-23.554c0 1.01-.024 1.924.007 2.835.031.915.59 1.494 1.52 1.501 2.897.026 5.794.019 8.693.002.765-.004 1.38-.41 1.46-1.163.11-1.038.03-2.097.03-3.175h-11.71zm11.74 44.052H39.634c-.017.173-.036.29-.036.403-.002.77-.017 1.539.002 2.308.024.988.533 1.594 1.514 1.605 2.899.038 5.8.038 8.701 0 .982-.011 1.495-.617 1.519-1.602.02-.886.004-1.77.004-2.714z" fill="#7376BC"/></svg>