<svg width="80" height="77" fill="none" xmlns="http://www.w3.org/2000/svg"><path d="M37.348 43.23l-2.696-.644.973-8.648h9.586v2.73h-6.809l-.422 3.785c.227-.133.57-.273 1.032-.422a4.801 4.801 0 011.547-.234c.828 0 1.562.129 2.203.387.64.257 1.183.632 1.629 1.125.453.492.797 1.093 1.03 1.804.235.711.352 1.516.352 2.414 0 .758-.117 1.48-.351 2.168-.234.68-.59 1.29-1.066 1.828a4.975 4.975 0 01-1.794 1.254c-.718.305-1.57.457-2.554.457a6.99 6.99 0 01-2.133-.328 5.852 5.852 0 01-1.84-.972 5.016 5.016 0 01-1.3-1.559c-.32-.617-.489-1.32-.505-2.11h3.352c.047.485.172.903.375 1.255a2.2 2.2 0 00.832.796c.344.188.746.282 1.207.282.43 0 .797-.082 1.102-.246a2 2 0 00.738-.68c.187-.297.324-.64.41-1.031.094-.399.14-.828.14-1.29 0-.46-.054-.878-.163-1.253a2.68 2.68 0 00-.504-.973 2.232 2.232 0 00-.867-.633c-.344-.148-.746-.222-1.207-.222-.626 0-1.11.097-1.454.292a3.5 3.5 0 00-.843.669zM.002 63.093a.62.62 0 01.015-.135c.566-2.356 1.967-4.307 3.153-6.357 4.328-7.484 8.684-14.95 13.028-22.423.075-.129.146-.259.22-.397a.558.558 0 00-.21-.75c-1.028-.595-2.047-1.188-3.1-1.798a.56.56 0 01.063-1l10.405-4.415a.566.566 0 01.784.45l1.353 11.165a.562.562 0 01-.839.552l-3.103-1.772a.568.568 0 00-.76.19 4.061 4.061 0 00-.07.114c-5.034 8.66-10.048 17.331-15.115 25.97-1.204 2.054-.022 3.825 1.35 4.162.398.098.824.113 1.235.113 5.181.007 10.362.005 15.542.005h.337c.31 0 .562.25.562.56v4.28a.561.561 0 01-.562.558c-.124 0-.246 0-.37-.002-5.26-.044-10.518-.086-15.777-.132-4.117-.035-7.154-2.524-8.014-6.558a.587.587 0 00-.063-.152.551.551 0 01-.066-.263l.002-1.965zm65.312-16.816c1.296-.744 2.557-1.468 3.839-2.206.26-.15.594-.06.744.2 2.984 5.21 5.99 10.412 8.943 15.64 2.266 4.013 1.126 8.618-2.67 11.018-1.45.918-3.063 1.242-4.765 1.242-10.183-.005-20.364-.001-30.547-.001h-.455a.56.56 0 00-.563.558v3.712c0 .46-.53.724-.902.447l-9.355-6.969a.558.558 0 010-.896l9.301-6.933a.563.563 0 01.902.446V66.2c0 .29.223.534.513.557.061.005.12.009.178.009 10.365.001 20.73.005 31.095 0 1.963-.002 3.212-1.27 2.957-3.043-.07-.491-.318-.98-.572-1.42-2.925-5.063-5.867-10.117-8.852-15.256a.567.567 0 01.21-.77zM27.76 22.089l-3.698-2.124a.562.562 0 01-.205-.77l2.259-3.834c2.211-3.745 4.403-7.503 6.641-11.233C35.3-.108 40.43-1.293 44.311 1.554c1.031.756 1.904 1.855 2.558 2.965 5.004 8.502 9.937 17.045 14.892 25.573.06.103.12.202.185.307.16.256.496.342.76.192 1.02-.58 2.036-1.16 3.113-1.77.4-.228.893.096.839.553l-1.349 11.163a.564.564 0 01-.781.449l-10.41-4.42a.558.558 0 01-.062-1l3.102-1.785a.558.558 0 00.214-.75l-.082-.144c-5.007-8.62-10.018-17.235-15.02-25.856-.444-.763-.959-1.42-1.866-1.647-1.058-.265-1.962.01-2.673.827-.236.27-.418.592-.6.904-2.813 4.834-5.622 9.67-8.435 14.503-.054.094-.112.187-.17.282a.573.573 0 01-.766.189z" fill="#fff"/></svg>