<svg width="67" height="85" fill="none" xmlns="http://www.w3.org/2000/svg"><path d="M27.633 84.996c-.855-.442-1.802-.77-2.545-1.353-1.122-.88-1.623-2.156-1.64-3.584-.017-1.41-.04-2.823.012-4.232.023-.625-.177-.913-.77-1.142a1970.505 1970.505 0 01-13.377-5.232c-4.18-1.645-5.977-4.271-5.977-8.702v-1.238C1.234 58.575-.011 57.045.002 54.75c.011-2.26 1.245-3.768 3.334-4.698v-.805c0-7.662-.005-15.325.011-22.99.002-.554-.139-.85-.672-1.13C.93 24.21 0 22.717 0 20.756c-.002-1.999.956-3.498 2.736-4.42.47-.244.615-.493.613-.998-.022-3.347-.015-6.696-.011-10.043C3.342 2.093 5.456.002 8.693.002c16.531-.003 33.065-.003 49.596 0 3.28 0 5.37 2.089 5.375 5.358.005 3.32.014 6.64-.011 9.958-.005.503.123.765.595 1.009 1.787.918 2.747 2.417 2.752 4.41.004 1.997-.952 3.498-2.731 4.425-.468.244-.632.488-.616.998.038 1.271.02 2.544.009 3.817-.011 1.138-.678 1.885-1.666 1.89-.987.006-1.67-.743-1.681-1.872-.011-1.382-.002-2.761-.002-4.203H6.74V49.76h53.572v-2.351c0-.748-.02-1.495.009-2.24.038-.956.732-1.648 1.63-1.668.928-.02 1.678.685 1.703 1.679.032 1.326.01 2.655.011 3.983v.894c2.09.925 3.318 2.437 3.334 4.693.016 2.293-1.227 3.828-3.394 4.792 0 .963.114 1.972-.02 2.948-.444 3.226-2.228 5.5-5.275 6.722a1172.363 1172.363 0 01-13.997 5.484c-.586.226-.799.506-.774 1.136.053 1.326.022 2.654.015 3.983-.015 2.55-1.399 4.338-3.89 5.045-.106.03-.2.093-.298.14-3.911-.004-7.823-.004-11.734-.004zM60.28 59.822H6.687v.88c-.004 3.132.994 4.555 3.954 5.706 4.746 1.85 9.486 3.72 14.234 5.565a3.48 3.48 0 001.211.228c4.943.016 9.887.014 14.828.005.326 0 .678-.023.978-.14 5.111-1.99 10.222-3.979 15.315-6.01 1.774-.708 2.79-2.09 3.052-3.954.105-.726.02-1.48.02-2.28zM6.67 6.473c1.63.65 3.094 1.169 4.503 1.808 2.415 1.09 4.824 1.188 7.168-.062 3.85-2.054 7.645-2.065 11.505-.023 2.405 1.273 4.896 1.282 7.305.003 3.824-2.032 7.6-2.05 11.43-.018 2.101 1.115 4.309 1.27 6.548.383 1.694-.671 3.378-1.37 5.167-2.098 0-.004.015-.195.018-.385.026-2.389-.338-2.76-2.723-2.76-15.949 0-31.896.032-47.845-.026-3.15-.011-3.165.945-3.033 3.28.002.022.02.047-.043-.102zm53.601 3.648c-.309.07-.587.1-.842.193-.521.191-1.054.373-1.542.632-3.766 2.008-7.51 1.97-11.277-.017-2.47-1.304-4.99-1.304-7.457.002-3.768 1.994-7.507 2.005-11.275.013-2.498-1.32-5.035-1.317-7.533.002-3.739 1.976-7.455 1.983-11.203.02-.739-.388-1.565-.614-2.398-.933v5.697h53.525c.002-1.878.002-3.717.002-5.609zM33.577 19.09H5.693c-1.545 0-2.326.541-2.35 1.623-.025 1.111.79 1.697 2.361 1.697h55.603c.28 0 .56.016.837-.015.86-.098 1.495-.783 1.516-1.61.02-.857-.634-1.586-1.527-1.682-.276-.029-.558-.013-.838-.013H33.578zm-.067 34.032H5.709c-.307 0-.618-.018-.92.022-.817.11-1.422.79-1.449 1.581a1.668 1.668 0 001.426 1.688c.273.042.558.027.835.027h55.77c.224 0 .448.008.67-.01.947-.075 1.632-.793 1.616-1.683-.015-.858-.685-1.543-1.591-1.619-.278-.022-.558-.008-.838-.008-9.24.002-18.479.002-27.718.002zM26.807 75.55c0 1.588-.036 3.103.014 4.618.029.853.723 1.488 1.611 1.494 3.379.025 6.757.022 10.133 0 .815-.004 1.496-.479 1.55-1.255.111-1.608.033-3.23.033-4.857h-13.34z" fill="#3DA0EB"/><path d="M56.961 37.777c0 1.74.01 3.48-.002 5.22-.016 2.147-1.53 3.565-3.692 3.476-2.986-.124-5.787-2.322-6.148-5.256a28.192 28.192 0 01.005-6.922c.378-2.987 3.28-5.2 6.331-5.24 1.977-.027 3.455 1.379 3.506 3.335.002.056.002.11.002.166-.002 1.741-.002 3.48-.002 5.221zm-3.392-5.37c-1.851.072-3.241 1.38-3.297 3.132a72.534 72.534 0 000 4.47c.056 1.846 1.742 3.208 3.297 3.108v-10.71zm10.088 5.27c.003.916-.783 1.681-1.706 1.661-.893-.02-1.63-.763-1.634-1.648-.004-.918.78-1.678 1.704-1.658.895.017 1.634.763 1.636 1.645z" fill="#3DA0EB"/></svg>